SplineFontDB: 3.0
FontName: Ponnala
FullName: Ponnala
FamilyName: Ponnala
Weight: Book
Copyright: Copyright (c) 2011 Silicon Andhra
Version: 1.0.4
ItalicAngle: 0
UnderlinePosition: -300
UnderlineWidth: 20
Ascent: 819
Descent: 205
sfntRevision: 0x00010000
LayerCount: 2
Layer: 0 1 "Back"  1
Layer: 1 1 "Fore"  0
NeedsXUIDChange: 1
XUID: [1021 990 1785148285 6026617]
FSType: 0
OS2Version: 3
OS2_WeightWidthSlopeOnly: 0
OS2_UseTypoMetrics: 1
CreationTime: 1322744940
ModificationTime: 1330150928
PfmFamily: 17
TTFWeight: 400
TTFWidth: 5
LineGap: 200
VLineGap: 0
Panose: 2 0 6 0 0 0 0 0 0 0
OS2TypoAscent: 798
OS2TypoAOffset: 1
OS2TypoDescent: -579
OS2TypoDOffset: 1
OS2TypoLinegap: 20
OS2WinAscent: -28
OS2WinAOffset: 1
OS2WinDescent: -56
OS2WinDOffset: 1
HheadAscent: -28
HheadAOffset: 1
HheadDescent: 56
HheadDOffset: 1
OS2SubXSize: 717
OS2SubYSize: 666
OS2SubXOff: 0
OS2SubYOff: 205
OS2SupXSize: 717
OS2SupYSize: 666
OS2SupXOff: 0
OS2SupYOff: 512
OS2StrikeYSize: 50
OS2StrikeYPos: 250
OS2Vendor: 'SA  '
OS2CodePages: 00000001.00000000
OS2UnicodeRanges: 80208001.00002042.00000030.00000000
Lookup: 6 0 0 "'abvs' Above Base Substitutions in Telugu lookup 0"  {"'abvs' Above Base Substitutions in Telugu lookup 0 subtable"  } ['abvs' ('telu' <'dflt' > ) ]
Lookup: 4 0 0 "'abvs' Above Base Substitutions in Telugu lookup 1"  {"'abvs' Above Base Substitutions in Telugu lookup 1 subtable"  } ['abvs' ('telu' <'dflt' > ) ]
Lookup: 1 0 0 "'abvs' Above Base Substitutions in Telugu lookup 2"  {"'abvs' Above Base Substitutions in Telugu lookup 2 subtable"  } ['abvs' ('telu' <'dflt' > ) ]
Lookup: 4 0 0 "'akhn' Akhand in Telugu lookup 3"  {"'akhn' Akhand in Telugu lookup 3 subtable"  } ['akhn' ('telu' <'dflt' > ) ]
Lookup: 4 0 0 "'blwf' Below Base Forms in Telugu lookup 4"  {"'blwf' Below Base Forms in Telugu lookup 4 subtable"  } ['blwf' ('telu' <'dflt' > ) ]

StartChar: .notdef
Encoding: 65536 -1 0
Width: 374
Flags: W
LayerCount: 2
Fore
SplineSet
34 0 m 1,0,-1
 34 682 l 1,1,-1
 306 682 l 1,2,-1
 306 0 l 1,3,-1
 34 0 l 1,0,-1
68 34 m 1,4,-1
 272 34 l 1,5,-1
 272 648 l 1,6,-1
 68 648 l 1,7,-1
 68 34 l 1,4,-1
EndSplineSet
EndChar

StartChar: exclam
Encoding: 33 33 4
Width: 203
GlyphClass: 2
Flags: W
LayerCount: 2
Fore
SplineSet
132 463 m 0,0,1
 132 454 132 454 107 312 c 0,2,3
 80 164 80 164 76 134 c 1,4,-1
 63 134 l 1,5,6
 63 136 63 136 27 318 c 0,7,8
 0 455 0 455 0 465 c 0,9,10
 0 492 0 492 18.5 508.5 c 128,-1,11
 37 525 37 525 65 525 c 0,12,13
 91 525 91 525 111.5 507 c 128,-1,14
 132 489 132 489 132 463 c 0,0,1
130 43 m 0,15,16
 130 18 130 18 111 -1 c 1,17,18
 111 -1 111 -1 86 -12 c 0,19,20
 69 -19 69 -19 66 -41 c 1,21,22
 63 -19 63 -19 49.5 -13 c 128,-1,23
 36 -7 36 -7 25 -2 c 1,24,25
 6 16 6 16 6 39 c 0,26,27
 6 64 6 64 24.5 83.5 c 128,-1,28
 43 103 43 103 68 103 c 0,29,30
 94 103 94 103 112 86 c 128,-1,31
 130 69 130 69 130 43 c 0,15,16
EndSplineSet
EndChar

StartChar: parenleft
Encoding: 40 40 5
Width: 444
GlyphClass: 2
Flags: W
LayerCount: 2
Fore
SplineSet
392 -33 m 1,0,1
 356 -61 356 -61 310 -61 c 0,2,3
 223 -61 223 -61 152 25 c 0,4,5
 131 51 131 51 107 141 c 1,6,7
 85 218 85 218 51 236 c 1,8,9
 80 255 80 255 108 346 c 0,10,11
 138 442 138 442 167 470 c 0,12,13
 238 539 238 539 325 539 c 0,14,15
 351 539 351 539 369 531 c 1,16,17
 278 535 278 535 227 429 c 0,18,19
 186 345 186 345 186 244 c 0,20,21
 186 150 186 150 227 66 c 0,22,23
 277 -39 277 -39 361 -39 c 0,24,25
 377 -39 377 -39 392 -33 c 1,0,1
EndSplineSet
EndChar

StartChar: parenright
Encoding: 41 41 6
Width: 442
GlyphClass: 2
Flags: W
LayerCount: 2
Fore
SplineSet
51 -33 m 1,0,1
 66 -39 66 -39 82 -39 c 0,2,3
 166 -39 166 -39 216 66 c 0,4,5
 257 150 257 150 257 244 c 0,6,7
 257 345 257 345 216 429 c 0,8,9
 165 535 165 535 74 531 c 1,10,11
 92 539 92 539 118 539 c 0,12,13
 205 539 205 539 276 470 c 0,14,15
 305 442 305 442 335 346 c 0,16,17
 363 255 363 255 392 236 c 1,18,19
 358 218 358 218 336 141 c 1,20,21
 312 51 312 51 291 25 c 0,22,23
 220 -61 220 -61 133 -61 c 0,24,25
 87 -61 87 -61 51 -33 c 1,0,1
EndSplineSet
EndChar

StartChar: plus
Encoding: 43 43 7
Width: 421
GlyphClass: 2
Flags: W
LayerCount: 2
Fore
SplineSet
252 405 m 1,0,-1
 252 286 l 1,1,-1
 371 286 l 1,2,-1
 371 189 l 1,3,-1
 252 189 l 1,4,-1
 252 70 l 1,5,-1
 155 70 l 1,6,-1
 155 189 l 1,7,-1
 35 189 l 1,8,-1
 35 286 l 1,9,-1
 155 286 l 1,10,-1
 155 405 l 1,11,-1
 252 405 l 1,0,-1
EndSplineSet
EndChar

StartChar: comma
Encoding: 44 44 8
Width: 191
GlyphClass: 2
Flags: W
LayerCount: 2
Fore
SplineSet
37 -52 m 1,0,1
 57 -41 57 -41 57 -20 c 0,2,3
 57 -1 57 -1 40 3 c 0,4,5
 28 5 28 5 17 16 c 0,6,7
 0 31 0 31 0 54 c 256,8,9
 0 77 0 77 15 93.5 c 128,-1,10
 30 110 30 110 52 110 c 0,11,12
 81 110 81 110 102 88 c 128,-1,13
 123 66 123 66 123 36 c 0,14,15
 123 8 123 8 104 -22 c 1,16,17
 82 -54 82 -54 50 -54 c 0,18,19
 44 -54 44 -54 37 -52 c 1,0,1
EndSplineSet
EndChar

StartChar: hyphen
Encoding: 45 45 9
Width: 441
GlyphClass: 2
Flags: W
LayerCount: 2
Fore
SplineSet
371 189 m 1,0,-1
 35 189 l 1,1,-1
 35 286 l 1,2,-1
 371 288 l 1,3,-1
 371 189 l 1,0,-1
EndSplineSet
EndChar

StartChar: period
Encoding: 46 46 10
Width: 185
GlyphClass: 2
Flags: W
LayerCount: 2
Fore
SplineSet
125 63 m 0,0,1
 125 38 125 38 107 18 c 128,-1,2
 89 -2 89 -2 65 -2 c 0,3,4
 0 -2 0 -2 0 57 c 0,5,6
 0 84 0 84 18.5 103.5 c 128,-1,7
 37 123 37 123 64 123 c 256,8,9
 91 123 91 123 108 106.5 c 128,-1,10
 125 90 125 90 125 63 c 0,0,1
EndSplineSet
EndChar

StartChar: slash
Encoding: 47 47 11
Width: 381
GlyphClass: 2
Flags: W
LayerCount: 2
Fore
SplineSet
312 512 m 1,0,-1
 98 -25 l 1,1,-1
 3 -25 l 1,2,-1
 214 512 l 1,3,-1
 312 512 l 1,0,-1
EndSplineSet
EndChar

StartChar: zero
Encoding: 48 48 12
Width: 592
GlyphClass: 2
Flags: W
LayerCount: 2
Fore
SplineSet
522 254 m 0,0,1
 522 166 522 166 458 88 c 0,2,3
 430 54 430 54 349 15 c 0,4,5
 272 -23 272 -23 261 -41 c 1,6,7
 246 -19 246 -19 178 7 c 0,8,9
 102 37 102 37 79 57 c 0,10,11
 0 122 0 122 0 227 c 0,12,13
 0 351 0 351 73.5 422.5 c 128,-1,14
 147 494 147 494 271 494 c 0,15,16
 372 494 372 494 447 424 c 128,-1,17
 522 354 522 354 522 254 c 0,0,1
395 314 m 0,18,19
 395 370 395 370 357.5 405.5 c 128,-1,20
 320 441 320 441 263 441 c 0,21,22
 209 441 209 441 171 404.5 c 128,-1,23
 133 368 133 368 133 314 c 0,24,25
 133 261 133 261 171 225.5 c 128,-1,26
 209 190 209 190 263 190 c 0,27,28
 314 190 314 190 354.5 226 c 128,-1,29
 395 262 395 262 395 314 c 0,18,19
EndSplineSet
EndChar

StartChar: one
Encoding: 49 49 13
Width: 352
GlyphClass: 2
Flags: W
LayerCount: 2
Fore
SplineSet
15 331 m 1,0,1
 19 333 19 333 23 333 c 0,2,3
 40 333 40 333 40 316 c 256,4,5
 40 299 40 299 23 299 c 256,6,7
 6 299 6 299 6 316 c 2,8,-1
 6 354 l 1,9,-1
 5 354 l 1,10,-1
 5 418 l 1,11,12
 35 418 35 418 55 443 c 0,13,14
 73 465 73 465 78 496 c 1,15,-1
 231 496 l 1,16,-1
 231 88 l 2,17,18
 231 68 231 68 265 68 c 0,19,20
 275 68 275 68 282 70 c 1,21,-1
 282 0 l 1,22,-1
 0 0 l 1,23,-1
 0 73 l 1,24,25
 8 69 8 69 18 69 c 0,26,27
 30 69 30 69 42 76 c 0,28,29
 58 84 58 84 56 95 c 1,30,-1
 56 338 l 2,31,32
 56 354 56 354 43 354 c 0,33,34
 15 354 15 354 15 331 c 1,0,1
EndSplineSet
EndChar

StartChar: two
Encoding: 50 50 14
Width: 594
GlyphClass: 2
Flags: W
LayerCount: 2
Fore
SplineSet
202 332 m 1,0,1
 201 335 201 335 201 339 c 0,2,3
 201 356 201 356 217 356 c 0,4,5
 234 356 234 356 234 339 c 256,6,7
 234 322 234 322 217 322 c 2,8,-1
 13 322 l 1,9,10
 9 376 9 376 49 420 c 0,11,12
 117 495 117 495 277 495 c 0,13,14
 351 495 351 495 416 462 c 0,15,16
 497 422 497 422 497 355 c 0,17,18
 497 223 497 223 282 223 c 0,19,20
 51 223 51 223 51 115 c 0,21,22
 51 89 51 89 62 79 c 1,23,24
 103 187 103 187 234 187 c 0,25,26
 278 187 278 187 339 164 c 0,27,28
 388 146 388 146 427 146 c 0,29,30
 479 146 479 146 479 186 c 0,31,32
 479 196 479 196 466 217 c 1,33,34
 524 203 524 203 524 134 c 0,35,36
 524 79 524 79 486 40.5 c 128,-1,37
 448 2 448 2 397 2 c 0,38,39
 349 2 349 2 278.5 37.5 c 128,-1,40
 208 73 208 73 169 73 c 0,41,42
 134 73 134 73 108 55 c 0,43,44
 79 35 79 35 80 2 c 1,45,46
 43 13 43 13 21.5 44 c 128,-1,47
 0 75 0 75 0 116 c 0,48,49
 0 162 0 162 27 206 c 0,50,51
 67 274 67 274 181 294 c 0,52,53
 266 309 266 309 279 314 c 0,54,55
 335 334 335 334 335 384 c 0,56,57
 335 412 335 412 314.5 429 c 128,-1,58
 294 446 294 446 266 446 c 0,59,60
 174 446 174 446 174 363 c 0,61,62
 174 351 174 351 176.5 339.5 c 128,-1,63
 179 328 179 328 202 332 c 1,0,1
EndSplineSet
EndChar

StartChar: three
Encoding: 51 51 15
Width: 560
GlyphClass: 2
Flags: W
LayerCount: 2
Fore
SplineSet
214 337 m 1,0,1
 213 340 213 340 213 344 c 0,2,3
 213 361 213 361 229 361 c 0,4,5
 246 361 246 361 246 344 c 256,6,7
 246 327 246 327 229 327 c 2,8,-1
 26 327 l 1,9,10
 22 414 22 414 92 458 c 0,11,12
 150 495 150 495 242 495 c 0,13,14
 322 495 322 495 382 468 c 0,15,16
 462 433 462 433 462 363 c 0,17,18
 462 320 462 320 424 294 c 1,19,20
 490 261 490 261 490 187 c 0,21,22
 490 107 490 107 408 51 c 0,23,24
 386 36 386 36 310 8 c 0,25,26
 245 -15 245 -15 231 -35 c 1,27,28
 221 -16 221 -16 163 4 c 0,29,30
 90 30 90 30 75 39 c 0,31,32
 0 85 0 85 0 159 c 0,33,34
 0 194 0 194 18 228 c 0,35,36
 39 266 39 266 69 274 c 1,37,38
 64 264 64 264 64 235 c 0,39,40
 64 190 64 190 121 160 c 0,41,42
 169 134 169 134 218 134 c 0,43,44
 266 134 266 134 303 150 c 0,45,46
 353 172 353 172 353 213 c 0,47,48
 353 241 353 241 329 258 c 0,49,50
 308 272 308 272 279 272 c 0,51,52
 243 272 243 272 229 251 c 1,53,-1
 229 299 l 1,54,55
 236 298 236 298 245 298 c 0,56,57
 333 298 333 298 333 372 c 0,58,59
 333 436 333 436 254 436 c 0,60,61
 222 436 222 436 202 417.5 c 128,-1,62
 182 399 182 399 182 372 c 0,63,64
 182 358 182 358 187.5 345.5 c 128,-1,65
 193 333 193 333 214 337 c 1,0,1
EndSplineSet
EndChar

StartChar: four
Encoding: 52 52 16
Width: 649
GlyphClass: 2
Flags: W
LayerCount: 2
Fore
SplineSet
579 119 m 1,0,-1
 444 119 l 1,1,-1
 444 72 l 2,2,3
 444 63 444 63 485 64 c 1,4,-1
 485 0 l 1,5,-1
 213 0 l 1,6,-1
 213 64 l 1,7,8
 253 64 253 64 245 63 c 1,9,10
 258 64 258 64 258 71 c 2,11,-1
 258 121 l 1,12,-1
 0 121 l 1,13,-1
 0 189 l 1,14,15
 121 323 121 323 281 492 c 1,16,-1
 445 492 l 1,17,-1
 445 189 l 1,18,-1
 579 189 l 1,19,-1
 579 119 l 1,0,-1
268 189 m 1,20,-1
 268 395 l 1,21,-1
 78 189 l 1,22,-1
 268 189 l 1,20,-1
EndSplineSet
EndChar

StartChar: five
Encoding: 53 53 17
Width: 523
GlyphClass: 2
Flags: W
LayerCount: 2
Fore
SplineSet
400 397 m 1,0,1
 403 416 403 416 388 418 c 1,2,-1
 119 418 l 1,3,-1
 119 326 l 1,4,5
 172 377 172 377 258 377 c 0,6,7
 338 377 338 377 394 330 c 0,8,9
 453 280 453 280 453 202 c 0,10,11
 453 111 453 111 374 50 c 0,12,13
 352 33 352 33 277 2 c 0,14,15
 215 -24 215 -24 207 -43 c 1,16,17
 200 -24 200 -24 146 -2 c 0,18,19
 79 26 79 26 64 37 c 0,20,21
 0 86 0 86 0 170 c 0,22,23
 0 187 0 187 11 205 c 1,24,25
 23 227 23 227 37 227 c 1,26,27
 46 186 46 186 93 162 c 0,28,29
 133 142 133 142 179 142 c 0,30,31
 234 142 234 142 276 165 c 1,32,33
 326 194 326 194 326 245 c 0,34,35
 326 285 326 285 295.5 307 c 128,-1,36
 265 329 265 329 224 329 c 0,37,38
 196 329 196 329 162 312 c 0,39,40
 123 292 123 292 121 267 c 1,41,-1
 51 267 l 1,42,-1
 51 492 l 1,43,-1
 413 492 l 1,44,-1
 413 382 l 2,45,46
 413 365 413 365 393 365 c 0,47,48
 376 365 376 365 376 382 c 0,49,50
 376 398 376 398 393 398 c 0,51,52
 397 398 397 398 400 397 c 1,0,1
EndSplineSet
EndChar

StartChar: six
Encoding: 54 54 18
Width: 557
GlyphClass: 2
Flags: W
LayerCount: 2
Fore
SplineSet
362 207 m 0,0,1
 362 250 362 250 328 277 c 128,-1,2
 294 304 294 304 250 304 c 0,3,4
 208 304 208 304 176 275 c 128,-1,5
 144 246 144 246 144 204 c 0,6,7
 144 172 144 172 178 145.5 c 128,-1,8
 212 119 212 119 245 119 c 0,9,10
 286 119 286 119 321 142 c 0,11,12
 362 169 362 169 362 207 c 0,0,1
307 388 m 1,13,14
 319 386 319 386 327 391 c 1,15,16
 296 440 296 440 240 440 c 0,17,18
 178 440 178 440 131 399.5 c 128,-1,19
 84 359 84 359 82 297 c 1,20,21
 152 370 152 370 255 370 c 0,22,23
 341 370 341 370 409 327 c 0,24,25
 487 278 487 278 487 197 c 0,26,27
 487 102 487 102 412 45 c 0,28,29
 392 30 392 30 316 2 c 0,30,31
 252 -22 252 -22 241 -42 c 1,32,33
 229 -20 229 -20 168 2 c 0,34,35
 98 28 98 28 80 42 c 0,36,37
 0 104 0 104 0 228 c 0,38,39
 0 347 0 347 71 418.5 c 128,-1,40
 142 490 142 490 261 490 c 0,41,42
 414 490 414 490 455 378 c 1,43,-1
 292 378 l 2,44,45
 275 378 275 378 275 395 c 256,46,47
 275 412 275 412 292 412 c 0,48,49
 308 412 308 412 308 395 c 0,50,51
 308 391 308 391 307 388 c 1,13,14
EndSplineSet
EndChar

StartChar: seven
Encoding: 55 55 19
Width: 523
GlyphClass: 2
Flags: W
LayerCount: 2
Fore
SplineSet
126 384 m 1,0,1
 125 387 125 387 125 391 c 0,2,3
 125 408 125 408 141 408 c 0,4,5
 158 408 158 408 158 391 c 256,6,7
 158 374 158 374 141 374 c 2,8,-1
 0 374 l 1,9,-1
 0 492 l 1,10,-1
 454 492 l 1,11,-1
 454 420 l 1,12,13
 441 426 441 426 427 426 c 0,14,15
 370 426 370 426 320 330 c 0,16,17
 276 246 276 246 276 181 c 0,18,19
 276 123 276 123 288.5 86.5 c 128,-1,20
 301 50 301 50 335 0 c 1,21,-1
 126 0 l 1,22,23
 106 42 106 42 106 99 c 0,24,25
 106 192 106 192 150 286 c 0,26,27
 197 385 197 385 269 431 c 1,28,-1
 101 431 l 1,29,-1
 101 401 l 2,30,31
 101 393 101 393 111 388 c 128,-1,32
 121 383 121 383 126 384 c 1,0,1
EndSplineSet
EndChar

StartChar: eight
Encoding: 56 56 20
Width: 525
GlyphClass: 2
Flags: W
LayerCount: 2
Fore
SplineSet
454 172 m 0,0,1
 454 72 454 72 363 25 c 1,2,3
 326 10 326 10 289 -5 c 0,4,5
 246 -23 246 -23 235 -43 c 1,6,7
 221 -25 221 -25 166 -4 c 1,8,9
 99 23 99 23 81 34 c 0,10,11
 0 85 0 85 0 172 c 0,12,13
 0 217 0 217 26 250.5 c 128,-1,14
 52 284 52 284 95 293 c 1,15,16
 45 338 45 338 45 376 c 0,17,18
 45 433 45 433 103.5 461.5 c 128,-1,19
 162 490 162 490 225 490 c 0,20,21
 417 490 417 490 417 377 c 0,22,23
 417 350 417 350 399 330 c 0,24,25
 390 319 390 319 361 296 c 1,26,27
 454 258 454 258 454 172 c 0,0,1
309 358 m 0,28,29
 309 411 309 411 228 411 c 0,30,31
 204 411 204 411 182 399 c 0,32,33
 156 384 156 384 156 362 c 0,34,35
 156 314 156 314 231 314 c 0,36,37
 253 314 253 314 278 326 c 0,38,39
 309 340 309 340 309 358 c 0,28,29
335 219 m 0,40,41
 335 250 335 250 302 267 c 0,42,43
 276 280 276 280 241 280 c 0,44,45
 137 280 137 280 137 219 c 0,46,47
 137 187 137 187 166 170 c 0,48,49
 190 156 190 156 223 156 c 0,50,51
 264 156 264 156 294 168 c 0,52,53
 335 184 335 184 335 219 c 0,40,41
EndSplineSet
EndChar

StartChar: nine
Encoding: 57 57 21
Width: 532
GlyphClass: 2
Flags: W
LayerCount: 2
Fore
SplineSet
318 333 m 0,0,1
 318 381 318 381 296 413 c 0,2,3
 270 450 270 450 223 450 c 0,4,5
 173 450 173 450 146 409 c 0,6,7
 122 373 122 373 122 321 c 0,8,9
 122 271 122 271 147 238 c 1,10,11
 174 200 174 200 222 200 c 0,12,13
 272 200 272 200 297 244 c 0,14,15
 318 280 318 280 318 333 c 0,0,1
143 88 m 1,16,17
 132 90 132 90 123 86 c 1,18,19
 155 34 155 34 208 34 c 0,20,21
 273 34 273 34 306 78 c 0,22,23
 336 118 336 118 334 185 c 1,24,25
 303 159 303 159 271 152 c 0,26,27
 251 148 251 148 202 148 c 0,28,29
 127 148 127 148 68 186 c 0,30,31
 1 230 1 230 1 301 c 0,32,33
 1 392 1 392 69 446 c 0,34,35
 133 496 133 496 226 496 c 0,36,37
 328 496 328 496 395 424 c 128,-1,38
 462 352 462 352 462 248 c 0,39,40
 462 78 462 78 355 21 c 0,41,42
 346 16 346 16 277 -6 c 0,43,44
 224 -23 224 -23 206 -43 c 1,45,46
 193 -22 193 -22 138 -6 c 0,47,48
 70 14 70 14 59 21 c 0,49,50
 17 47 17 47 -2 98 c 1,51,-1
 116 98 l 1,52,-1
 116 98 l 1,53,-1
 116 98 l 1,54,-1
 158 98 l 2,55,56
 175 98 175 98 175 81 c 256,57,58
 175 64 175 64 158 64 c 0,59,60
 142 64 142 64 142 81 c 0,61,62
 142 85 142 85 143 88 c 1,16,17
EndSplineSet
EndChar

StartChar: colon
Encoding: 58 58 22
Width: 195
GlyphClass: 2
Flags: W
LayerCount: 2
Fore
SplineSet
125 303 m 0,0,1
 125 278 125 278 107 258 c 128,-1,2
 89 238 89 238 65 238 c 0,3,4
 0 238 0 238 0 297 c 0,5,6
 0 324 0 324 18.5 343.5 c 128,-1,7
 37 363 37 363 64 363 c 256,8,9
 91 363 91 363 108 346.5 c 128,-1,10
 125 330 125 330 125 303 c 0,0,1
125 63 m 0,11,12
 125 38 125 38 107 18 c 128,-1,13
 89 -2 89 -2 65 -2 c 0,14,15
 0 -2 0 -2 0 57 c 0,16,17
 0 84 0 84 18.5 103.5 c 128,-1,18
 37 123 37 123 64 123 c 256,19,20
 91 123 91 123 108 106.5 c 128,-1,21
 125 90 125 90 125 63 c 0,11,12
EndSplineSet
EndChar

StartChar: semicolon
Encoding: 59 59 23
Width: 195
GlyphClass: 2
Flags: W
LayerCount: 2
Fore
SplineSet
37 -52 m 1,0,1
 57 -41 57 -41 57 -20 c 0,2,3
 57 -1 57 -1 40 3 c 0,4,5
 28 5 28 5 17 16 c 0,6,7
 0 31 0 31 0 54 c 256,8,9
 0 77 0 77 15 93.5 c 128,-1,10
 30 110 30 110 52 110 c 0,11,12
 81 110 81 110 102 88 c 128,-1,13
 123 66 123 66 123 36 c 0,14,15
 123 8 123 8 104 -21 c 0,16,17
 82 -54 82 -54 50 -54 c 0,18,19
 44 -54 44 -54 37 -52 c 1,0,1
125 303 m 0,20,21
 125 278 125 278 107 258 c 128,-1,22
 89 238 89 238 65 238 c 0,23,24
 0 238 0 238 0 297 c 0,25,26
 0 324 0 324 18.5 343.5 c 128,-1,27
 37 363 37 363 64 363 c 256,28,29
 91 363 91 363 108 346.5 c 128,-1,30
 125 330 125 330 125 303 c 0,20,21
EndSplineSet
EndChar

StartChar: equal
Encoding: 61 61 24
Width: 441
GlyphClass: 2
Flags: W
LayerCount: 2
Fore
SplineSet
371 259 m 1,0,-1
 35 259 l 1,1,-1
 35 336 l 1,2,-1
 371 336 l 1,3,-1
 371 259 l 1,0,-1
371 119 m 1,4,-1
 35 119 l 1,5,-1
 35 196 l 1,6,-1
 371 196 l 1,7,-1
 371 119 l 1,4,-1
EndSplineSet
EndChar

StartChar: question
Encoding: 63 63 25
Width: 354
GlyphClass: 2
Flags: W
LayerCount: 2
Fore
SplineSet
221 31 m 0,0,1
 221 -4 221 -4 190 -24 c 0,2,3
 155 -47 155 -47 152 -56 c 1,4,5
 147 -48 147 -48 112 -24 c 0,6,7
 84 -5 84 -5 84 28 c 0,8,9
 84 55 84 55 104.5 77 c 128,-1,10
 125 99 125 99 152 99 c 0,11,12
 181 99 181 99 201 80 c 128,-1,13
 221 61 221 61 221 31 c 0,0,1
144 389 m 1,14,15
 144 380 144 380 144 367 c 0,16,17
 144 350 144 350 124 337.5 c 128,-1,18
 104 325 104 325 87 325 c 0,19,20
 51 325 51 325 28 340 c 0,21,22
 0 357 0 357 0 391 c 0,23,24
 0 497 0 497 149 497 c 0,25,26
 202 497 202 497 240 474 c 0,27,28
 284 446 284 446 284 395 c 0,29,30
 284 353 284 353 247 323 c 1,31,32
 211 302 211 302 175 280 c 128,-1,33
 139 258 139 258 139 233 c 0,34,35
 139 207 139 207 168 207 c 0,36,37
 195 207 195 207 195 228 c 0,38,39
 195 242 195 242 178 251 c 1,40,41
 183 253 183 253 187 253 c 0,42,43
 204 253 204 253 213.5 236.5 c 128,-1,44
 223 220 223 220 223 202 c 0,45,46
 223 173 223 173 207 157 c 0,47,48
 198 148 198 148 172 136 c 0,49,50
 150 125 150 125 144 114 c 1,51,52
 137 125 137 125 114.5 136.5 c 128,-1,53
 92 148 92 148 83 157 c 1,54,55
 68 175 68 175 68 206 c 0,56,57
 68 252 68 252 114 283 c 1,58,59
 156 306 156 306 199 329 c 1,60,61
 245 359 245 359 245 402 c 0,62,63
 245 430 245 430 219.5 448 c 128,-1,64
 194 466 194 466 164 466 c 0,65,66
 135 466 135 466 115 454 c 1,67,68
 91 438 91 438 91 411 c 0,69,70
 91 380 91 380 114 380 c 0,71,72
 126 380 126 380 126 389 c 1,73,-1
 144 389 l 1,14,15
EndSplineSet
EndChar

StartChar: backslash
Encoding: 92 92 26
Width: 378
GlyphClass: 2
Flags: W
LayerCount: 2
Fore
SplineSet
98 512 m 1,0,-1
 309 -25 l 1,1,-1
 214 -25 l 1,2,-1
 0 512 l 1,3,-1
 98 512 l 1,0,-1
EndSplineSet
EndChar

StartChar: underscore
Encoding: 95 95 27
Width: 591
GlyphClass: 2
Flags: W
LayerCount: 2
Fore
SplineSet
521 0 m 1,0,-1
 35 0 l 1,1,-1
 35 97 l 1,2,-1
 521 99 l 1,3,-1
 521 0 l 1,0,-1
EndSplineSet
EndChar

StartChar: bar
Encoding: 124 124 28
Width: 244
GlyphClass: 2
Flags: W
LayerCount: 2
Fore
SplineSet
173 477 m 1,0,-1
 173 0 l 1,1,-1
 74 0 l 1,2,-1
 74 477 l 1,3,-1
 173 477 l 1,0,-1
EndSplineSet
EndChar

StartChar: uni0964
Encoding: 2404 2404 29
Width: 168
GlyphClass: 2
Flags: W
LayerCount: 2
Fore
SplineSet
88 -20 m 1,0,-1
 0 -20 l 1,1,-1
 0 472 l 1,2,-1
 88 472 l 1,3,-1
 88 -20 l 1,0,-1
EndSplineSet
EndChar

StartChar: uni0965
Encoding: 2405 2405 30
Width: 368
GlyphClass: 2
Flags: W
LayerCount: 2
Fore
SplineSet
88 -20 m 1,0,-1
 0 -20 l 1,1,-1
 0 472 l 1,2,-1
 88 472 l 1,3,-1
 88 -20 l 1,0,-1
288 -20 m 1,4,-1
 200 -20 l 1,5,-1
 200 472 l 1,6,-1
 288 472 l 1,7,-1
 288 -20 l 1,4,-1
EndSplineSet
EndChar

StartChar: U0C01
Encoding: 3073 3073 31
Width: 382
GlyphClass: 2
Flags: W
LayerCount: 2
Fore
SplineSet
20 228 m 1,0,-1
 0 242 l 1,1,2
 18 253 18 253 29 273 c 0,3,4
 38 290 38 290 50 333 c 128,-1,5
 62 376 62 376 85 416 c 1,6,7
 116 462 116 462 166 480 c 0,8,9
 200 492 200 492 229 492 c 128,-1,10
 258 492 258 492 283 480 c 0,11,12
 293 476 293 476 300 469 c 1,13,14
 213 467 213 467 166 385 c 0,15,16
 135 332 135 332 133 242 c 1,17,18
 137 171 137 171 178 103 c 1,19,20
 215 33 215 33 302 12 c 1,21,22
 261 0 261 0 234 0 c 0,23,24
 231 0 231 0 227 0 c 0,25,26
 133 0 133 0 96 86 c 1,27,28
 50 198 50 198 20 228 c 1,0,-1
EndSplineSet
EndChar

StartChar: U0C02
Encoding: 3074 3074 32
Width: 622
GlyphClass: 2
Flags: W
LayerCount: 2
Fore
SplineSet
542 246 m 0,0,1
 542 177 542 177 504.5 120 c 128,-1,2
 467 63 467 63 403 31 c 1,3,4
 365 16 365 16 327 2 c 0,5,6
 279 -17 279 -17 270 -41 c 1,7,8
 261 -17 261 -17 208 4 c 0,9,10
 130 35 130 35 125 37 c 0,11,12
 0 111 0 111 0 246 c 0,13,14
 0 354 0 354 83 425 c 0,15,16
 161 493 161 493 270 493 c 256,17,18
 379 493 379 493 459 425 c 1,19,20
 542 353 542 353 542 246 c 0,0,1
431 309 m 256,21,22
 431 372 431 372 383 411 c 128,-1,23
 335 450 335 450 270 450 c 256,24,25
 205 450 205 450 159 412 c 0,26,27
 109 372 109 372 109 309 c 256,28,29
 109 246 109 246 159 203 c 0,30,31
 206 163 206 163 270 163 c 0,32,33
 335 163 335 163 383 204.5 c 128,-1,34
 431 246 431 246 431 309 c 256,21,22
EndSplineSet
EndChar

StartChar: U0C03
Encoding: 3075 3075 33
Width: 265
GlyphClass: 2
Flags: W
LayerCount: 2
Fore
SplineSet
185 140 m 0,0,1
 185 116 185 116 172 96.5 c 128,-1,2
 159 77 159 77 137 67 c 0,3,4
 124 61 124 61 111 57 c 1,5,6
 95 50 95 50 92 42 c 1,7,8
 89 50 89 50 71 57 c 0,9,10
 44 68 44 68 43 69 c 0,11,12
 0 94 0 94 0 140 c 0,13,14
 0 176 0 176 28 200 c 0,15,16
 55 224 55 224 92 224 c 256,17,18
 129 224 129 224 156 200 c 1,19,20
 185 176 185 176 185 140 c 0,0,1
147 161 m 256,21,22
 147 182 147 182 130.5 195.5 c 128,-1,23
 114 209 114 209 92 209 c 256,24,25
 70 209 70 209 54 196 c 0,26,27
 37 182 37 182 37 161 c 256,28,29
 37 140 37 140 54 125 c 0,30,31
 70 111 70 111 92 111 c 256,32,33
 114 111 114 111 130.5 125.5 c 128,-1,34
 147 140 147 140 147 161 c 256,21,22
185 350 m 0,35,36
 185 326 185 326 172 306.5 c 128,-1,37
 159 287 159 287 137 277 c 0,38,39
 124 271 124 271 111 267 c 1,40,41
 95 260 95 260 92 252 c 1,42,43
 89 260 89 260 71 267 c 0,44,45
 44 278 44 278 43 279 c 0,46,47
 0 304 0 304 0 350 c 0,48,49
 0 386 0 386 28 410 c 0,50,51
 55 434 55 434 92 434 c 256,52,53
 129 434 129 434 156 410 c 1,54,55
 185 386 185 386 185 350 c 0,35,36
147 371 m 256,56,57
 147 392 147 392 130.5 405.5 c 128,-1,58
 114 419 114 419 92 419 c 256,59,60
 70 419 70 419 54 406 c 0,61,62
 37 392 37 392 37 371 c 256,63,64
 37 350 37 350 54 335 c 0,65,66
 70 321 70 321 92 321 c 256,67,68
 114 321 114 321 130.5 335.5 c 128,-1,69
 147 350 147 350 147 371 c 256,56,57
EndSplineSet
EndChar

StartChar: U0C05
Encoding: 3077 3077 34
Width: 669
GlyphClass: 2
Flags: W
LayerCount: 2
Fore
SplineSet
234 393 m 0,0,1
 234 415 234 415 220 427.5 c 128,-1,2
 206 440 206 440 187 440 c 0,3,4
 165 440 165 440 151.5 426 c 128,-1,5
 138 412 138 412 138 393 c 0,6,7
 138 372 138 372 152 359.5 c 128,-1,8
 166 347 166 347 187 347 c 0,9,10
 234 347 234 347 234 393 c 0,0,1
449 219 m 1,11,-1
 234 219 l 1,12,13
 207 221 207 221 207 205 c 1,14,-1
 173 205 l 1,15,-1
 173 271 l 1,16,-1
 366 271 l 1,17,18
 329 314 329 314 329 373 c 0,19,20
 329 422 329 422 359 456 c 128,-1,21
 389 490 389 490 437 490 c 0,22,23
 508 490 508 490 551 430 c 0,24,25
 589 377 589 377 589 303 c 0,26,27
 589 226 589 226 550 156.5 c 128,-1,28
 511 87 511 87 447 45 c 0,29,30
 441 41 441 41 361 7 c 0,31,32
 307 -17 307 -17 299 -42 c 1,33,34
 289 -17 289 -17 224 6 c 0,35,36
 136 38 136 38 124 44 c 0,37,38
 0 118 0 118 0 273 c 0,39,40
 0 361 0 361 52 425 c 1,41,42
 108 492 108 492 194 492 c 0,43,44
 240 492 240 492 274 468 c 0,45,46
 312 442 312 442 312 399 c 0,47,48
 312 347 312 347 277 316 c 128,-1,49
 242 285 242 285 182 285 c 0,50,51
 140 285 140 285 106.5 316 c 128,-1,52
 73 347 73 347 72 389 c 1,53,54
 57 373 57 373 57 337 c 0,55,56
 57 250 57 250 131 202 c 0,57,58
 193 162 193 162 285 162 c 0,59,60
 366 162 366 162 442 197 c 0,61,62
 536 240 536 240 536 312 c 0,63,64
 536 411 536 411 437 411 c 0,65,66
 410 411 410 411 392.5 391 c 128,-1,67
 375 371 375 371 375 344 c 0,68,69
 375 291 375 291 434 284 c 1,70,71
 444 281 444 281 449 286 c 1,72,-1
 449 219 l 1,11,-1
EndSplineSet
EndChar

StartChar: U0C06
Encoding: 3078 3078 35
Width: 656
GlyphClass: 2
Flags: W
LayerCount: 2
Fore
SplineSet
404 229 m 2,0,-1
 318 228 l 2,1,2
 302 228 302 228 297 224.5 c 128,-1,3
 292 221 292 221 292 206 c 1,4,-1
 260 206 l 1,5,-1
 260 292 l 1,6,-1
 372 292 l 2,7,8
 378 292 378 292 394.5 298 c 128,-1,9
 411 304 411 304 416 309 c 1,10,11
 375 312 375 312 348 336.5 c 128,-1,12
 321 361 321 361 321 402 c 0,13,14
 321 445 321 445 357 471 c 0,15,16
 390 494 390 494 440 494 c 0,17,18
 503 494 503 494 541 461 c 1,19,20
 574 431 574 431 574 393 c 0,21,22
 574 360 574 360 564 342 c 0,23,24
 561 335 561 335 534 300 c 1,25,26
 576 276 576 276 576 211 c 0,27,28
 576 90 576 90 434 27 c 1,29,30
 395 14 395 14 356 0 c 0,31,32
 306 -18 306 -18 299 -42 c 1,33,34
 288 -17 288 -17 239 0 c 1,35,36
 197 13 197 13 156 27 c 1,37,38
 85 59 85 59 42.5 117.5 c 128,-1,39
 0 176 0 176 0 248 c 0,40,41
 0 352 0 352 42 415 c 0,42,43
 94 494 94 494 182 494 c 0,44,45
 229 494 229 494 261 467 c 128,-1,46
 293 440 293 440 293 393 c 0,47,48
 293 335 293 335 252 305 c 0,49,50
 223 283 223 283 182 283 c 0,51,52
 128 283 128 283 97 320 c 0,53,54
 71 351 71 351 70 388 c 1,55,56
 67 381 67 381 67 333 c 0,57,58
 67 249 67 249 130 203 c 0,59,60
 186 163 186 163 273 163 c 0,61,62
 476 163 476 163 492 265 c 1,63,64
 481 254 481 254 455 242 c 0,65,66
 425 229 425 229 404 229 c 2,0,-1
206 399 m 0,67,68
 206 420 206 420 191 434.5 c 128,-1,69
 176 449 176 449 156 449 c 0,70,71
 135 449 135 449 120.5 434.5 c 128,-1,72
 106 420 106 420 106 399 c 0,73,74
 106 379 106 379 120.5 364 c 128,-1,75
 135 349 135 349 156 349 c 0,76,77
 176 349 176 349 191 364 c 128,-1,78
 206 379 206 379 206 399 c 0,67,68
514 369 m 0,79,80
 514 392 514 392 494 409 c 128,-1,81
 474 426 474 426 451 426 c 0,82,83
 393 426 393 426 393 379 c 0,84,85
 393 330 393 330 492 325 c 1,86,87
 514 341 514 341 514 369 c 0,79,80
EndSplineSet
EndChar

StartChar: U0C07
Encoding: 3079 3079 36
Width: 627
GlyphClass: 2
Flags: W
LayerCount: 2
Fore
SplineSet
416 155 m 1,0,1
 394 196 394 196 356 223 c 1,2,3
 313 248 313 248 279 248 c 0,4,5
 182 248 182 248 182 177 c 0,6,7
 182 143 182 143 214.5 117.5 c 128,-1,8
 247 92 247 92 282 92 c 0,9,10
 358 92 358 92 416 155 c 1,0,1
163 433 m 0,11,12
 116 433 116 433 116 387 c 0,13,14
 116 351 116 351 137 351 c 0,15,16
 147 351 147 351 148 360 c 1,17,-1
 164 360 l 1,18,-1
 164 334 l 1,19,-1
 2 334 l 1,20,21
 0 345 0 345 0 357 c 0,22,23
 0 406 0 406 37.5 445.5 c 128,-1,24
 75 485 75 485 124 485 c 0,25,26
 196 485 196 485 243 433 c 1,27,28
 271 467 271 467 296 478.5 c 128,-1,29
 321 490 321 490 366 490 c 0,30,31
 449 490 449 490 496 431 c 0,32,33
 538 377 538 377 538 291 c 0,34,35
 538 212 538 212 510 155 c 1,36,37
 529 133 529 133 539 97 c 1,38,39
 547 62 547 62 547 30 c 0,40,41
 547 6 547 6 543 -15 c 1,42,-1
 412 -14 l 1,43,44
 421 -5 421 -5 429.5 21 c 128,-1,45
 438 47 438 47 438 61 c 0,46,47
 438 69 438 69 435 73 c 1,48,49
 415 57 415 57 394 45 c 0,50,51
 383 39 383 39 290 6 c 0,52,53
 223 -18 223 -18 214 -41 c 1,54,55
 206 -18 206 -18 156 6 c 0,56,57
 85 40 85 40 78 44 c 0,58,59
 13 90 13 90 13 154 c 0,60,61
 13 230 13 230 90 267 c 1,62,63
 149 297 149 297 233 297 c 0,64,65
 292 297 292 297 363 274 c 1,66,67
 433 244 433 244 469 204 c 1,68,69
 494 245 494 245 494 274 c 2,70,-1
 494 282 l 1,71,-1
 494 289 l 2,72,73
 494 292 494 292 494 295 c 128,-1,74
 494 298 494 298 494 300 c 0,75,76
 494 304 494 304 494 305 c 0,77,78
 494 307 494 307 494 309 c 128,-1,79
 494 311 494 311 494 312 c 128,-1,80
 494 313 494 313 494 315 c 0,81,82
 494 316 494 316 494 317 c 0,83,84
 494 335 494 335 456 376 c 0,85,86
 414 421 414 421 359 421 c 0,87,88
 322 421 322 421 310 416 c 0,89,90
 282 405 282 405 271 358 c 1,91,-1
 222 358 l 1,92,93
 223 365 223 365 223 371 c 0,94,95
 223 396 223 396 205 414.5 c 128,-1,96
 187 433 187 433 163 433 c 0,11,12
EndSplineSet
EndChar

StartChar: U0C08
Encoding: 3080 3080 37
Width: 1008
GlyphClass: 2
Flags: W
LayerCount: 2
Fore
SplineSet
869 219 m 0,0,1
 866 282 866 282 793 282 c 1,2,3
 733 278 733 278 733 222 c 1,4,5
 742 165 742 165 803 163 c 1,6,7
 841 163 841 163 855 180.5 c 128,-1,8
 869 198 869 198 869 219 c 0,0,1
753 361 m 2,9,10
 754 361 754 361 756 361 c 0,11,12
 774 360 774 360 800 374 c 1,13,14
 836 396 836 396 836 423 c 0,15,16
 836 452 836 452 815.5 471.5 c 128,-1,17
 795 491 795 491 765 491 c 0,18,19
 709 491 709 491 709 455 c 0,20,21
 709 452 709 452 709 449 c 0,22,23
 709 434 709 434 716 425 c 0,24,25
 718 421 718 421 733 421 c 0,26,27
 738 421 738 421 742 429 c 0,28,29
 745 436 745 436 750 438.5 c 128,-1,30
 755 441 755 441 761 441 c 0,31,32
 785 441 785 441 785 417 c 0,33,34
 785 403 785 403 770 395.5 c 128,-1,35
 755 388 755 388 740 388 c 0,36,37
 726 388 726 388 707 393 c 0,38,39
 666 403 666 403 666 459 c 0,40,41
 666 501 666 501 700 527 c 0,42,43
 730 551 730 551 774 551 c 0,44,45
 820 551 820 551 851.5 523.5 c 128,-1,46
 883 496 883 496 883 450 c 0,47,48
 883 397 883 397 835 362 c 1,49,50
 928 321 928 321 928 238 c 0,51,52
 928 179 928 179 887 139 c 128,-1,53
 846 99 846 99 786 99 c 1,54,55
 672 106 672 106 667 210 c 1,56,57
 667 231 667 231 679 255 c 1,58,59
 693 274 693 274 709 282 c 1,60,-1
 0 282 l 1,61,-1
 0 360 l 1,62,-1
 753 361 l 2,9,10
611 702 m 1,63,64
 609 697 609 697 553 569 c 0,65,66
 543 547 543 547 529 547 c 0,67,68
 527 547 527 547 525 547 c 0,69,70
 509 550 509 550 509 566 c 0,71,72
 509 580 509 580 528 586 c 1,73,74
 513 603 513 603 494 603 c 0,75,76
 453 603 453 603 410 555 c 0,77,78
 351 489 351 489 328 474 c 0,79,80
 287 449 287 449 242 449 c 0,81,82
 237 449 237 449 232 449 c 0,83,84
 165 454 165 454 110 508 c 1,85,86
 123 539 123 539 154 605 c 0,87,88
 162 622 162 622 174 622 c 0,89,90
 187 622 187 622 191 608 c 0,91,92
 194 594 194 594 175 590 c 1,93,94
 179 545 179 545 250 534 c 0,95,96
 261 532 261 532 271 532 c 0,97,98
 299 532 299 532 318 547 c 0,99,100
 339 564 339 564 375.5 615 c 128,-1,101
 412 666 412 666 437 687 c 1,102,103
 479 720 479 720 536 720 c 0,104,105
 561 720 561 720 611 702 c 1,63,64
612 246 m 0,106,107
 612 177 612 177 574.5 120 c 128,-1,108
 537 63 537 63 473 31 c 1,109,110
 435 16 435 16 397 2 c 0,111,112
 349 -17 349 -17 340 -41 c 1,113,114
 331 -17 331 -17 278 4 c 0,115,116
 200 35 200 35 195 37 c 0,117,118
 70 111 70 111 70 246 c 0,119,120
 70 354 70 354 153 425 c 0,121,122
 231 493 231 493 340 493 c 256,123,124
 449 493 449 493 529 425 c 1,125,126
 612 353 612 353 612 246 c 0,106,107
501 309 m 256,127,128
 501 372 501 372 453 411 c 128,-1,129
 405 450 405 450 340 450 c 256,130,131
 275 450 275 450 229 412 c 0,132,133
 179 372 179 372 179 309 c 256,134,135
 179 246 179 246 229 203 c 0,136,137
 276 163 276 163 340 163 c 0,138,139
 405 163 405 163 453 204.5 c 128,-1,140
 501 246 501 246 501 309 c 256,127,128
EndSplineSet
EndChar

StartChar: U0C09
Encoding: 3081 3081 38
Width: 729
GlyphClass: 2
Flags: W
LayerCount: 2
Fore
SplineSet
440 599 m 0,0,1
 440 590 440 590 417 558 c 2,2,-1
 385 512 l 1,3,4
 363 533 363 533 341 553 c 1,5,6
 313 582 313 582 313 599 c 0,7,8
 313 624 313 624 333.5 640.5 c 128,-1,9
 354 657 354 657 380 657 c 0,10,11
 401 657 401 657 422 638 c 0,12,13
 442 620 442 620 440 603 c 0,14,15
 440 601 440 601 440 599 c 0,0,1
494 376 m 1,16,17
 494 386 494 386 494 387 c 128,-1,18
 494 388 494 388 494 395 c 1,19,20
 512 394 512 394 512 405 c 0,21,22
 512 410 512 410 509 415 c 0,23,24
 488 450 488 450 360 450 c 0,25,26
 302 450 302 450 256.5 417.5 c 128,-1,27
 211 385 211 385 195 336 c 1,28,-1
 629 336 l 1,29,-1
 629 281 l 1,30,-1
 188 281 l 1,31,32
 187 273 187 273 187 266 c 0,33,34
 187 235 187 235 203 208 c 0,35,36
 227 167 227 167 277 167 c 0,37,38
 363 167 363 167 363 231 c 0,39,40
 363 243 363 243 363 250 c 1,41,-1
 391 250 l 1,42,43
 391 248 391 248 394 230 c 0,44,45
 402 190 402 190 443 170 c 0,46,47
 470 157 470 157 498 157 c 0,48,49
 532 157 532 157 558.5 190 c 128,-1,50
 585 223 585 223 585 260 c 1,51,52
 606 260 606 260 626 231 c 0,53,54
 649 199 649 199 649 157 c 0,55,56
 649 111 649 111 632 84 c 0,57,58
 618 61 618 61 577 31 c 1,59,60
 554 17 554 17 531 2 c 0,61,62
 504 -16 504 -16 494 -41 c 1,63,64
 482 -18 482 -18 446 2 c 0,65,66
 401 27 401 27 396 31 c 0,67,68
 380 46 380 46 376 67 c 1,69,70
 375 57 375 57 357 44 c 0,71,72
 349 38 349 38 322 22 c 1,73,74
 301 11 301 11 280 0 c 1,75,76
 255 -16 255 -16 246 -41 c 1,77,78
 234 -16 234 -16 207 1 c 1,79,80
 185 12 185 12 164 24 c 1,81,82
 83 76 83 76 83 209 c 0,83,84
 83 246 83 246 90 281 c 1,85,-1
 0 281 l 1,86,-1
 0 336 l 1,87,-1
 111 336 l 1,88,89
 139 409 139 409 205 451 c 1,90,91
 267 492 267 492 345 493 c 0,92,93
 354 493 354 493 363 493 c 0,94,95
 573 493 573 493 618 377 c 1,96,-1
 494 376 l 1,16,17
EndSplineSet
EndChar

StartChar: U0C0A
Encoding: 3082 3082 39
Width: 1005
GlyphClass: 2
Flags: W
LayerCount: 2
Fore
SplineSet
520 607 m 0,0,1
 520 588 520 588 499 558 c 0,2,3
 468 515 468 515 464 507 c 1,4,5
 457 515 457 515 427 552 c 0,6,7
 399 585 399 585 399 604 c 0,8,9
 399 625 399 625 419 641.5 c 128,-1,10
 439 658 439 658 461 658 c 0,11,12
 520 658 520 658 520 607 c 0,0,1
876 239 m 256,13,14
 876 261 876 261 857 274.5 c 128,-1,15
 838 288 838 288 815 288 c 256,16,17
 792 288 792 288 773.5 273.5 c 128,-1,18
 755 259 755 259 755 237 c 0,19,20
 755 187 755 187 815 187 c 0,21,22
 838 187 838 187 857 202 c 128,-1,23
 876 217 876 217 876 239 c 256,13,14
607 374 m 1,24,-1
 494 374 l 1,25,26
 494 384 494 384 494 385 c 128,-1,27
 494 386 494 386 494 393 c 1,28,29
 513 392 513 392 513 405 c 0,30,31
 513 409 513 409 510 414 c 1,32,33
 510 431 510 431 468 441.5 c 128,-1,34
 426 452 426 452 368 452 c 0,35,36
 308 452 308 452 257 422 c 0,37,38
 202 390 202 390 181 335 c 1,39,-1
 723 335 l 1,40,-1
 786 350 l 1,41,42
 823 364 823 364 823 391 c 0,43,44
 823 437 823 437 774 437 c 0,45,46
 723 437 723 437 723 393 c 0,47,48
 723 383 723 383 744 387 c 1,49,50
 742 390 742 390 742 393 c 0,51,52
 742 404 742 404 759 404 c 256,53,54
 776 404 776 404 776 387 c 0,55,56
 776 379 776 379 769.5 369.5 c 128,-1,57
 763 360 763 360 756 360 c 0,58,59
 752 360 752 360 749 360 c 0,60,61
 683 360 683 360 683 428 c 0,62,63
 683 511 683 511 793 511 c 0,64,65
 830 511 830 511 856 488 c 128,-1,66
 882 465 882 465 882 429 c 0,67,68
 882 373 882 373 832 342 c 1,69,70
 925 320 925 320 925 215 c 0,71,72
 925 160 925 160 888.5 123.5 c 128,-1,73
 852 87 852 87 797 87 c 0,74,75
 740 87 740 87 703 113 c 0,76,77
 662 142 662 142 662 198 c 0,78,79
 662 250 662 250 701 275 c 1,80,-1
 184 275 l 1,81,82
 179 264 179 264 179 253 c 0,83,84
 179 219 179 219 209 193.5 c 128,-1,85
 239 168 239 168 275 168 c 0,86,87
 361 168 361 168 362 251 c 1,88,-1
 391 251 l 1,89,90
 389 244 389 244 389 238 c 0,91,92
 389 205 389 205 424 180 c 0,93,94
 456 158 456 158 491 158 c 0,95,96
 527 158 527 158 553 182.5 c 128,-1,97
 579 207 579 207 579 242 c 0,98,99
 579 251 579 251 577 260 c 1,100,101
 579 260 579 260 581 260 c 0,102,103
 608 260 608 260 627 224 c 0,104,105
 645 190 645 190 645 160 c 0,106,107
 645 85 645 85 573 30 c 1,108,109
 551 16 551 16 528 2 c 1,110,111
 501 -17 501 -17 491 -41 c 1,112,113
 483 -21 483 -21 440 1 c 0,114,115
 393 25 393 25 380 45 c 0,116,117
 373 56 373 56 367 69 c 1,118,119
 355 47 355 47 338 32 c 0,120,121
 335 29 335 29 285 2 c 0,122,123
 249 -17 249 -17 241 -41 c 1,124,125
 235 -17 235 -17 199 4 c 0,126,127
 148 34 148 34 145 37 c 0,128,129
 75 99 75 99 75 203 c 0,130,131
 75 239 75 239 85 275 c 1,132,-1
 0 275 l 1,133,-1
 0 335 l 1,134,-1
 108 335 l 1,135,136
 121 397 121 397 208 454 c 0,137,138
 273 496 273 496 379 496 c 0,139,140
 439 496 439 496 493 477 c 0,141,142
 581 446 581 446 607 374 c 1,24,-1
369 607 m 0,143,144
 369 588 369 588 348 558 c 0,145,146
 317 515 317 515 313 507 c 1,147,148
 306 515 306 515 276 552 c 0,149,150
 248 585 248 585 248 604 c 0,151,152
 248 625 248 625 268 641.5 c 128,-1,153
 288 658 288 658 310 658 c 0,154,155
 369 658 369 658 369 607 c 0,143,144
EndSplineSet
EndChar

StartChar: U0C0B
Encoding: 3083 3083 40
Width: 1264
GlyphClass: 2
Flags: W
LayerCount: 2
Fore
SplineSet
387 486 m 1,0,-1
 448 486 l 2,1,2
 519 486 519 486 559 394 c 0,3,4
 589 324 589 324 589 241 c 0,5,6
 589 129 589 129 553 72 c 0,7,8
 532 39 532 39 481 10 c 0,9,10
 436 -15 436 -15 427 -41 c 1,11,12
 417 -11 417 -11 373 14 c 0,13,14
 322 44 322 44 309 61 c 1,15,16
 295 42 295 42 241 11 c 0,17,18
 194 -15 194 -15 188 -41 c 1,19,20
 176 -15 176 -15 125 7 c 0,21,22
 62 34 62 34 42 53 c 0,23,24
 0 91 0 91 0 164 c 0,25,26
 0 215 0 215 31 256 c 128,-1,27
 62 297 62 297 112 308 c 1,28,29
 156 316 156 316 200 325 c 1,30,31
 254 342 254 342 254 384 c 0,32,33
 254 439 254 439 200 439 c 0,34,35
 174 439 174 439 155.5 426.5 c 128,-1,36
 137 414 137 414 137 391 c 0,37,38
 137 367 137 367 157 367 c 0,39,40
 168 367 168 367 169 375 c 1,41,42
 187 375 187 375 187 375 c 1,43,-1
 187 349 l 1,44,-1
 20 349 l 1,45,-1
 20 363 l 2,46,47
 20 366 20 366 20 370 c 0,48,49
 20 421 20 421 64 458 c 0,50,51
 108 494 108 494 167 494 c 0,52,53
 305 494 305 494 305 375 c 0,54,55
 305 327 305 327 256 305 c 1,56,57
 210 291 210 291 165 277 c 1,58,59
 116 260 116 260 116 224 c 0,60,61
 116 197 116 197 149 182 c 0,62,63
 175 170 175 170 206 170 c 0,64,65
 287 170 287 170 305 271 c 1,66,-1
 330 271 l 1,67,68
 330 172 330 172 429 172 c 0,69,70
 477 172 477 172 504 208 c 1,71,72
 527 241 527 241 527 290 c 0,73,74
 527 336 527 336 509 371 c 0,75,76
 488 412 488 412 452 412 c 0,77,78
 419 412 419 412 419 390 c 1,79,-1
 386 390 l 1,80,-1
 387 486 l 1,0,-1
993 415 m 2,81,82
 974 415 974 415 974 398 c 1,83,-1
 947 398 l 1,84,-1
 947 496 l 1,85,86
 963 498 963 498 979 498 c 0,87,88
 1073 498 1073 498 1131 425 c 0,89,90
 1184 357 1184 357 1184 259 c 0,91,92
 1184 202 1184 202 1159 142 c 0,93,94
 1133 79 1133 79 1090 41 c 0,95,96
 1086 38 1086 38 1032 6 c 0,97,98
 994 -17 994 -17 986 -42 c 1,99,100
 977 -18 977 -18 934 4 c 0,101,102
 881 31 881 31 872 40 c 0,103,104
 847 66 847 66 847 101 c 1,105,106
 820 59 820 59 789 35 c 1,107,108
 763 19 763 19 737 4 c 1,109,110
 705 -16 705 -16 695 -42 c 1,111,112
 686 -17 686 -17 644 4 c 0,113,114
 594 30 594 30 588 36 c 0,115,116
 554 69 554 69 554 136 c 0,117,118
 554 196 554 196 585 294 c 1,119,120
 597 264 597 264 614 233 c 1,121,122
 648 186 648 186 708 186 c 0,123,124
 710 186 710 186 713 186 c 0,125,126
 770 186 770 186 803 210 c 0,127,128
 842 238 842 238 842 292 c 256,129,130
 842 346 842 346 805.5 381 c 128,-1,131
 769 416 769 416 716 416 c 2,132,-1
 700 416 l 2,133,134
 681 416 681 416 681 398 c 1,135,-1
 654 398 l 1,136,137
 654 419 654 419 654 446 c 0,138,139
 655 474 655 474 655 496 c 1,140,141
 672 498 672 498 687 498 c 0,142,143
 778 498 778 498 838 426 c 0,144,145
 893 359 893 359 893 267 c 1,146,147
 937 186 937 186 1004 186 c 0,148,149
 1060 186 1060 186 1095 210 c 0,150,151
 1134 238 1134 238 1134 292 c 256,152,153
 1134 346 1134 346 1097.5 380.5 c 128,-1,154
 1061 415 1061 415 1008 415 c 2,155,-1
 993 415 l 2,81,82
EndSplineSet
EndChar

StartChar: U0C0C
Encoding: 3084 3084 41
Width: 859
GlyphClass: 2
Flags: W
LayerCount: 2
Fore
SplineSet
2 424 m 1,0,1
 0 493 0 493 50 539 c 128,-1,2
 100 585 100 585 179 585 c 0,3,4
 219 585 219 585 253 566 c 128,-1,5
 287 547 287 547 311 499 c 1,6,7
 319 547 319 547 359 566 c 128,-1,8
 399 585 399 585 440 585 c 0,9,10
 500 585 500 585 547 540 c 128,-1,11
 594 495 594 495 591 424 c 0,12,13
 589 361 589 361 555.5 317 c 128,-1,14
 522 273 522 273 466 239 c 1,15,16
 424 212 424 212 389.5 177.5 c 128,-1,17
 355 143 355 143 355 108 c 0,18,19
 355 63 355 63 392.5 31.5 c 128,-1,20
 430 0 430 0 482 0 c 0,21,22
 567 0 567 0 619.5 53 c 128,-1,23
 672 106 672 106 709 235 c 0,24,25
 730 310 730 310 721 392 c 1,26,27
 706 456 706 456 636 463 c 1,28,-1
 656 454 l 1,29,30
 670 444 670 444 664 425 c 1,31,32
 644 393 644 393 613 429 c 1,33,-1
 613 533 l 1,34,35
 714 533 714 533 750.5 434.5 c 128,-1,36
 787 336 787 336 770 171 c 1,37,38
 753 60 753 60 712 -5 c 1,39,40
 660 -85 660 -85 569 -108 c 1,41,42
 506 -118 506 -118 485 -158 c 1,43,44
 464 -121 464 -121 347.5 -87 c 128,-1,45
 231 -53 231 -53 222 60 c 1,46,47
 222 166 222 166 300 214 c 1,48,49
 410 279 410 279 424 288 c 0,50,51
 452 305 452 305 494 349 c 0,52,53
 519 374 519 374 519 425 c 0,54,55
 519 458 519 458 496 480.5 c 128,-1,56
 473 503 473 503 440 503 c 0,57,58
 395 503 395 503 364 465 c 128,-1,59
 333 427 333 427 333 392 c 1,60,-1
 286 392 l 1,61,62
 286 427 286 427 254.5 465 c 128,-1,63
 223 503 223 503 179 503 c 0,64,65
 146 503 146 503 123 480.5 c 128,-1,66
 100 458 100 458 100 425 c 0,67,68
 100 409 100 409 123 392 c 1,69,70
 160 380 160 380 160 415 c 1,71,-1
 199 415 l 1,72,-1
 199 347 l 1,73,-1
 17 344 l 1,74,75
 6 373 6 373 2 424 c 1,0,1
EndSplineSet
EndChar

StartChar: U0C0E
Encoding: 3086 3086 42
Width: 625
GlyphClass: 2
Flags: W
LayerCount: 2
Fore
SplineSet
240 216 m 0,0,1
 240 245 240 245 218.5 266.5 c 128,-1,2
 197 288 197 288 168 288 c 0,3,4
 138 288 138 288 117 267 c 128,-1,5
 96 246 96 246 96 216 c 256,6,7
 96 186 96 186 117 165.5 c 128,-1,8
 138 145 138 145 168 145 c 256,9,10
 198 145 198 145 219 165.5 c 128,-1,11
 240 186 240 186 240 216 c 0,0,1
236 518 m 1,12,13
 265 524 265 524 314 524 c 0,14,15
 403 524 403 524 476 432 c 0,16,17
 545 345 545 345 545 252 c 0,18,19
 545 98 545 98 455 26 c 1,20,21
 432 13 432 13 409 0 c 0,22,23
 381 -17 381 -17 373 -41 c 1,24,25
 369 -17 369 -17 344 0 c 0,26,27
 323 14 323 14 302 27 c 1,28,29
 290 37 290 37 277 51 c 1,30,31
 260 36 260 36 242 25 c 1,32,33
 216 12 216 12 190 0 c 1,34,35
 158 -17 158 -17 152 -41 c 1,36,37
 145 -18 145 -18 110 2 c 0,38,39
 58 32 58 32 57 32 c 0,40,41
 0 79 0 79 0 159 c 0,42,43
 0 236 0 236 46 279.5 c 128,-1,44
 92 323 92 323 169 323 c 0,45,46
 227 323 227 323 272 280 c 0,47,48
 312 241 312 241 330 182 c 1,49,50
 343 173 343 173 360 173 c 0,51,52
 401 173 401 173 428 211 c 0,53,54
 452 245 452 245 452 288 c 0,55,56
 452 348 452 348 413 407 c 0,57,58
 367 475 367 475 303 475 c 0,59,60
 269 475 269 475 269 455 c 1,61,-1
 235 454 l 1,62,63
 235 478 235 478 235 481 c 0,64,65
 236 492 236 492 236 518 c 1,12,13
EndSplineSet
EndChar

StartChar: U0C0F
Encoding: 3087 3087 43
Width: 625
GlyphClass: 2
Flags: W
LayerCount: 2
Fore
SplineSet
461 516 m 1,0,1
 421 594 421 594 315 594 c 0,2,3
 246 594 246 594 177 547 c 1,4,5
 88 488 88 488 88 424 c 0,6,7
 88 389 88 389 118 357 c 1,8,9
 114 356 114 356 110 356 c 0,10,11
 87 356 87 356 63 394 c 0,12,13
 43 426 43 426 43 477 c 1,14,15
 49 521 49 521 79 562 c 128,-1,16
 109 603 109 603 109 625 c 0,17,18
 109 634 109 634 106 643 c 1,19,20
 124 632 124 632 150 632 c 0,21,22
 172 632 172 632 222.5 643.5 c 128,-1,23
 273 655 273 655 299 655 c 0,24,25
 357 655 357 655 407 626 c 0,26,27
 467 592 467 592 467 538 c 0,28,29
 467 525 467 525 461 516 c 1,0,1
240 216 m 0,30,31
 240 245 240 245 218.5 266.5 c 128,-1,32
 197 288 197 288 168 288 c 0,33,34
 138 288 138 288 117 267 c 128,-1,35
 96 246 96 246 96 216 c 256,36,37
 96 186 96 186 117 165.5 c 128,-1,38
 138 145 138 145 168 145 c 256,39,40
 198 145 198 145 219 165.5 c 128,-1,41
 240 186 240 186 240 216 c 0,30,31
236 518 m 1,42,43
 265 524 265 524 314 524 c 0,44,45
 403 524 403 524 476 432 c 0,46,47
 545 345 545 345 545 252 c 0,48,49
 545 98 545 98 455 26 c 1,50,51
 432 13 432 13 409 0 c 0,52,53
 381 -17 381 -17 373 -41 c 1,54,55
 369 -17 369 -17 344 0 c 0,56,57
 323 14 323 14 302 27 c 1,58,59
 290 37 290 37 277 51 c 1,60,61
 260 36 260 36 242 25 c 1,62,63
 216 12 216 12 190 0 c 1,64,65
 158 -17 158 -17 152 -41 c 1,66,67
 145 -18 145 -18 110 2 c 0,68,69
 58 32 58 32 57 32 c 0,70,71
 0 79 0 79 0 159 c 0,72,73
 0 236 0 236 46 279.5 c 128,-1,74
 92 323 92 323 169 323 c 0,75,76
 227 323 227 323 272 280 c 0,77,78
 312 241 312 241 330 182 c 1,79,80
 343 173 343 173 360 173 c 0,81,82
 401 173 401 173 428 211 c 0,83,84
 452 245 452 245 452 288 c 0,85,86
 452 348 452 348 413 407 c 0,87,88
 367 475 367 475 303 475 c 0,89,90
 269 475 269 475 269 455 c 1,91,-1
 235 454 l 1,92,93
 235 478 235 478 235 481 c 0,94,95
 236 492 236 492 236 518 c 1,42,43
EndSplineSet
EndChar

StartChar: U0C10
Encoding: 3088 3088 44
Width: 640
GlyphClass: 2
Flags: W
LayerCount: 2
Fore
SplineSet
239 218 m 0,0,1
 239 288 239 288 172 288 c 0,2,3
 144 288 144 288 122 267 c 128,-1,4
 100 246 100 246 100 218 c 0,5,6
 100 187 100 187 119 167 c 128,-1,7
 138 147 138 147 170 147 c 0,8,9
 198 147 198 147 218.5 168.5 c 128,-1,10
 239 190 239 190 239 218 c 0,0,1
190 441 m 0,11,12
 136 441 136 441 136 393 c 0,13,14
 136 369 136 369 156 369 c 0,15,16
 167 369 167 369 168 377 c 1,17,18
 184 377 184 377 184 377 c 1,19,-1
 184 351 l 1,20,-1
 23 352 l 1,21,22
 21 361 21 361 21 370 c 0,23,24
 21 421 21 421 55.5 456.5 c 128,-1,25
 90 492 90 492 141 492 c 0,26,27
 187 492 187 492 209.5 480.5 c 128,-1,28
 232 469 232 469 251 438 c 1,29,30
 301 490 301 490 359 490 c 0,31,32
 455 490 455 490 510 408 c 1,33,34
 560 336 560 336 559 236 c 0,35,36
 558 105 558 105 478 35 c 0,37,38
 477 34 477 34 427 3 c 0,39,40
 395 -18 395 -18 386 -41 c 1,41,42
 379 -18 379 -18 347 3 c 0,43,44
 306 29 306 29 302 34 c 0,45,46
 293 45 293 45 286 59 c 1,47,48
 276 43 276 43 256 29 c 1,49,50
 229 16 229 16 202 2 c 0,51,52
 168 -17 168 -17 161 -41 c 1,53,54
 154 -17 154 -17 120 2 c 0,55,56
 93 16 93 16 66 30 c 1,57,58
 0 77 0 77 0 156 c 0,59,60
 0 233 0 233 46 278 c 128,-1,61
 92 323 92 323 170 323 c 0,62,63
 288 323 288 323 327 197 c 0,64,65
 340 155 340 155 377 155 c 0,66,67
 421 155 421 155 452 204 c 0,68,69
 478 246 478 246 478 293 c 0,70,71
 478 356 478 356 446 398 c 1,72,73
 410 443 410 443 349 443 c 256,74,75
 288 443 288 443 288 386 c 0,76,77
 288 379 288 379 289 371 c 1,78,-1
 231 371 l 1,79,80
 233 379 233 379 233 387 c 0,81,82
 233 441 233 441 190 441 c 0,11,12
EndSplineSet
EndChar

StartChar: U0C12
Encoding: 3090 3090 45
Width: 632
GlyphClass: 2
Flags: W
LayerCount: 2
Fore
SplineSet
179 447 m 0,0,1
 130 447 130 447 130 394 c 0,2,3
 130 370 130 370 150 370 c 0,4,5
 161 370 161 370 162 378 c 1,6,7
 178 378 178 378 178 378 c 1,8,-1
 178 353 l 1,9,-1
 29 353 l 1,10,11
 29 419 29 419 76 458 c 0,12,13
 117 491 117 491 174 491 c 0,14,15
 227 491 227 491 260 465 c 1,16,17
 295 436 295 436 295 384 c 0,18,19
 295 354 295 354 284 338 c 0,20,21
 267 313 267 313 214 294 c 128,-1,22
 161 275 161 275 147 266 c 0,23,24
 123 251 123 251 123 225 c 0,25,26
 123 160 123 160 217 160 c 0,27,28
 245 160 245 160 266 181.5 c 128,-1,29
 287 203 287 203 287 231 c 0,30,31
 287 243 287 243 282 253 c 1,32,-1
 320 253 l 1,33,34
 315 219 315 219 337.5 189.5 c 128,-1,35
 360 160 360 160 395 160 c 0,36,37
 439 160 439 160 459 176.5 c 128,-1,38
 479 193 479 193 479 233 c 0,39,40
 479 262 479 262 434 279 c 1,41,42
 447 285 447 285 461 285 c 0,43,44
 499 285 499 285 527 246 c 0,45,46
 552 210 552 210 552 171 c 0,47,48
 552 83 552 83 494 33 c 0,49,50
 493 33 493 33 441 3 c 0,51,52
 405 -18 405 -18 398 -41 c 1,53,54
 392 -18 392 -18 366 2 c 1,55,56
 344 16 344 16 323 31 c 128,-1,57
 302 46 302 46 293 63 c 1,58,59
 280 42 280 42 261 28 c 1,60,61
 236 14 236 14 211 1 c 1,62,63
 178 -18 178 -18 171 -41 c 1,64,65
 164 -18 164 -18 124 1 c 0,66,67
 95 15 95 15 65 29 c 1,68,69
 0 73 0 73 0 170 c 0,70,71
 0 274 0 274 98 304 c 0,72,73
 192 333 192 333 201 337 c 0,74,75
 236 353 236 353 236 384 c 0,76,77
 236 447 236 447 179 447 c 0,0,1
EndSplineSet
EndChar

StartChar: U0C13
Encoding: 3091 3091 46
Width: 632
GlyphClass: 2
Flags: W
LayerCount: 2
Fore
SplineSet
179 447 m 0,0,1
 132 447 132 447 132 394 c 0,2,3
 132 370 132 370 151 370 c 0,4,5
 163 370 163 370 164 378 c 1,6,7
 180 378 180 378 180 378 c 1,8,-1
 179 353 l 1,9,-1
 30 353 l 1,10,11
 30 419 30 419 77 458 c 0,12,13
 117 492 117 492 174 492 c 1,14,15
 154 521 154 521 154 552 c 0,16,17
 154 588 154 588 180.5 612.5 c 128,-1,18
 207 637 207 637 253 637 c 0,19,20
 301 637 301 637 333 606 c 128,-1,21
 365 575 365 575 365 528 c 0,22,23
 365 510 365 510 350 482 c 128,-1,24
 335 454 335 454 321 449 c 1,25,26
 333 466 333 466 333 486 c 0,27,28
 333 512 333 512 314 530.5 c 128,-1,29
 295 549 295 549 263 549 c 0,30,31
 236 549 236 549 219.5 532 c 128,-1,32
 203 515 203 515 207 488 c 1,33,34
 295 471 295 471 295 384 c 0,35,36
 295 354 295 354 284 338 c 0,37,38
 267 313 267 313 214 294 c 128,-1,39
 161 275 161 275 147 266 c 0,40,41
 123 251 123 251 123 225 c 0,42,43
 123 160 123 160 217 160 c 0,44,45
 245 160 245 160 266 181.5 c 128,-1,46
 287 203 287 203 287 231 c 0,47,48
 287 243 287 243 282 253 c 1,49,-1
 320 253 l 1,50,51
 315 219 315 219 337.5 189.5 c 128,-1,52
 360 160 360 160 395 160 c 0,53,54
 439 160 439 160 459 176.5 c 128,-1,55
 479 193 479 193 479 233 c 0,56,57
 479 262 479 262 434 279 c 1,58,59
 447 285 447 285 461 285 c 0,60,61
 499 285 499 285 527 246 c 0,62,63
 552 210 552 210 552 171 c 0,64,65
 552 83 552 83 494 33 c 0,66,67
 493 33 493 33 441 3 c 0,68,69
 405 -18 405 -18 398 -41 c 1,70,71
 392 -18 392 -18 366 2 c 1,72,73
 344 16 344 16 323 31 c 128,-1,74
 302 46 302 46 293 63 c 1,75,76
 280 42 280 42 261 28 c 1,77,78
 236 14 236 14 211 1 c 1,79,80
 178 -18 178 -18 171 -41 c 1,81,82
 164 -18 164 -18 124 1 c 0,83,84
 95 15 95 15 65 29 c 1,85,86
 0 73 0 73 0 170 c 0,87,88
 0 274 0 274 98 304 c 0,89,90
 192 333 192 333 201 337 c 0,91,92
 236 353 236 353 236 384 c 0,93,94
 236 447 236 447 179 447 c 0,0,1
EndSplineSet
EndChar

StartChar: U0C14
Encoding: 3092 3092 47
Width: 759
GlyphClass: 2
Flags: W
LayerCount: 2
Fore
SplineSet
179 447 m 0,0,1
 132 447 132 447 132 393 c 0,2,3
 132 369 132 369 152 369 c 0,4,5
 163 369 163 369 164 377 c 1,6,7
 180 377 180 377 180 377 c 1,8,-1
 179 353 l 1,9,-1
 29 353 l 1,10,11
 29 417 29 417 73 457 c 1,12,-1
 73 496 l 1,13,-1
 199 496 l 2,14,15
 240 496 240 496 240 528 c 0,16,17
 240 567 240 567 198 567 c 2,18,-1
 0 567 l 1,19,-1
 0 644 l 1,20,-1
 509 644 l 1,21,22
 595 638 595 638 643 580 c 1,23,24
 679 522 679 522 679 469 c 0,25,26
 679 407 679 407 637.5 360.5 c 128,-1,27
 596 314 596 314 535 314 c 0,28,29
 405 314 405 314 405 419 c 0,30,31
 405 466 405 466 442 497.5 c 128,-1,32
 479 529 479 529 527 529 c 0,33,34
 577 529 577 529 633 477 c 1,35,36
 633 509 633 509 612.5 533.5 c 128,-1,37
 592 558 592 558 561 564 c 0,38,39
 546 567 546 567 523 567 c 2,40,41
 523 567 523 567 285 567 c 1,42,43
 295 564 295 564 295 535 c 0,44,45
 295 476 295 476 249 472 c 1,46,47
 295 447 295 447 295 384 c 0,48,49
 295 354 295 354 284 338 c 0,50,51
 267 313 267 313 214 294 c 128,-1,52
 161 275 161 275 147 266 c 0,53,54
 123 251 123 251 123 225 c 0,55,56
 123 160 123 160 217 160 c 0,57,58
 245 160 245 160 266 181.5 c 128,-1,59
 287 203 287 203 287 231 c 0,60,61
 287 243 287 243 282 253 c 1,62,-1
 320 253 l 1,63,64
 315 219 315 219 337.5 189.5 c 128,-1,65
 360 160 360 160 395 160 c 0,66,67
 439 160 439 160 459 176.5 c 128,-1,68
 479 193 479 193 479 233 c 0,69,70
 479 262 479 262 434 279 c 1,71,72
 447 285 447 285 461 285 c 0,73,74
 499 285 499 285 527 246 c 0,75,76
 552 210 552 210 552 171 c 0,77,78
 552 83 552 83 494 33 c 0,79,80
 493 33 493 33 441 3 c 0,81,82
 405 -18 405 -18 398 -41 c 1,83,84
 392 -18 392 -18 366 2 c 1,85,86
 344 16 344 16 323 31 c 128,-1,87
 302 46 302 46 293 63 c 1,88,89
 280 42 280 42 261 28 c 1,90,91
 236 14 236 14 211 1 c 1,92,93
 178 -18 178 -18 171 -41 c 1,94,95
 164 -18 164 -18 124 1 c 0,96,97
 95 15 95 15 65 29 c 1,98,99
 0 73 0 73 0 170 c 0,100,101
 0 274 0 274 98 304 c 0,102,103
 192 333 192 333 201 337 c 0,104,105
 236 353 236 353 236 384 c 0,106,107
 236 447 236 447 179 447 c 0,0,1
585 418 m 0,108,109
 585 465 585 465 536 465 c 0,110,111
 480 465 480 465 480 422 c 0,112,113
 480 403 480 403 496 389.5 c 128,-1,114
 512 376 512 376 531 376 c 256,115,116
 550 376 550 376 567.5 388 c 128,-1,117
 585 400 585 400 585 418 c 0,108,109
EndSplineSet
EndChar

StartChar: U0C15
Encoding: 3093 3093 48
Width: 540
GlyphClass: 2
Flags: W
AnchorPoint: "Anchor-1" 249 0 basechar 0
LayerCount: 2
Fore
SplineSet
164 207 m 1,0,1
 138 204 138 204 138 183 c 0,2,3
 138 145 138 145 250 145 c 0,4,5
 375 145 375 145 375 202 c 0,6,7
 375 248 375 248 329 264 c 0,8,9
 302 273 302 273 238 274 c 0,10,11
 160 275 160 275 103 293 c 0,12,13
 17 320 17 320 17 375 c 0,14,15
 17 449 17 449 89 477 c 0,16,17
 141 497 141 497 246 497 c 0,18,19
 331 497 331 497 394 464 c 1,20,21
 468 423 468 423 468 350 c 1,22,-1
 298 350 l 1,23,-1
 298 373 l 1,24,25
 326 373 326 373 326 394 c 0,26,27
 326 420 326 420 293 432 c 0,28,29
 268 442 268 442 236 442 c 0,30,31
 105 442 105 442 105 377 c 0,32,33
 105 320 105 320 217 320 c 0,34,35
 321 320 321 320 392 296 c 1,36,37
 493 260 493 260 493 180 c 0,38,39
 493 115 493 115 443 77 c 0,40,41
 424 62 424 62 340 23 c 0,42,43
 273 -8 273 -8 248 -44 c 1,44,45
 230 -12 230 -12 166 14 c 0,46,47
 77 51 77 51 63 59 c 0,48,49
 14 91 14 91 14 142 c 0,50,51
 14 184 14 184 49 227 c 1,52,-1
 164 227 l 1,53,-1
 164 207 l 1,0,1
501 703 m 1,54,55
 471 630 471 630 442 570 c 0,56,57
 429 545 429 545 412 548 c 0,58,59
 396 551 396 551 396 567 c 0,60,61
 396 581 396 581 416 587 c 1,62,63
 401 604 401 604 381 604 c 0,64,65
 337 604 337 604 293 559 c 0,66,67
 253 517 253 517 212 475 c 1,68,69
 177 447 177 447 126 450 c 0,70,71
 60 455 60 455 16 498 c 1,72,73
 29 529 29 529 61 595 c 0,74,75
 69 612 69 612 81 612 c 0,76,77
 95 612 95 612 98 598 c 256,78,79
 101 584 101 584 82 580 c 1,80,81
 97 542 97 542 144 535 c 0,82,83
 178 530 178 530 200.5 547.5 c 128,-1,84
 223 565 223 565 260 616 c 128,-1,85
 297 667 297 667 323 688 c 0,86,87
 366 721 366 721 424 721 c 0,88,89
 450 721 450 721 501 703 c 1,54,55
EndSplineSet
MultipleSubs2: "Multiple Substitution lookup 324 subtable" U0C15_U0C46.abvs U0C56 U0C15_U0C46.abvs U0C56
EndChar

StartChar: U0C16
Encoding: 3094 3094 49
Width: 743
GlyphClass: 2
Flags: W
AnchorPoint: "Anchor-1" 335 -137 basechar 0
LayerCount: 2
Fore
SplineSet
405 -64 m 0,0,1
 405 -86 405 -86 381 -103 c 0,2,3
 362 -116 362 -116 357 -121 c 0,4,5
 344 -133 344 -133 340 -149 c 1,6,7
 334 -134 334 -134 314 -121 c 1,8,9
 299 -113 299 -113 284 -104 c 1,10,11
 264 -89 264 -89 264 -66 c 256,12,13
 264 -43 264 -43 288 -16 c 0,14,15
 323 24 323 24 336 46 c 1,16,17
 349 20 349 20 381 -14 c 0,18,19
 405 -39 405 -39 405 -64 c 0,0,1
210 392 m 0,20,21
 210 412 210 412 195.5 426 c 128,-1,22
 181 440 181 440 162 440 c 256,23,24
 143 440 143 440 129 425.5 c 128,-1,25
 115 411 115 411 115 392 c 0,26,27
 115 374 115 374 129.5 361 c 128,-1,28
 144 348 144 348 162 348 c 0,29,30
 210 348 210 348 210 392 c 0,20,21
300 162 m 1,31,32
 290 187 290 187 262 203.5 c 128,-1,33
 234 220 234 220 207 220 c 0,34,35
 136 220 136 220 136 167 c 0,36,37
 136 143 136 143 156 129 c 128,-1,38
 176 115 176 115 201 115 c 0,39,40
 259 115 259 115 300 162 c 1,31,32
428 488 m 1,41,42
 448 493 448 493 468 493 c 0,43,44
 558 493 558 493 613 412 c 1,45,46
 663 341 663 341 663 247 c 0,47,48
 663 178 663 178 633 117 c 0,49,50
 600 50 600 50 542 21 c 0,51,52
 521 11 521 11 499 0 c 1,53,54
 472 -16 472 -16 465 -41 c 1,55,56
 457 -15 457 -15 435 0 c 0,57,58
 426 7 426 7 394 21 c 0,59,60
 346 42 346 42 336 72 c 1,61,62
 311 41 311 41 274 23 c 1,63,64
 242 12 242 12 211 1 c 1,65,66
 169 -16 169 -16 161 -41 c 1,67,68
 152 -18 152 -18 111 3 c 0,69,70
 52 32 52 32 49 35 c 0,71,72
 0 72 0 72 0 133 c 0,73,74
 0 251 0 251 170 251 c 0,75,76
 213 251 213 251 258 237 c 0,77,78
 312 219 312 219 334 191 c 1,79,80
 357 219 357 219 357 263 c 0,81,82
 357 318 357 318 322.5 369 c 128,-1,83
 288 420 288 420 236 433 c 1,84,85
 254 409 254 409 254 384 c 0,86,87
 254 344 254 344 213 312 c 128,-1,88
 172 280 172 280 130 280 c 0,89,90
 2 280 2 280 2 376 c 0,91,92
 2 432 2 432 58 465 c 0,93,94
 106 494 106 494 165 494 c 0,95,96
 407 494 407 494 407 245 c 0,97,98
 407 219 407 219 404 191 c 1,99,100
 444 154 444 154 488 154 c 0,101,102
 537 154 537 154 572 194.5 c 128,-1,103
 607 235 607 235 607 285 c 0,104,105
 607 331 607 331 568.5 373 c 128,-1,106
 530 415 530 415 493 415 c 0,107,108
 461 415 461 415 461 394 c 1,109,-1
 427 394 l 1,110,111
 427 414 427 414 428 440 c 0,112,113
 428 466 428 466 428 488 c 1,41,42
EndSplineSet
MultipleSubs2: "Multiple Substitution lookup 324 subtable" U0C16_U0C46.abvs U0C56 U0C16_U0C46.abvs U0C56
EndChar

StartChar: U0C17
Encoding: 3095 3095 50
Width: 643
GlyphClass: 2
Flags: W
AnchorPoint: "Anchor-1" 307 0 basechar 0
LayerCount: 2
Fore
SplineSet
562 702 m 1,0,1
 560 697 560 697 504 569 c 0,2,3
 493 544 493 544 476 547 c 0,4,5
 460 550 460 550 460 566 c 0,6,7
 460 580 460 580 479 586 c 1,8,9
 464 603 464 603 445 603 c 0,10,11
 404 603 404 603 361 555 c 0,12,13
 302 489 302 489 279 474 c 0,14,15
 234 446 234 446 183 449 c 0,16,17
 116 454 116 454 61 508 c 1,18,19
 74 539 74 539 105 605 c 0,20,21
 113 622 113 622 125 622 c 0,22,23
 138 622 138 622 142 608 c 0,24,25
 145 594 145 594 126 590 c 1,26,27
 130 545 130 545 201 534 c 0,28,29
 244 527 244 527 269 547 c 0,30,31
 290 564 290 564 326.5 615 c 128,-1,32
 363 666 363 666 388 687 c 1,33,34
 430 720 430 720 487 720 c 0,35,36
 512 720 512 720 562 702 c 1,0,1
17 99 m 0,37,38
 0 144 0 144 0 216 c 0,39,40
 0 304 0 304 71 393 c 0,41,42
 151 493 151 493 260 493 c 0,43,44
 395 493 395 493 477 420 c 1,45,46
 563 341 563 341 563 198 c 0,47,48
 563 136 563 136 509 0 c 1,49,-1
 367 0 l 1,50,51
 386 47 386 47 408 120 c 0,52,53
 433 204 433 204 439 252 c 0,54,55
 441 264 441 264 441 278 c 0,56,57
 441 343 441 343 413 390 c 0,58,59
 379 449 379 449 315 449 c 0,60,61
 234 449 234 449 184 385 c 1,62,63
 137 328 137 328 137 249 c 0,64,65
 137 193 137 193 158 132 c 1,66,67
 178 77 178 77 205 40 c 0,68,69
 218 22 218 22 232 11 c 0,70,71
 238 6 238 6 251 8 c 1,72,73
 250 11 250 11 250 14 c 0,74,75
 250 28 250 28 263 28 c 0,76,77
 277 28 277 28 277 14 c 256,78,79
 277 0 277 0 263 0 c 2,80,-1
 73 0 l 1,81,82
 29 66 29 66 17 99 c 0,37,38
EndSplineSet
MultipleSubs2: "Multiple Substitution lookup 324 subtable" U0C17_U0C46.abvs U0C56 U0C17_U0C46.abvs U0C56
EndChar

StartChar: U0C18
Encoding: 3096 3096 51
Width: 996
GlyphClass: 2
Flags: W
LayerCount: 2
Fore
SplineSet
391 494 m 1,0,-1
 452 494 l 2,1,2
 523 494 523 494 562 402 c 0,3,4
 591 332 591 332 591 249 c 0,5,6
 591 157 591 157 541 84 c 0,7,8
 524 58 524 58 468.5 18 c 128,-1,9
 413 -22 413 -22 404 -40 c 1,10,11
 396 -19 396 -19 355.5 5 c 128,-1,12
 315 29 315 29 299 69 c 1,13,14
 289 37 289 37 237.5 12.5 c 128,-1,15
 186 -12 186 -12 175 -40 c 1,16,17
 166 -18 166 -18 119 6 c 0,18,19
 62 35 62 35 40 59 c 0,20,21
 0 104 0 104 0 183 c 0,22,23
 0 258 0 258 51 306 c 128,-1,24
 102 354 102 354 177 354 c 0,25,26
 284 354 284 354 325 262 c 1,27,28
 331 246 331 246 343 216 c 1,29,30
 361 178 361 178 430 178 c 0,31,32
 477 178 477 178 504 217 c 0,33,34
 528 252 528 252 528 300 c 0,35,36
 528 346 528 346 510 379 c 0,37,38
 487 420 487 420 445 420 c 0,39,40
 414 420 414 420 414 408 c 0,41,42
 414 404 414 404 416 405 c 1,43,44
 409 405 409 405 405 405 c 0,45,46
 401 406 401 406 391 406 c 1,47,-1
 391 494 l 1,0,-1
247 239 m 0,48,49
 247 269 247 269 224 291 c 128,-1,50
 201 313 201 313 171 313 c 0,51,52
 142 313 142 313 121.5 291 c 128,-1,53
 101 269 101 269 101 239 c 0,54,55
 101 208 101 208 120.5 186.5 c 128,-1,56
 140 165 140 165 171 165 c 0,57,58
 247 165 247 165 247 239 c 0,48,49
480 703 m 1,59,60
 478 698 478 698 422 570 c 0,61,62
 410 545 410 545 393 548 c 0,63,64
 377 551 377 551 377 567 c 0,65,66
 377 581 377 581 397 587 c 1,67,68
 382 604 382 604 363 604 c 0,69,70
 320 604 320 604 276 559 c 1,71,72
 237 517 237 517 197 475 c 1,73,74
 163 447 163 447 113 450 c 0,75,76
 48 455 48 455 5 498 c 1,77,78
 18 529 18 529 49 595 c 0,79,80
 57 612 57 612 69 612 c 0,81,82
 82 612 82 612 85 598 c 256,83,84
 88 584 88 584 70 580 c 1,85,86
 84 542 84 542 130 535 c 0,87,88
 164 530 164 530 186 547.5 c 128,-1,89
 208 565 208 565 244 616 c 128,-1,90
 280 667 280 667 306 688 c 0,91,92
 348 721 348 721 405 721 c 0,93,94
 430 721 430 721 480 703 c 1,59,60
364 -68 m 0,95,96
 364 -95 364 -95 343 -116 c 1,97,98
 330 -125 330 -125 316 -134 c 0,99,100
 298 -146 298 -146 293 -166 c 1,101,102
 287 -146 287 -146 270 -134 c 0,103,104
 256 -125 256 -125 243 -117 c 1,105,106
 220 -96 220 -96 220 -69 c 0,107,108
 220 -54 220 -54 255 -15 c 0,109,110
 293 28 293 28 298 44 c 1,111,112
 305 29 305 29 338 -15 c 0,113,114
 364 -50 364 -50 364 -68 c 0,95,96
672 496 m 1,115,116
 814 496 814 496 866 418 c 0,117,118
 916 344 916 344 916 259 c 0,119,120
 916 199 916 199 888 138 c 0,121,122
 859 73 859 73 811 36 c 1,123,124
 784 20 784 20 757 5 c 1,125,126
 722 -16 722 -16 714 -42 c 1,127,128
 703 -17 703 -17 660 4 c 0,129,130
 609 30 609 30 602 37 c 0,131,132
 569 71 569 71 569 136 c 0,133,134
 569 197 569 197 590 264 c 1,135,136
 604 230 604 230 627 202 c 1,137,138
 654 166 654 166 732 166 c 0,139,140
 779 166 779 166 821.5 206.5 c 128,-1,141
 864 247 864 247 864 292 c 0,142,143
 864 348 864 348 825 382 c 128,-1,144
 786 416 786 416 718 416 c 0,145,146
 699 416 699 416 699 398 c 1,147,-1
 671 398 l 1,148,-1
 672 496 l 1,115,116
EndSplineSet
MultipleSubs2: "Multiple Substitution lookup 324 subtable" U0C18_U0C46.abvs U0C56 U0C18_U0C46.abvs U0C56
EndChar

StartChar: U0C19
Encoding: 3097 3097 52
Width: 632
GlyphClass: 2
Flags: W
AnchorPoint: "Anchor-1" 294 -22 basechar 0
LayerCount: 2
Fore
SplineSet
179 447 m 0,0,1
 130 447 130 447 130 394 c 0,2,3
 130 370 130 370 150 370 c 0,4,5
 161 370 161 370 162 378 c 1,6,7
 178 378 178 378 178 378 c 1,8,-1
 178 353 l 1,9,-1
 29 353 l 1,10,11
 29 419 29 419 76 458 c 0,12,13
 117 491 117 491 174 491 c 0,14,15
 227 491 227 491 260 465 c 1,16,17
 295 436 295 436 295 384 c 0,18,19
 295 354 295 354 284 338 c 0,20,21
 267 313 267 313 214 294 c 128,-1,22
 161 275 161 275 147 266 c 0,23,24
 123 251 123 251 123 225 c 0,25,26
 123 160 123 160 217 160 c 0,27,28
 245 160 245 160 266 181.5 c 128,-1,29
 287 203 287 203 287 231 c 0,30,31
 287 243 287 243 282 253 c 1,32,-1
 320 253 l 1,33,34
 315 219 315 219 337.5 189.5 c 128,-1,35
 360 160 360 160 395 160 c 0,36,37
 439 160 439 160 459 176.5 c 128,-1,38
 479 193 479 193 479 233 c 0,39,40
 479 262 479 262 434 279 c 1,41,42
 447 285 447 285 461 285 c 0,43,44
 499 285 499 285 527 246 c 0,45,46
 552 210 552 210 552 171 c 0,47,48
 552 83 552 83 494 33 c 0,49,50
 493 33 493 33 441 3 c 0,51,52
 405 -18 405 -18 398 -41 c 1,53,54
 392 -18 392 -18 366 2 c 1,55,56
 344 16 344 16 323 31 c 128,-1,57
 302 46 302 46 293 63 c 1,58,59
 280 42 280 42 261 28 c 1,60,61
 236 14 236 14 211 1 c 1,62,63
 178 -18 178 -18 171 -41 c 1,64,65
 164 -18 164 -18 124 1 c 0,66,67
 95 15 95 15 65 29 c 1,68,69
 0 73 0 73 0 170 c 0,70,71
 0 274 0 274 98 304 c 0,72,73
 192 333 192 333 201 337 c 0,74,75
 236 353 236 353 236 384 c 0,76,77
 236 447 236 447 179 447 c 0,0,1
281 363 m 1,78,79
 287 386 287 386 285 416 c 1,80,-1
 374 415 l 1,81,82
 350 426 350 426 350 447 c 0,83,84
 350 469 350 469 368 481 c 1,85,86
 393 500 393 500 399 509 c 1,87,88
 406 498 406 498 431 480 c 1,89,90
 448 466 448 466 448 446 c 256,91,92
 448 426 448 426 427 416 c 1,93,-1
 480 416 l 1,94,-1
 480 363 l 1,95,-1
 281 363 l 1,78,79
EndSplineSet
MultipleSubs2: "Multiple Substitution lookup 324 subtable" U0C19_U0C46.abvs U0C56 U0C19_U0C46.abvs U0C56
EndChar

StartChar: U0C1A
Encoding: 3098 3098 53
Width: 720
GlyphClass: 2
Flags: W
LayerCount: 2
Fore
SplineSet
0 397 m 1,0,-1
 270 397 l 1,1,-1
 270 315 l 1,2,3
 254 319 254 319 239 319 c 0,4,5
 208 319 208 319 182 303 c 0,6,7
 153 284 153 284 153 254 c 0,8,9
 153 223 153 223 183 199 c 128,-1,10
 213 175 213 175 245 175 c 0,11,12
 279 175 279 175 305 197.5 c 128,-1,13
 331 220 331 220 331 254 c 0,14,15
 331 261 331 261 330 268 c 1,16,-1
 366 268 l 1,17,18
 363 232 363 232 383 208.5 c 128,-1,19
 403 185 403 185 439 185 c 0,20,21
 481 185 481 185 510 223 c 0,22,23
 535 256 535 256 539 301 c 0,24,25
 546 383 546 383 485 422 c 0,26,27
 432 456 432 456 318 450 c 0,28,29
 288 448 288 448 286 468 c 1,30,31
 286 491 286 491 320 494 c 1,32,33
 313 494 313 494 393 494 c 0,34,35
 503 494 503 494 574 417 c 1,36,37
 640 343 640 343 640 246 c 0,38,39
 640 83 640 83 565 29 c 1,40,41
 539 17 539 17 512 5 c 1,42,43
 468 -17 468 -17 460 -41 c 1,44,45
 453 -17 453 -17 420 1 c 0,46,47
 374 26 374 26 373 27 c 0,48,49
 355 43 355 43 343 67 c 1,50,51
 334 52 334 52 311 26 c 1,52,53
 311 26 311 26 258 1 c 0,54,55
 220 -17 220 -17 213 -41 c 1,56,57
 207 -17 207 -17 170 1 c 0,58,59
 142 15 142 15 114 28 c 1,60,61
 73 56 73 56 49 100 c 128,-1,62
 25 144 25 144 25 188 c 0,63,64
 25 278 25 278 116 313 c 1,65,-1
 54 313 l 2,66,67
 38 313 38 313 38 313 c 1,68,69
 35 312 35 312 35 299 c 1,70,71
 28 299 28 299 19 299 c 128,-1,72
 10 299 10 299 0 299 c 1,73,-1
 0 397 l 1,0,-1
639 702 m 1,74,75
 638 697 638 697 581 569 c 0,76,77
 570 544 570 544 553 547 c 0,78,79
 537 550 537 550 537 566 c 0,80,81
 537 580 537 580 557 586 c 1,82,83
 542 603 542 603 522 603 c 0,84,85
 485 603 485 603 456 562 c 1,86,87
 431 524 431 524 405 486 c 1,88,89
 368 447 368 447 309 450 c 1,90,91
 245 455 245 455 201 498 c 1,92,93
 214 529 214 529 245 595 c 0,94,95
 253 612 253 612 265 612 c 0,96,97
 278 612 278 612 281 598 c 256,98,99
 284 584 284 584 266 580 c 1,100,101
 274 560 274 560 296 547 c 128,-1,102
 318 534 318 534 341 534 c 0,103,104
 383 534 383 534 412 582 c 1,105,106
 437 627 437 627 463 672 c 1,107,108
 501 720 501 720 564 720 c 0,109,110
 590 720 590 720 639 702 c 1,74,75
EndSplineSet
MultipleSubs2: "Multiple Substitution lookup 324 subtable" U0C1A_U0C46.abvs U0C56 U0C1A_U0C46.abvs U0C56
EndChar

StartChar: U0C1B
Encoding: 3099 3099 54
Width: 720
GlyphClass: 2
Flags: W
LayerCount: 2
Fore
SplineSet
0 397 m 1,0,-1
 270 397 l 1,1,-1
 270 315 l 1,2,3
 254 319 254 319 239 319 c 0,4,5
 208 319 208 319 182 303 c 0,6,7
 153 284 153 284 153 254 c 0,8,9
 153 223 153 223 183 199 c 128,-1,10
 213 175 213 175 245 175 c 0,11,12
 279 175 279 175 305 197.5 c 128,-1,13
 331 220 331 220 331 254 c 0,14,15
 331 261 331 261 330 268 c 1,16,-1
 366 268 l 1,17,18
 363 232 363 232 383 208.5 c 128,-1,19
 403 185 403 185 439 185 c 0,20,21
 481 185 481 185 510 223 c 0,22,23
 535 256 535 256 539 301 c 0,24,25
 546 383 546 383 485 422 c 0,26,27
 432 456 432 456 318 450 c 0,28,29
 288 448 288 448 286 468 c 1,30,31
 286 491 286 491 320 494 c 1,32,33
 313 494 313 494 393 494 c 0,34,35
 503 494 503 494 574 417 c 1,36,37
 640 343 640 343 640 246 c 0,38,39
 640 83 640 83 565 29 c 1,40,41
 539 17 539 17 512 5 c 1,42,43
 468 -17 468 -17 460 -41 c 1,44,45
 453 -17 453 -17 420 1 c 0,46,47
 374 26 374 26 373 27 c 0,48,49
 355 43 355 43 343 67 c 1,50,51
 334 52 334 52 311 26 c 1,52,53
 311 26 311 26 258 1 c 0,54,55
 220 -17 220 -17 213 -41 c 1,56,57
 207 -17 207 -17 170 1 c 0,58,59
 142 15 142 15 114 28 c 1,60,61
 73 56 73 56 49 100 c 128,-1,62
 25 144 25 144 25 188 c 0,63,64
 25 278 25 278 116 313 c 1,65,-1
 54 313 l 2,66,67
 38 313 38 313 38 313 c 1,68,69
 35 312 35 312 35 299 c 1,70,71
 28 299 28 299 19 299 c 128,-1,72
 10 299 10 299 0 299 c 1,73,-1
 0 397 l 1,0,-1
408 -68 m 0,74,75
 408 -95 408 -95 387 -116 c 1,76,77
 374 -125 374 -125 360 -134 c 0,78,79
 342 -146 342 -146 337 -166 c 1,80,81
 331 -146 331 -146 314 -134 c 0,82,83
 300 -125 300 -125 287 -117 c 1,84,85
 264 -96 264 -96 264 -69 c 0,86,87
 264 -54 264 -54 299 -15 c 0,88,89
 337 28 337 28 342 44 c 1,90,91
 349 29 349 29 382 -15 c 0,92,93
 408 -50 408 -50 408 -68 c 0,74,75
639 702 m 1,94,95
 638 697 638 697 581 569 c 0,96,97
 570 544 570 544 553 547 c 0,98,99
 537 550 537 550 537 566 c 0,100,101
 537 580 537 580 557 586 c 1,102,103
 542 603 542 603 522 603 c 0,104,105
 485 603 485 603 456 562 c 1,106,107
 431 524 431 524 405 486 c 1,108,109
 368 447 368 447 309 450 c 1,110,111
 245 455 245 455 201 498 c 1,112,113
 214 529 214 529 245 595 c 0,114,115
 253 612 253 612 265 612 c 0,116,117
 278 612 278 612 281 598 c 256,118,119
 284 584 284 584 266 580 c 1,120,121
 274 560 274 560 296 547 c 128,-1,122
 318 534 318 534 341 534 c 0,123,124
 383 534 383 534 412 582 c 1,125,126
 437 627 437 627 463 672 c 1,127,128
 501 720 501 720 564 720 c 0,129,130
 590 720 590 720 639 702 c 1,94,95
EndSplineSet
MultipleSubs2: "Multiple Substitution lookup 324 subtable" U0C1B_U0C46.abvs U0C56 U0C1B_U0C46.abvs U0C56
EndChar

StartChar: U0C1C
Encoding: 3100 3100 55
Width: 634
GlyphClass: 2
Flags: W
AnchorPoint: "Anchor-1" 280 -27 basechar 0
LayerCount: 2
Fore
SplineSet
13 353 m 1,0,1
 11 406 11 406 41 445 c 0,2,3
 79 496 79 496 149 496 c 0,4,5
 247 496 247 496 281 392 c 0,6,7
 305 320 305 320 366 320 c 0,8,9
 447 320 447 320 443 364 c 0,10,11
 441 386 441 386 423.5 401.5 c 128,-1,12
 406 417 406 417 384 417 c 0,13,14
 345 417 345 417 327 386 c 1,15,-1
 328 490 l 1,16,17
 362 503 362 503 396 503 c 0,18,19
 449 503 449 503 486 470.5 c 128,-1,20
 523 438 523 438 523 385 c 0,21,22
 523 334 523 334 475 303 c 0,23,24
 434 276 434 276 379 275 c 0,25,26
 323 274 323 274 268 326 c 1,27,28
 248 284 248 284 180 263 c 0,29,30
 123 246 123 246 123 207 c 0,31,32
 123 154 123 154 194 154 c 0,33,34
 270 154 270 154 270 214 c 0,35,36
 270 221 270 221 269 229 c 1,37,-1
 296 229 l 1,38,39
 302 154 302 154 393 154 c 0,40,41
 488 154 488 154 488 220 c 0,42,43
 488 243 488 243 461 267 c 1,44,45
 469 268 469 268 476 268 c 0,46,47
 518 268 518 268 538 223 c 0,48,49
 554 188 554 188 551 142 c 0,50,51
 547 70 547 70 490 28 c 1,52,53
 467 15 467 15 443 1 c 0,54,55
 411 -18 411 -18 405 -41 c 1,56,57
 398 -17 398 -17 371 0 c 1,58,59
 349 12 349 12 327 24 c 1,60,61
 303 41 303 41 280 68 c 1,62,63
 256 36 256 36 230 20 c 1,64,65
 206 10 206 10 182 0 c 1,66,67
 150 -17 150 -17 145 -41 c 1,68,69
 138 -17 138 -17 107 2 c 1,70,71
 83 15 83 15 59 28 c 1,72,73
 0 72 0 72 0 155 c 0,74,75
 0 195 0 195 21.5 230.5 c 128,-1,76
 43 266 43 266 79 280 c 1,77,78
 115 289 115 289 185 310 c 1,79,80
 239 328 239 328 239 383 c 0,81,82
 239 433 239 433 186 433 c 0,83,84
 127 433 127 433 135 377 c 1,85,86
 141 367 141 367 151 367 c 0,87,88
 164 367 164 367 164 375 c 1,89,90
 180 375 180 375 180 375 c 1,91,-1
 179 355 l 1,92,93
 167 355 167 355 134.5 354 c 128,-1,94
 102 353 102 353 13 353 c 1,0,1
EndSplineSet
MultipleSubs2: "Multiple Substitution lookup 324 subtable" U0C1C_U0C46.abvs U0C56 U0C1C_U0C46.abvs U0C56
EndChar

StartChar: U0C1D
Encoding: 3101 3101 56
Width: 1215
GlyphClass: 2
Flags: W
LayerCount: 2
Fore
SplineSet
542 246 m 0,0,1
 542 177 542 177 504.5 120 c 128,-1,2
 467 63 467 63 403 31 c 1,3,4
 365 16 365 16 327 2 c 0,5,6
 279 -17 279 -17 270 -41 c 1,7,8
 261 -17 261 -17 208 4 c 0,9,10
 130 35 130 35 125 37 c 0,11,12
 0 111 0 111 0 246 c 0,13,14
 0 354 0 354 83 425 c 0,15,16
 161 493 161 493 270 493 c 256,17,18
 379 493 379 493 459 425 c 1,19,20
 542 353 542 353 542 246 c 0,0,1
431 309 m 256,21,22
 431 372 431 372 383 411 c 128,-1,23
 335 450 335 450 270 450 c 256,24,25
 205 450 205 450 159 412 c 0,26,27
 109 372 109 372 109 309 c 256,28,29
 109 246 109 246 159 203 c 0,30,31
 206 163 206 163 270 163 c 0,32,33
 335 163 335 163 383 204.5 c 128,-1,34
 431 246 431 246 431 309 c 256,21,22
541 702 m 1,35,36
 539 697 539 697 483 569 c 0,37,38
 472 544 472 544 455 547 c 0,39,40
 439 550 439 550 439 566 c 0,41,42
 439 580 439 580 458 586 c 1,43,44
 443 603 443 603 424 603 c 0,45,46
 383 603 383 603 340 555 c 0,47,48
 281 489 281 489 258 474 c 0,49,50
 213 446 213 446 162 449 c 0,51,52
 95 454 95 454 40 508 c 1,53,54
 53 539 53 539 84 605 c 0,55,56
 92 622 92 622 104 622 c 0,57,58
 117 622 117 622 121 608 c 0,59,60
 124 594 124 594 105 590 c 1,61,62
 109 545 109 545 180 534 c 0,63,64
 223 527 223 527 248 547 c 0,65,66
 269 564 269 564 305.5 615 c 128,-1,67
 342 666 342 666 367 687 c 1,68,69
 409 720 409 720 466 720 c 0,70,71
 491 720 491 720 541 702 c 1,35,36
944 415 m 2,72,73
 925 415 925 415 925 398 c 1,74,-1
 898 398 l 1,75,-1
 898 496 l 1,76,77
 914 498 914 498 930 498 c 0,78,79
 1024 498 1024 498 1082 425 c 0,80,81
 1135 357 1135 357 1135 259 c 0,82,83
 1135 202 1135 202 1110 142 c 0,84,85
 1084 79 1084 79 1041 41 c 0,86,87
 1037 38 1037 38 983 6 c 0,88,89
 945 -17 945 -17 937 -42 c 1,90,91
 928 -18 928 -18 885 4 c 0,92,93
 832 31 832 31 823 40 c 0,94,95
 798 66 798 66 798 101 c 1,96,97
 771 59 771 59 740 35 c 1,98,99
 714 19 714 19 688 4 c 1,100,101
 656 -16 656 -16 646 -42 c 1,102,103
 637 -17 637 -17 595 4 c 0,104,105
 545 30 545 30 539 36 c 0,106,107
 505 69 505 69 505 136 c 0,108,109
 505 196 505 196 536 294 c 1,110,111
 548 264 548 264 570 232 c 1,112,113
 605 186 605 186 664 186 c 0,114,115
 721 186 721 186 754 210 c 0,116,117
 793 238 793 238 793 292 c 256,118,119
 793 346 793 346 756.5 381 c 128,-1,120
 720 416 720 416 667 416 c 2,121,-1
 651 416 l 2,122,123
 632 416 632 416 632 398 c 1,124,-1
 605 398 l 1,125,126
 605 419 605 419 605 446 c 0,127,128
 606 474 606 474 606 496 c 1,129,130
 623 498 623 498 638 498 c 0,131,132
 729 498 729 498 789 426 c 0,133,134
 844 359 844 359 844 267 c 1,135,136
 888 186 888 186 955 186 c 0,137,138
 1011 186 1011 186 1046 210 c 0,139,140
 1085 238 1085 238 1085 292 c 256,141,142
 1085 346 1085 346 1048.5 380.5 c 128,-1,143
 1012 415 1012 415 959 415 c 2,144,-1
 944 415 l 2,72,73
857 -83 m 0,145,146
 857 -110 857 -110 836 -131 c 1,147,148
 823 -140 823 -140 809 -149 c 0,149,150
 791 -161 791 -161 786 -181 c 1,151,152
 780 -161 780 -161 763 -149 c 0,153,154
 749 -140 749 -140 736 -132 c 1,155,156
 713 -111 713 -111 713 -84 c 0,157,158
 713 -69 713 -69 748 -30 c 0,159,160
 786 13 786 13 791 29 c 1,161,162
 798 14 798 14 831 -30 c 0,163,164
 857 -65 857 -65 857 -83 c 0,145,146
EndSplineSet
MultipleSubs2: "Multiple Substitution lookup 324 subtable" U0C1D_U0C46.abvs U0C56 U0C1D_U0C46.abvs U0C56
EndChar

StartChar: U0C1E
Encoding: 3102 3102 57
Width: 806
GlyphClass: 2
Flags: W
AnchorPoint: "Anchor-1" 287 -41 basechar 0
LayerCount: 2
Fore
SplineSet
396 184 m 1,0,1
 382 212 382 212 335 232.5 c 128,-1,2
 288 253 288 253 241 251 c 0,3,4
 113 246 113 246 113 184 c 0,5,6
 113 155 113 155 172 138 c 0,7,8
 213 126 213 126 243 126 c 0,9,10
 328 126 328 126 396 184 c 1,0,1
164 428 m 0,11,12
 131 428 131 428 118 419.5 c 128,-1,13
 105 411 105 411 105 381 c 0,14,15
 105 357 105 357 125 357 c 0,16,17
 136 357 136 357 137 365 c 1,18,19
 153 365 153 365 153 365 c 1,20,-1
 153 339 l 1,21,-1
 0 339 l 1,22,23
 0 406 0 406 33.5 449.5 c 128,-1,24
 67 493 67 493 124 493 c 0,25,26
 198 493 198 493 246 440 c 1,27,28
 274 474 274 474 300 486 c 128,-1,29
 326 498 326 498 371 498 c 0,30,31
 433 498 433 498 488.5 455 c 128,-1,32
 544 412 544 412 555 352 c 1,33,-1
 620 352 l 1,34,35
 596 363 596 363 596 384 c 0,36,37
 596 406 596 406 614 418 c 1,38,39
 639 437 639 437 645 446 c 1,40,41
 652 435 652 435 677 417 c 1,42,43
 694 403 694 403 694 383 c 256,44,45
 694 363 694 363 673 353 c 1,46,-1
 726 353 l 1,47,-1
 726 300 l 1,48,-1
 561 300 l 1,49,50
 561 216 561 216 518 156 c 1,51,52
 561 96 561 96 561 32 c 0,53,54
 561 5 561 5 552 -18 c 1,55,-1
 418 -18 l 1,56,57
 448 -10 448 -10 448 42 c 0,58,59
 448 64 448 64 442 72 c 1,60,61
 423 57 423 57 403 46 c 0,62,63
 398 43 398 43 311 6 c 0,64,65
 256 -18 256 -18 247 -42 c 1,66,67
 236 -18 236 -18 171 6 c 0,68,69
 91 35 91 35 78 44 c 0,70,71
 11 90 11 90 11 156 c 0,72,73
 11 233 11 233 90 271 c 1,74,75
 150 301 150 301 236 301 c 0,76,77
 295 301 295 301 365 275 c 0,78,79
 439 247 439 247 477 206 c 1,80,81
 500 244 500 244 500 287 c 0,82,83
 500 344 500 344 461.5 386 c 128,-1,84
 423 428 423 428 364 428 c 0,85,86
 320 428 320 428 302 418 c 0,87,88
 275 404 275 404 275 364 c 1,89,90
 276 359 276 359 268 354 c 128,-1,91
 260 349 260 349 251 349 c 0,92,93
 234 349 234 349 225 364 c 1,94,95
 225 428 225 428 164 428 c 0,11,12
EndSplineSet
MultipleSubs2: "Multiple Substitution lookup 324 subtable" U0C1E_U0C46.abvs U0C56 U0C1E_U0C46.abvs U0C56
EndChar

StartChar: U0C1F
Encoding: 3103 3103 58
Width: 697
GlyphClass: 2
Flags: W
LayerCount: 2
Fore
SplineSet
349 491 m 1,0,-1
 414 491 l 1,1,2
 502 496 502 496 558 431 c 0,3,4
 609 372 609 372 613 294 c 0,5,6
 617 223 617 223 598 157 c 0,7,8
 577 82 577 82 532 38 c 0,9,10
 526 33 526 33 483 4 c 0,11,12
 451 -17 451 -17 439 -42 c 1,13,14
 423 -15 423 -15 395 -2 c 1,15,16
 375 6 375 6 356 14 c 1,17,18
 341 23 341 23 314 57 c 1,19,20
 301 40 301 40 275 14 c 1,21,22
 254 5 254 5 234 -4 c 0,23,24
 208 -16 208 -16 196 -42 c 1,25,26
 182 -18 182 -18 138 5 c 0,27,28
 84 33 84 33 73 43 c 0,29,30
 0 113 0 113 0 212 c 0,31,32
 0 319 0 319 34 393 c 0,33,34
 80 492 80 492 174 492 c 0,35,36
 301 492 301 492 301 401 c 0,37,38
 301 350 301 350 263 315.5 c 128,-1,39
 225 281 225 281 173 281 c 0,40,41
 93 281 93 281 59 335 c 1,42,43
 52 322 52 322 52 299 c 0,44,45
 52 246 52 246 108 202 c 0,46,47
 158 163 158 163 198 163 c 0,48,49
 244 163 244 163 277 190.5 c 128,-1,50
 310 218 310 218 310 264 c 0,51,52
 310 272 310 272 309 280 c 1,53,-1
 338 280 l 1,54,55
 332 235 332 235 363 207 c 128,-1,56
 394 179 394 179 439 179 c 0,57,58
 495 179 495 179 523 226 c 0,59,60
 544 262 544 262 544 313 c 0,61,62
 544 363 544 363 511 394 c 128,-1,63
 478 425 478 425 417 425 c 0,64,65
 382 425 382 425 382 403 c 1,66,-1
 349 403 l 1,67,-1
 349 491 l 1,0,-1
221 396 m 0,68,69
 221 416 221 416 205 431.5 c 128,-1,70
 189 447 189 447 169 447 c 0,71,72
 148 447 148 447 133 431 c 128,-1,73
 118 415 118 415 118 394 c 0,74,75
 118 372 118 372 134 357.5 c 128,-1,76
 150 343 150 343 172 343 c 0,77,78
 190 343 190 343 205.5 360.5 c 128,-1,79
 221 378 221 378 221 396 c 0,68,69
119 543 m 256,80,81
 119 564 119 564 134 579 c 128,-1,82
 149 594 149 594 170 594 c 256,83,84
 191 594 191 594 206 579 c 128,-1,85
 221 564 221 564 221 543 c 256,86,87
 221 522 221 522 206 507 c 128,-1,88
 191 492 191 492 170 492 c 256,89,90
 149 492 149 492 134 507 c 128,-1,91
 119 522 119 522 119 543 c 256,80,81
EndSplineSet
MultipleSubs2: "Multiple Substitution lookup 324 subtable" U0C1F_U0C46.abvs U0C56 U0C1F_U0C46.abvs U0C56
EndChar

StartChar: U0C20
Encoding: 3104 3104 59
Width: 622
GlyphClass: 2
Flags: W
AnchorPoint: "Anchor-1" 266 -20 basechar 0
LayerCount: 2
Fore
SplineSet
542 246 m 0,0,1
 542 177 542 177 504.5 120 c 128,-1,2
 467 63 467 63 403 31 c 1,3,4
 365 16 365 16 327 2 c 0,5,6
 279 -17 279 -17 270 -41 c 1,7,8
 261 -17 261 -17 208 4 c 0,9,10
 130 35 130 35 125 37 c 0,11,12
 0 111 0 111 0 246 c 0,13,14
 0 354 0 354 83 425 c 0,15,16
 161 493 161 493 270 493 c 256,17,18
 379 493 379 493 459 425 c 1,19,20
 542 353 542 353 542 246 c 0,0,1
431 309 m 256,21,22
 431 372 431 372 383 411 c 128,-1,23
 335 450 335 450 270 450 c 256,24,25
 205 450 205 450 159 412 c 0,26,27
 109 372 109 372 109 309 c 256,28,29
 109 246 109 246 159 203 c 0,30,31
 206 163 206 163 270 163 c 0,32,33
 335 163 335 163 383 204.5 c 128,-1,34
 431 246 431 246 431 309 c 256,21,22
541 702 m 1,35,36
 539 697 539 697 483 569 c 0,37,38
 472 544 472 544 455 547 c 0,39,40
 439 550 439 550 439 566 c 0,41,42
 439 580 439 580 458 586 c 1,43,44
 443 603 443 603 424 603 c 0,45,46
 383 603 383 603 340 555 c 0,47,48
 281 489 281 489 258 474 c 0,49,50
 213 446 213 446 162 449 c 0,51,52
 95 454 95 454 40 508 c 1,53,54
 53 539 53 539 84 605 c 0,55,56
 92 622 92 622 104 622 c 0,57,58
 117 622 117 622 121 608 c 0,59,60
 124 594 124 594 105 590 c 1,61,62
 109 545 109 545 180 534 c 0,63,64
 223 527 223 527 248 547 c 0,65,66
 269 564 269 564 305.5 615 c 128,-1,67
 342 666 342 666 367 687 c 1,68,69
 409 720 409 720 466 720 c 0,70,71
 491 720 491 720 541 702 c 1,35,36
308 341 m 0,72,73
 308 299 308 299 269 299 c 0,74,75
 226 299 226 299 226 337 c 0,76,77
 226 381 226 381 267 381 c 256,78,79
 308 381 308 381 308 341 c 0,72,73
EndSplineSet
MultipleSubs2: "Multiple Substitution lookup 324 subtable" U0C20_U0C46.abvs U0C56 U0C20_U0C46.abvs U0C56
EndChar

StartChar: U0C21
Encoding: 3105 3105 60
Width: 724
GlyphClass: 2
Flags: W
LayerCount: 2
Fore
SplineSet
557 274 m 0,0,1
 557 290 557 290 544 301.5 c 128,-1,2
 531 313 531 313 514 313 c 0,3,4
 469 313 469 313 469 274 c 0,5,6
 469 237 469 237 514 237 c 0,7,8
 557 237 557 237 557 274 c 0,0,1
464 379 m 1,9,-1
 430 379 l 1,10,11
 430 389 430 389 430 395 c 0,12,13
 429 401 429 401 429 408 c 1,14,15
 446 408 446 408 443 408 c 1,16,17
 446 408 446 408 445 419 c 1,18,19
 445 448 445 448 323 448 c 0,20,21
 236 448 236 448 179.5 399.5 c 128,-1,22
 123 351 123 351 123 276 c 0,23,24
 123 228 123 228 154 192 c 128,-1,25
 185 156 185 156 233 156 c 0,26,27
 314 156 314 156 314 228 c 0,28,29
 314 237 314 237 312 247 c 1,30,31
 315 256 315 256 328 256 c 0,32,33
 341 255 341 255 343 247 c 1,34,35
 342 238 342 238 342 230 c 0,36,37
 342 186 342 186 378 163 c 0,38,39
 409 144 409 144 456 144 c 0,40,41
 496 144 496 144 538 164 c 0,42,43
 588 188 588 188 588 225 c 0,44,45
 588 232 588 232 586 238 c 1,46,47
 547 181 547 181 471 181 c 0,48,49
 432 181 432 181 402 199 c 0,50,51
 366 220 366 220 366 256 c 0,52,53
 366 306 366 306 412 333 c 0,54,55
 445 352 445 352 478 352 c 0,56,57
 644 352 644 352 644 189 c 0,58,59
 644 96 644 96 569 39 c 0,60,61
 568 38 568 38 506 5 c 0,62,63
 464 -17 464 -17 456 -42 c 1,64,65
 450 -17 450 -17 410 3 c 0,66,67
 357 29 357 29 354 32 c 0,68,69
 338 47 338 47 329 68 c 1,70,71
 314 48 314 48 297 33 c 1,72,73
 271 18 271 18 244 3 c 0,74,75
 210 -17 210 -17 202 -42 c 1,76,77
 196 -17 196 -17 151 6 c 0,78,79
 88 38 88 38 83 41 c 0,80,81
 0 109 0 109 0 229 c 0,82,83
 0 350 0 350 95 427 c 0,84,85
 184 498 184 498 308 498 c 0,86,87
 522 498 522 498 589 379 c 1,88,-1
 464 379 l 1,9,-1
617 702 m 1,89,90
 615 697 615 697 554 569 c 0,91,92
 542 544 542 544 523 547 c 0,93,94
 505 550 505 550 505 566 c 0,95,96
 505 580 505 580 526 586 c 1,97,98
 510 603 510 603 489 603 c 0,99,100
 444 603 444 603 397 555 c 0,101,102
 332 489 332 489 307 474 c 0,103,104
 258 446 258 446 202 449 c 0,105,106
 128 454 128 454 68 508 c 1,107,108
 82 539 82 539 116 605 c 0,109,110
 125 622 125 622 138 622 c 0,111,112
 152 622 152 622 157 608 c 1,113,114
 160 594 160 594 139 590 c 1,115,116
 144 545 144 545 222 534 c 0,117,118
 269 527 269 527 296 547 c 0,119,120
 319 564 319 564 359 615 c 128,-1,121
 399 666 399 666 426 687 c 1,122,123
 473 720 473 720 535 720 c 0,124,125
 562 720 562 720 617 702 c 1,89,90
EndSplineSet
MultipleSubs2: "Multiple Substitution lookup 324 subtable" U0C21_U0C46.abvs U0C56 U0C21_U0C46.abvs U0C56
EndChar

StartChar: U0C22
Encoding: 3106 3106 61
Width: 724
GlyphClass: 2
Flags: W
LayerCount: 2
Fore
SplineSet
557 274 m 0,0,1
 557 290 557 290 544 301.5 c 128,-1,2
 531 313 531 313 514 313 c 0,3,4
 469 313 469 313 469 274 c 0,5,6
 469 237 469 237 514 237 c 0,7,8
 557 237 557 237 557 274 c 0,0,1
464 379 m 1,9,-1
 430 379 l 1,10,11
 430 389 430 389 430 395 c 0,12,13
 429 401 429 401 429 408 c 1,14,15
 446 408 446 408 443 408 c 1,16,17
 446 408 446 408 445 419 c 1,18,19
 445 448 445 448 323 448 c 0,20,21
 236 448 236 448 179.5 399.5 c 128,-1,22
 123 351 123 351 123 276 c 0,23,24
 123 228 123 228 154 192 c 128,-1,25
 185 156 185 156 233 156 c 0,26,27
 314 156 314 156 314 228 c 0,28,29
 314 237 314 237 312 247 c 1,30,31
 315 256 315 256 328 256 c 0,32,33
 341 255 341 255 343 247 c 1,34,35
 342 238 342 238 342 230 c 0,36,37
 342 186 342 186 378 163 c 0,38,39
 409 144 409 144 456 144 c 0,40,41
 496 144 496 144 538 164 c 0,42,43
 588 188 588 188 588 225 c 0,44,45
 588 232 588 232 586 238 c 1,46,47
 547 181 547 181 471 181 c 0,48,49
 432 181 432 181 402 199 c 0,50,51
 366 220 366 220 366 256 c 0,52,53
 366 306 366 306 412 333 c 0,54,55
 445 352 445 352 478 352 c 0,56,57
 644 352 644 352 644 189 c 0,58,59
 644 96 644 96 569 39 c 0,60,61
 568 38 568 38 506 5 c 0,62,63
 464 -17 464 -17 456 -42 c 1,64,65
 450 -17 450 -17 410 3 c 0,66,67
 357 29 357 29 354 32 c 0,68,69
 338 47 338 47 329 68 c 1,70,71
 314 48 314 48 297 33 c 1,72,73
 271 18 271 18 244 3 c 0,74,75
 210 -17 210 -17 202 -42 c 1,76,77
 196 -17 196 -17 151 6 c 0,78,79
 88 38 88 38 83 41 c 0,80,81
 0 109 0 109 0 229 c 0,82,83
 0 350 0 350 95 427 c 0,84,85
 184 498 184 498 308 498 c 0,86,87
 522 498 522 498 589 379 c 1,88,-1
 464 379 l 1,9,-1
395 -83 m 0,89,90
 395 -110 395 -110 374 -131 c 1,91,92
 361 -140 361 -140 347 -149 c 0,93,94
 329 -161 329 -161 324 -181 c 1,95,96
 318 -161 318 -161 301 -149 c 0,97,98
 287 -140 287 -140 274 -132 c 1,99,100
 251 -111 251 -111 251 -84 c 0,101,102
 251 -69 251 -69 286 -30 c 0,103,104
 324 13 324 13 329 29 c 1,105,106
 336 14 336 14 369 -30 c 0,107,108
 395 -65 395 -65 395 -83 c 0,89,90
617 702 m 1,109,110
 615 697 615 697 554 569 c 0,111,112
 542 544 542 544 523 547 c 0,113,114
 505 550 505 550 505 566 c 0,115,116
 505 580 505 580 526 586 c 1,117,118
 510 603 510 603 489 603 c 0,119,120
 444 603 444 603 397 555 c 0,121,122
 332 489 332 489 307 474 c 0,123,124
 258 446 258 446 202 449 c 0,125,126
 128 454 128 454 68 508 c 1,127,128
 82 539 82 539 116 605 c 0,129,130
 125 622 125 622 138 622 c 0,131,132
 152 622 152 622 157 608 c 1,133,134
 160 594 160 594 139 590 c 1,135,136
 144 545 144 545 222 534 c 0,137,138
 269 527 269 527 296 547 c 0,139,140
 319 564 319 564 359 615 c 128,-1,141
 399 666 399 666 426 687 c 1,142,143
 473 720 473 720 535 720 c 0,144,145
 562 720 562 720 617 702 c 1,109,110
EndSplineSet
MultipleSubs2: "Multiple Substitution lookup 324 subtable" U0C22_U0C46.abvs U0C56 U0C22_U0C46.abvs U0C56
EndChar

StartChar: U0C23
Encoding: 3107 3107 62
Width: 750
GlyphClass: 2
Flags: W
LayerCount: 2
Fore
SplineSet
563 234 m 0,0,1
 563 263 563 263 544.5 284.5 c 128,-1,2
 526 306 526 306 498 306 c 0,3,4
 425 306 425 306 425 225 c 0,5,6
 425 203 425 203 445 188 c 128,-1,7
 465 173 465 173 488 173 c 0,8,9
 516 173 516 173 539.5 190 c 128,-1,10
 563 207 563 207 563 234 c 0,0,1
163 170 m 256,11,12
 191 170 191 170 212.5 183 c 128,-1,13
 234 196 234 196 234 212 c 256,14,15
 234 228 234 228 231 230 c 1,16,17
 233 229 233 229 220 229 c 1,18,-1
 220 268 l 1,19,20
 250 268 250 268 272 236 c 128,-1,21
 294 204 294 204 294 164 c 0,22,23
 294 76 294 76 233 30 c 1,24,25
 208 16 208 16 182 2 c 0,26,27
 148 -17 148 -17 142 -41 c 1,28,29
 133 -18 133 -18 96 3 c 0,30,31
 46 32 46 32 42 35 c 0,32,33
 0 73 0 73 0 143 c 0,34,35
 0 265 0 265 69 289 c 1,36,37
 48 300 48 300 34 323 c 1,38,39
 20 342 20 342 20 371 c 0,40,41
 20 429 20 429 74 464 c 0,42,43
 121 494 121 494 183 494 c 0,44,45
 289 494 289 494 317 432 c 1,46,47
 350 494 350 494 464 494 c 0,48,49
 564 494 564 494 621 409 c 0,50,51
 670 336 670 336 670 231 c 0,52,53
 670 93 670 93 585 31 c 1,54,55
 556 16 556 16 527 1 c 0,56,57
 490 -18 490 -18 484 -41 c 1,58,59
 476 -18 476 -18 440 2 c 0,60,61
 383 32 383 32 383 32 c 1,62,63
 311 86 311 86 311 178 c 0,64,65
 311 255 311 255 364 300 c 1,66,67
 414 344 414 344 491 344 c 0,68,69
 537 344 537 344 562 332 c 1,70,71
 579 325 579 325 622 291 c 1,72,73
 589 417 589 417 482 417 c 0,74,75
 348 417 348 417 339 352 c 1,76,-1
 306 352 l 1,77,78
 291 417 291 417 184 417 c 0,79,80
 147 417 147 417 117 406 c 1,81,82
 74 392 74 392 74 364 c 0,83,84
 74 343 74 343 98 329 c 0,85,86
 118 318 118 318 141 318 c 0,87,88
 158 318 158 318 169 325 c 1,89,-1
 169 292 l 1,90,91
 87 295 87 295 87 231 c 0,92,93
 87 204 87 204 111 187 c 128,-1,94
 135 170 135 170 163 170 c 256,11,12
EndSplineSet
MultipleSubs2: "Multiple Substitution lookup 324 subtable" U0C23_U0C46.abvs U0C56 U0C23_U0C46.abvs U0C56
EndChar

StartChar: U0C24
Encoding: 3108 3108 63
Width: 650
GlyphClass: 2
Flags: W
AnchorPoint: "Anchor-2" 321 -30 basechar 0
AnchorPoint: "Anchor-1" 259 -34 basechar 0
LayerCount: 2
Fore
SplineSet
570 248 m 0,0,1
 570 135 570 135 472 65 c 0,2,3
 447 47 447 47 353 11 c 0,4,5
 276 -19 276 -19 267 -41 c 1,6,7
 254 -17 254 -17 191 8 c 0,8,9
 109 40 109 40 93 50 c 0,10,11
 0 110 0 110 0 207 c 0,12,13
 0 294 0 294 37 346 c 0,14,15
 79 406 79 406 161 406 c 0,16,17
 269 406 269 406 269 333 c 0,18,19
 269 294 269 294 239.5 267 c 128,-1,20
 210 240 210 240 170 240 c 0,21,22
 92 240 92 240 59 298 c 1,23,24
 58 232 58 232 130 201 c 0,25,26
 188 175 188 175 264 175 c 0,27,28
 349 175 349 175 423 211 c 128,-1,29
 497 247 497 247 506 308 c 1,30,31
 453 252 453 252 387 252 c 0,32,33
 345 252 345 252 316 273.5 c 128,-1,34
 287 295 287 295 287 336 c 0,35,36
 287 375 287 375 329 397 c 0,37,38
 362 414 362 414 405 414 c 0,39,40
 431 414 431 414 447 407 c 1,41,42
 401 450 401 450 348 450 c 2,43,-1
 212 450 l 2,44,45
 193 450 193 450 192 472 c 1,46,47
 201 494 201 494 226 494 c 1,48,49
 410 504 410 504 451 467 c 1,50,51
 515 433 515 433 519 362 c 1,52,53
 542 348 542 348 557 311 c 0,54,55
 570 278 570 278 570 248 c 0,0,1
441 337 m 0,56,57
 441 372 441 372 401 372 c 0,58,59
 357 372 357 372 357 337 c 0,60,61
 357 320 357 320 370.5 310.5 c 128,-1,62
 384 301 384 301 401 301 c 256,63,64
 418 301 418 301 429.5 311.5 c 128,-1,65
 441 322 441 322 441 337 c 0,56,57
199 333 m 0,66,67
 199 369 199 369 157 369 c 256,68,69
 115 369 115 369 115 333 c 0,70,71
 115 317 115 317 127.5 306.5 c 128,-1,72
 140 296 140 296 157 296 c 0,73,74
 170 296 170 296 184.5 308.5 c 128,-1,75
 199 321 199 321 199 333 c 0,66,67
569 704 m 1,76,77
 567 699 567 699 511 571 c 0,78,79
 499 546 499 546 482 549 c 0,80,81
 466 552 466 552 466 568 c 0,82,83
 466 582 466 582 486 588 c 1,84,85
 471 605 471 605 452 605 c 0,86,87
 409 605 409 605 365 560 c 1,88,89
 326 518 326 518 286 476 c 1,90,91
 246 448 246 448 199 451 c 0,92,93
 137 456 137 456 94 499 c 1,94,95
 107 530 107 530 138 596 c 0,96,97
 146 613 146 613 158 613 c 0,98,99
 171 613 171 613 174 599 c 256,100,101
 177 585 177 585 159 581 c 1,102,103
 173 543 173 543 219 536 c 0,104,105
 253 531 253 531 275 548.5 c 128,-1,106
 297 566 297 566 333 617 c 128,-1,107
 369 668 369 668 395 689 c 0,108,109
 437 722 437 722 494 722 c 0,110,111
 519 722 519 722 569 704 c 1,76,77
EndSplineSet
MultipleSubs2: "Multiple Substitution lookup 324 subtable" U0C24_U0C46.abvs U0C56 U0C24_U0C46.abvs U0C56
EndChar

StartChar: U0C25
Encoding: 3109 3109 64
Width: 702
GlyphClass: 2
Flags: W
LayerCount: 2
Fore
SplineSet
622 230 m 0,0,1
 622 165 622 165 593 109 c 0,2,3
 563 50 563 50 510 22 c 1,4,5
 485 10 485 10 461 -1 c 1,6,7
 430 -18 430 -18 421 -42 c 1,8,9
 415 -18 415 -18 385 -1 c 0,10,11
 361 12 361 12 336 24 c 1,12,13
 317 36 317 36 312 51 c 1,14,15
 301 35 301 35 282 24 c 1,16,17
 254 11 254 11 226 -1 c 1,18,19
 193 -17 193 -17 186 -42 c 1,20,21
 178 -18 178 -18 147 2 c 0,22,23
 122 17 122 17 97 32 c 1,24,25
 56 64 56 64 28 113.5 c 128,-1,26
 0 163 0 163 0 208 c 0,27,28
 0 347 0 347 88 423 c 1,29,30
 172 494 172 494 315 494 c 0,31,32
 449 494 449 494 531 431 c 0,33,34
 622 361 622 361 622 230 c 0,0,1
522 287 m 0,35,36
 522 368 522 368 451 413 c 1,37,38
 390 450 390 450 303 450 c 0,39,40
 223 450 223 450 166 414 c 0,41,42
 100 373 100 373 100 297 c 0,43,44
 100 250 100 250 126 218 c 0,45,46
 154 183 154 183 200 183 c 0,47,48
 237 183 237 183 266 203 c 0,49,50
 299 225 299 225 299 260 c 0,51,52
 299 275 299 275 316 275 c 0,53,54
 341 275 341 275 341 260 c 1,55,56
 339 253 339 253 339 246 c 0,57,58
 339 216 339 216 366 199 c 0,59,60
 390 183 390 183 422 183 c 0,61,62
 462 183 462 183 492 214.5 c 128,-1,63
 522 246 522 246 522 287 c 0,35,36
359 341 m 0,64,65
 359 299 359 299 320 299 c 0,66,67
 277 299 277 299 277 337 c 0,68,69
 277 381 277 381 318 381 c 256,70,71
 359 381 359 381 359 341 c 0,64,65
376 -83 m 0,72,73
 376 -110 376 -110 355 -131 c 1,74,75
 342 -140 342 -140 328 -149 c 0,76,77
 310 -161 310 -161 305 -181 c 1,78,79
 299 -161 299 -161 282 -149 c 0,80,81
 268 -140 268 -140 255 -132 c 1,82,83
 232 -111 232 -111 232 -84 c 0,84,85
 232 -69 232 -69 267 -30 c 0,86,87
 305 13 305 13 310 29 c 1,88,89
 317 14 317 14 350 -30 c 0,90,91
 376 -65 376 -65 376 -83 c 0,72,73
581 702 m 1,92,93
 579 697 579 697 523 569 c 0,94,95
 512 544 512 544 495 547 c 0,96,97
 479 550 479 550 479 566 c 0,98,99
 479 580 479 580 498 586 c 1,100,101
 483 603 483 603 464 603 c 0,102,103
 423 603 423 603 380 555 c 0,104,105
 321 489 321 489 298 474 c 0,106,107
 253 446 253 446 202 449 c 0,108,109
 135 454 135 454 80 508 c 1,110,111
 93 539 93 539 124 605 c 0,112,113
 132 622 132 622 144 622 c 0,114,115
 157 622 157 622 161 608 c 0,116,117
 164 594 164 594 145 590 c 1,118,119
 149 545 149 545 220 534 c 0,120,121
 263 527 263 527 288 547 c 0,122,123
 309 564 309 564 345.5 615 c 128,-1,124
 382 666 382 666 407 687 c 1,125,126
 449 720 449 720 506 720 c 0,127,128
 531 720 531 720 581 702 c 1,92,93
EndSplineSet
MultipleSubs2: "Multiple Substitution lookup 324 subtable" U0C25_U0C46.abvs U0C56 U0C25_U0C46.abvs U0C56
EndChar

StartChar: U0C26
Encoding: 3110 3110 65
Width: 702
GlyphClass: 2
Flags: W
LayerCount: 2
Fore
SplineSet
622 230 m 0,0,1
 622 165 622 165 593 109 c 0,2,3
 563 50 563 50 510 22 c 1,4,5
 485 10 485 10 461 -1 c 1,6,7
 430 -18 430 -18 421 -42 c 1,8,9
 415 -18 415 -18 385 -1 c 0,10,11
 361 12 361 12 336 24 c 1,12,13
 317 36 317 36 312 51 c 1,14,15
 301 35 301 35 282 24 c 1,16,17
 254 11 254 11 226 -1 c 1,18,19
 193 -17 193 -17 186 -42 c 1,20,21
 178 -18 178 -18 147 2 c 0,22,23
 122 17 122 17 97 32 c 1,24,25
 56 64 56 64 28 113.5 c 128,-1,26
 0 163 0 163 0 208 c 0,27,28
 0 347 0 347 88 423 c 1,29,30
 172 494 172 494 315 494 c 0,31,32
 449 494 449 494 531 431 c 0,33,34
 622 361 622 361 622 230 c 0,0,1
522 287 m 0,35,36
 522 368 522 368 451 413 c 1,37,38
 390 450 390 450 303 450 c 0,39,40
 223 450 223 450 166 414 c 0,41,42
 100 373 100 373 100 297 c 0,43,44
 100 250 100 250 126 218 c 0,45,46
 154 183 154 183 200 183 c 0,47,48
 237 183 237 183 266 203 c 0,49,50
 299 225 299 225 299 260 c 0,51,52
 299 275 299 275 316 275 c 0,53,54
 341 275 341 275 341 260 c 1,55,56
 339 253 339 253 339 246 c 0,57,58
 339 216 339 216 366 199 c 0,59,60
 390 183 390 183 422 183 c 0,61,62
 462 183 462 183 492 214.5 c 128,-1,63
 522 246 522 246 522 287 c 0,35,36
581 702 m 1,64,65
 579 697 579 697 523 569 c 0,66,67
 512 544 512 544 495 547 c 0,68,69
 479 550 479 550 479 566 c 0,70,71
 479 580 479 580 498 586 c 1,72,73
 483 603 483 603 464 603 c 0,74,75
 423 603 423 603 380 555 c 0,76,77
 321 489 321 489 298 474 c 0,78,79
 253 446 253 446 202 449 c 0,80,81
 135 454 135 454 80 508 c 1,82,83
 93 539 93 539 124 605 c 0,84,85
 132 622 132 622 144 622 c 0,86,87
 157 622 157 622 161 608 c 0,88,89
 164 594 164 594 145 590 c 1,90,91
 149 545 149 545 220 534 c 0,92,93
 263 527 263 527 288 547 c 0,94,95
 309 564 309 564 345.5 615 c 128,-1,96
 382 666 382 666 407 687 c 1,97,98
 449 720 449 720 506 720 c 0,99,100
 531 720 531 720 581 702 c 1,64,65
EndSplineSet
MultipleSubs2: "Multiple Substitution lookup 324 subtable" U0C26_U0C46.abvs U0C56 U0C26_U0C46.abvs U0C56
EndChar

StartChar: U0C27
Encoding: 3111 3111 66
Width: 702
GlyphClass: 2
Flags: W
LayerCount: 2
Fore
SplineSet
622 230 m 0,0,1
 622 165 622 165 593 109 c 0,2,3
 563 50 563 50 510 22 c 1,4,5
 485 10 485 10 461 -1 c 1,6,7
 430 -18 430 -18 421 -42 c 1,8,9
 415 -18 415 -18 385 -1 c 0,10,11
 361 12 361 12 336 24 c 1,12,13
 317 36 317 36 312 51 c 1,14,15
 301 35 301 35 282 24 c 1,16,17
 254 11 254 11 226 -1 c 1,18,19
 193 -17 193 -17 186 -42 c 1,20,21
 178 -18 178 -18 147 2 c 0,22,23
 122 17 122 17 97 32 c 1,24,25
 56 64 56 64 28 113.5 c 128,-1,26
 0 163 0 163 0 208 c 0,27,28
 0 347 0 347 88 423 c 1,29,30
 172 494 172 494 315 494 c 0,31,32
 449 494 449 494 531 431 c 0,33,34
 622 361 622 361 622 230 c 0,0,1
522 287 m 0,35,36
 522 368 522 368 451 413 c 1,37,38
 390 450 390 450 303 450 c 0,39,40
 223 450 223 450 166 414 c 0,41,42
 100 373 100 373 100 297 c 0,43,44
 100 250 100 250 126 218 c 0,45,46
 154 183 154 183 200 183 c 0,47,48
 237 183 237 183 266 203 c 0,49,50
 299 225 299 225 299 260 c 0,51,52
 299 275 299 275 316 275 c 0,53,54
 341 275 341 275 341 260 c 1,55,56
 339 253 339 253 339 246 c 0,57,58
 339 216 339 216 366 199 c 0,59,60
 390 183 390 183 422 183 c 0,61,62
 462 183 462 183 492 214.5 c 128,-1,63
 522 246 522 246 522 287 c 0,35,36
376 -83 m 0,64,65
 376 -110 376 -110 355 -131 c 1,66,67
 342 -140 342 -140 328 -149 c 0,68,69
 310 -161 310 -161 305 -181 c 1,70,71
 299 -161 299 -161 282 -149 c 0,72,73
 268 -140 268 -140 255 -132 c 1,74,75
 232 -111 232 -111 232 -84 c 0,76,77
 232 -69 232 -69 267 -30 c 0,78,79
 305 13 305 13 310 29 c 1,80,81
 317 14 317 14 350 -30 c 0,82,83
 376 -65 376 -65 376 -83 c 0,64,65
581 702 m 1,84,85
 579 697 579 697 523 569 c 0,86,87
 512 544 512 544 495 547 c 0,88,89
 479 550 479 550 479 566 c 0,90,91
 479 580 479 580 498 586 c 1,92,93
 483 603 483 603 464 603 c 0,94,95
 423 603 423 603 380 555 c 0,96,97
 321 489 321 489 298 474 c 0,98,99
 253 446 253 446 202 449 c 0,100,101
 135 454 135 454 80 508 c 1,102,103
 93 539 93 539 124 605 c 0,104,105
 132 622 132 622 144 622 c 0,106,107
 157 622 157 622 161 608 c 0,108,109
 164 594 164 594 145 590 c 1,110,111
 149 545 149 545 220 534 c 0,112,113
 263 527 263 527 288 547 c 0,114,115
 309 564 309 564 345.5 615 c 128,-1,116
 382 666 382 666 407 687 c 1,117,118
 449 720 449 720 506 720 c 0,119,120
 531 720 531 720 581 702 c 1,84,85
EndSplineSet
MultipleSubs2: "Multiple Substitution lookup 324 subtable" U0C27_U0C46.abvs U0C56 U0C27_U0C46.abvs U0C56
EndChar

StartChar: U0C28
Encoding: 3112 3112 67
Width: 672
GlyphClass: 2
Flags: W
LayerCount: 2
Fore
SplineSet
203 0 m 1,0,-1
 48 0 l 1,1,2
 0 90 0 90 0 155 c 0,3,4
 0 235 0 235 48 290.5 c 128,-1,5
 96 346 96 346 175 346 c 256,6,7
 254 346 254 346 287 301 c 1,8,9
 299 273 299 273 326 218 c 0,10,11
 349 173 349 173 412 173 c 0,12,13
 458 173 458 173 485 217 c 0,14,15
 509 255 509 255 509 303 c 0,16,17
 509 348 509 348 474 390 c 1,18,19
 414 470 414 470 157 449 c 1,20,21
 136 449 136 449 136 470 c 256,22,23
 136 491 136 491 167 493 c 0,24,25
 225 498 225 498 257 497 c 1,26,27
 480 514 480 514 550 414 c 1,28,29
 592 357 592 357 592 272 c 0,30,31
 592 138 592 138 517 60 c 0,32,33
 496 38 496 38 475 24 c 1,34,35
 450 12 450 12 425 0 c 1,36,37
 395 -17 395 -17 388 -41 c 1,38,39
 378 -17 378 -17 341 0 c 0,40,41
 313 12 313 12 286 24 c 1,42,43
 236 58 236 58 236 122 c 0,44,45
 236 143 236 143 251 183.5 c 128,-1,46
 266 224 266 224 266 233 c 0,47,48
 266 258 266 258 248.5 279.5 c 128,-1,49
 231 301 231 301 207 301 c 0,50,51
 171 301 171 301 150 261 c 0,52,53
 133 228 133 228 133 189 c 0,54,55
 133 121 133 121 203 0 c 1,0,-1
521 703 m 1,56,57
 519 698 519 698 463 570 c 0,58,59
 451 545 451 545 434 548 c 0,60,61
 418 551 418 551 418 567 c 0,62,63
 418 581 418 581 438 587 c 1,64,65
 423 604 423 604 404 604 c 0,66,67
 361 604 361 604 317 559 c 1,68,69
 278 517 278 517 238 475 c 1,70,71
 204 447 204 447 154 450 c 0,72,73
 89 455 89 455 46 498 c 1,74,75
 59 529 59 529 90 595 c 0,76,77
 98 612 98 612 110 612 c 0,78,79
 123 612 123 612 126 598 c 256,80,81
 129 584 129 584 111 580 c 1,82,83
 125 542 125 542 171 535 c 0,84,85
 205 530 205 530 227 547.5 c 128,-1,86
 249 565 249 565 285 616 c 128,-1,87
 321 667 321 667 347 688 c 0,88,89
 389 721 389 721 446 721 c 0,90,91
 471 721 471 721 521 703 c 1,56,57
EndSplineSet
MultipleSubs2: "Multiple Substitution lookup 324 subtable" U0C28_U0C46.abvs U0C56 U0C28_U0C46.abvs U0C56
EndChar

StartChar: U0C2A
Encoding: 3114 3114 68
Width: 671
GlyphClass: 2
Flags: W
AnchorPoint: "Anchor-1" 287 -13 basechar 0
LayerCount: 2
Fore
SplineSet
391 494 m 1,0,-1
 452 494 l 2,1,2
 523 494 523 494 562 402 c 0,3,4
 591 332 591 332 591 249 c 0,5,6
 591 157 591 157 541 84 c 0,7,8
 524 58 524 58 468.5 18 c 128,-1,9
 413 -22 413 -22 404 -40 c 1,10,11
 396 -19 396 -19 355.5 5 c 128,-1,12
 315 29 315 29 299 69 c 1,13,14
 289 37 289 37 237.5 12.5 c 128,-1,15
 186 -12 186 -12 175 -40 c 1,16,17
 166 -18 166 -18 119 6 c 0,18,19
 62 35 62 35 40 59 c 0,20,21
 0 104 0 104 0 183 c 0,22,23
 0 258 0 258 51 306 c 128,-1,24
 102 354 102 354 177 354 c 0,25,26
 284 354 284 354 325 262 c 1,27,28
 331 246 331 246 343 216 c 1,29,30
 361 178 361 178 430 178 c 0,31,32
 477 178 477 178 504 217 c 0,33,34
 528 252 528 252 528 300 c 0,35,36
 528 346 528 346 510 379 c 0,37,38
 487 420 487 420 445 420 c 0,39,40
 414 420 414 420 414 408 c 0,41,42
 414 404 414 404 416 405 c 1,43,44
 409 405 409 405 405 405 c 0,45,46
 401 406 401 406 391 406 c 1,47,-1
 391 494 l 1,0,-1
247 239 m 0,48,49
 247 269 247 269 224 291 c 128,-1,50
 201 313 201 313 171 313 c 0,51,52
 142 313 142 313 121.5 291 c 128,-1,53
 101 269 101 269 101 239 c 0,54,55
 101 208 101 208 120.5 186.5 c 128,-1,56
 140 165 140 165 171 165 c 0,57,58
 247 165 247 165 247 239 c 0,48,49
480 703 m 1,59,60
 478 698 478 698 422 570 c 0,61,62
 410 545 410 545 393 548 c 0,63,64
 377 551 377 551 377 567 c 0,65,66
 377 581 377 581 397 587 c 1,67,68
 382 604 382 604 363 604 c 0,69,70
 320 604 320 604 276 559 c 1,71,72
 237 517 237 517 197 475 c 1,73,74
 163 447 163 447 113 450 c 0,75,76
 48 455 48 455 5 498 c 1,77,78
 18 529 18 529 49 595 c 0,79,80
 57 612 57 612 69 612 c 0,81,82
 82 612 82 612 85 598 c 256,83,84
 88 584 88 584 70 580 c 1,85,86
 84 542 84 542 130 535 c 0,87,88
 164 530 164 530 186 547.5 c 128,-1,89
 208 565 208 565 244 616 c 128,-1,90
 280 667 280 667 306 688 c 0,91,92
 348 721 348 721 405 721 c 0,93,94
 430 721 430 721 480 703 c 1,59,60
EndSplineSet
MultipleSubs2: "Multiple Substitution lookup 324 subtable" U0C2A_U0C46.abvs U0C56 U0C2A_U0C46.abvs U0C56
EndChar

StartChar: U0C2B
Encoding: 3115 3115 69
Width: 671
GlyphClass: 2
Flags: W
LayerCount: 2
Fore
SplineSet
391 494 m 1,0,-1
 452 494 l 2,1,2
 523 494 523 494 562 402 c 0,3,4
 591 332 591 332 591 249 c 0,5,6
 591 157 591 157 541 84 c 0,7,8
 524 58 524 58 468.5 18 c 128,-1,9
 413 -22 413 -22 404 -40 c 1,10,11
 396 -19 396 -19 355.5 5 c 128,-1,12
 315 29 315 29 299 69 c 1,13,14
 289 37 289 37 237.5 12.5 c 128,-1,15
 186 -12 186 -12 175 -40 c 1,16,17
 166 -18 166 -18 119 6 c 0,18,19
 62 35 62 35 40 59 c 0,20,21
 0 104 0 104 0 183 c 0,22,23
 0 258 0 258 51 306 c 128,-1,24
 102 354 102 354 177 354 c 0,25,26
 284 354 284 354 325 262 c 1,27,28
 331 246 331 246 343 216 c 1,29,30
 361 178 361 178 430 178 c 0,31,32
 477 178 477 178 504 217 c 0,33,34
 528 252 528 252 528 300 c 0,35,36
 528 346 528 346 510 379 c 0,37,38
 487 420 487 420 445 420 c 0,39,40
 414 420 414 420 414 408 c 0,41,42
 414 404 414 404 416 405 c 1,43,44
 409 405 409 405 405 405 c 0,45,46
 401 406 401 406 391 406 c 1,47,-1
 391 494 l 1,0,-1
247 239 m 0,48,49
 247 269 247 269 224 291 c 128,-1,50
 201 313 201 313 171 313 c 0,51,52
 142 313 142 313 121.5 291 c 128,-1,53
 101 269 101 269 101 239 c 0,54,55
 101 208 101 208 120.5 186.5 c 128,-1,56
 140 165 140 165 171 165 c 0,57,58
 247 165 247 165 247 239 c 0,48,49
480 703 m 1,59,60
 478 698 478 698 422 570 c 0,61,62
 410 545 410 545 393 548 c 0,63,64
 377 551 377 551 377 567 c 0,65,66
 377 581 377 581 397 587 c 1,67,68
 382 604 382 604 363 604 c 0,69,70
 320 604 320 604 276 559 c 1,71,72
 237 517 237 517 197 475 c 1,73,74
 163 447 163 447 113 450 c 0,75,76
 48 455 48 455 5 498 c 1,77,78
 18 529 18 529 49 595 c 0,79,80
 57 612 57 612 69 612 c 0,81,82
 82 612 82 612 85 598 c 256,83,84
 88 584 88 584 70 580 c 1,85,86
 84 542 84 542 130 535 c 0,87,88
 164 530 164 530 186 547.5 c 128,-1,89
 208 565 208 565 244 616 c 128,-1,90
 280 667 280 667 306 688 c 0,91,92
 348 721 348 721 405 721 c 0,93,94
 430 721 430 721 480 703 c 1,59,60
364 -68 m 0,95,96
 364 -95 364 -95 343 -116 c 1,97,98
 330 -125 330 -125 316 -134 c 0,99,100
 298 -146 298 -146 293 -166 c 1,101,102
 287 -146 287 -146 270 -134 c 0,103,104
 256 -125 256 -125 243 -117 c 1,105,106
 220 -96 220 -96 220 -69 c 0,107,108
 220 -54 220 -54 255 -15 c 0,109,110
 293 28 293 28 298 44 c 1,111,112
 305 29 305 29 338 -15 c 0,113,114
 364 -50 364 -50 364 -68 c 0,95,96
EndSplineSet
MultipleSubs2: "Multiple Substitution lookup 324 subtable" U0C2B_U0C46.abvs U0C56 U0C2B_U0C46.abvs U0C56
EndChar

StartChar: U0C2C
Encoding: 3116 3116 70
Width: 669
GlyphClass: 2
Flags: W
LayerCount: 2
Fore
SplineSet
387 486 m 1,0,-1
 448 486 l 2,1,2
 519 486 519 486 559 394 c 0,3,4
 589 324 589 324 589 241 c 0,5,6
 589 129 589 129 553 72 c 0,7,8
 532 39 532 39 481 10 c 0,9,10
 436 -15 436 -15 427 -41 c 1,11,12
 417 -11 417 -11 373 14 c 0,13,14
 322 44 322 44 309 61 c 1,15,16
 295 42 295 42 241 11 c 0,17,18
 194 -15 194 -15 188 -41 c 1,19,20
 176 -15 176 -15 125 7 c 0,21,22
 62 34 62 34 42 53 c 0,23,24
 0 91 0 91 0 164 c 0,25,26
 0 215 0 215 31 256 c 128,-1,27
 62 297 62 297 112 308 c 1,28,29
 156 316 156 316 200 325 c 1,30,31
 254 342 254 342 254 384 c 0,32,33
 254 439 254 439 200 439 c 0,34,35
 174 439 174 439 155.5 426.5 c 128,-1,36
 137 414 137 414 137 391 c 0,37,38
 137 367 137 367 157 367 c 0,39,40
 168 367 168 367 169 375 c 1,41,42
 187 375 187 375 187 375 c 1,43,-1
 187 349 l 1,44,-1
 20 349 l 1,45,-1
 20 363 l 1,46,47
 17 419 17 419 64 458 c 0,48,49
 108 494 108 494 167 494 c 0,50,51
 305 494 305 494 305 375 c 0,52,53
 305 327 305 327 256 305 c 1,54,55
 210 291 210 291 165 277 c 1,56,57
 116 260 116 260 116 224 c 0,58,59
 116 197 116 197 149 182 c 0,60,61
 175 170 175 170 206 170 c 0,62,63
 287 170 287 170 305 271 c 1,64,-1
 330 271 l 1,65,66
 330 172 330 172 429 172 c 0,67,68
 477 172 477 172 504 208 c 1,69,70
 527 241 527 241 527 290 c 0,71,72
 527 336 527 336 509 371 c 0,73,74
 488 412 488 412 452 412 c 0,75,76
 419 412 419 412 419 390 c 1,77,-1
 386 390 l 1,78,-1
 387 486 l 1,0,-1
EndSplineSet
MultipleSubs2: "Multiple Substitution lookup 324 subtable" U0C2C_U0C46.abvs U0C56 U0C2C_U0C46.abvs U0C56
EndChar

StartChar: U0C2D
Encoding: 3117 3117 71
Width: 699
GlyphClass: 2
Flags: W
LayerCount: 2
Fore
SplineSet
184 439 m 0,0,1
 123 439 123 439 123 392 c 0,2,3
 123 368 123 368 143 368 c 0,4,5
 154 368 154 368 155 376 c 1,6,7
 171 376 171 376 171 376 c 1,8,-1
 171 349 l 1,9,-1
 4 349 l 1,10,11
 0 406 0 406 41.5 450 c 128,-1,12
 83 494 83 494 151 494 c 0,13,14
 289 494 289 494 289 375 c 0,15,16
 289 327 289 327 247 304 c 0,17,18
 235 298 235 298 167 278 c 0,19,20
 117 264 117 264 117 224 c 0,21,22
 117 200 117 200 144.5 185 c 128,-1,23
 172 170 172 170 207 170 c 0,24,25
 288 170 288 170 306 271 c 1,26,-1
 331 271 l 1,27,28
 331 172 331 172 430 172 c 0,29,30
 477 172 477 172 504 207 c 128,-1,31
 531 242 531 242 531 293 c 0,32,33
 531 345 531 345 500 393 c 0,34,35
 463 450 463 450 406 450 c 2,36,-1
 349 450 l 1,37,-1
 349 494 l 1,38,-1
 406 494 l 2,39,40
 508 494 508 494 555 409 c 0,41,42
 590 345 590 345 590 241 c 0,43,44
 590 84 590 84 518 31 c 1,45,46
 494 17 494 17 469 3 c 0,47,48
 437 -16 437 -16 428 -41 c 1,49,50
 420 -16 420 -16 393 3 c 1,51,52
 373 15 373 15 353 27 c 1,53,54
 314 56 314 56 310 61 c 1,55,56
 296 42 296 42 272 26 c 1,57,58
 249 14 249 14 225 2 c 1,59,60
 194 -16 194 -16 189 -41 c 1,61,62
 178 -17 178 -17 133 3 c 0,63,64
 69 33 69 33 66 34 c 0,65,66
 1 78 1 78 1 164 c 0,67,68
 1 215 1 215 32 256.5 c 128,-1,69
 63 298 63 298 113 308 c 0,70,71
 188 323 188 323 193 325 c 0,72,73
 238 342 238 342 238 384 c 0,74,75
 238 439 238 439 184 439 c 0,0,1
679 702 m 1,76,77
 678 697 678 697 621 569 c 0,78,79
 610 544 610 544 593 547 c 0,80,81
 577 550 577 550 577 566 c 0,82,83
 577 580 577 580 597 586 c 1,84,85
 582 603 582 603 562 603 c 0,86,87
 525 603 525 603 496 562 c 1,88,89
 471 524 471 524 445 486 c 1,90,91
 408 447 408 447 349 450 c 1,92,93
 285 455 285 455 241 498 c 1,94,95
 254 529 254 529 285 595 c 0,96,97
 293 612 293 612 305 612 c 0,98,99
 318 612 318 612 321 598 c 256,100,101
 324 584 324 584 306 580 c 1,102,103
 314 560 314 560 336 547 c 128,-1,104
 358 534 358 534 381 534 c 0,105,106
 423 534 423 534 452 582 c 1,107,108
 477 627 477 627 503 672 c 1,109,110
 541 720 541 720 604 720 c 0,111,112
 630 720 630 720 679 702 c 1,76,77
376 -68 m 0,113,114
 376 -95 376 -95 355 -116 c 1,115,116
 342 -125 342 -125 328 -134 c 0,117,118
 310 -146 310 -146 305 -166 c 1,119,120
 299 -146 299 -146 282 -134 c 0,121,122
 268 -125 268 -125 255 -117 c 1,123,124
 232 -96 232 -96 232 -69 c 0,125,126
 232 -54 232 -54 267 -15 c 0,127,128
 305 28 305 28 310 44 c 1,129,130
 317 29 317 29 350 -15 c 0,131,132
 376 -50 376 -50 376 -68 c 0,113,114
EndSplineSet
MultipleSubs2: "Multiple Substitution lookup 324 subtable" U0C2D_U0C46.abvs U0C56 U0C2D_U0C46.abvs U0C56
EndChar

StartChar: U0C2E
Encoding: 3118 3118 72
Width: 1002
GlyphClass: 2
Flags: W
LayerCount: 2
Fore
SplineSet
596 274 m 0,0,1
 597 257 597 257 597 241 c 0,2,3
 597 83 597 83 506 26 c 1,4,5
 479 13 479 13 452 1 c 1,6,7
 416 -17 416 -17 408 -41 c 1,8,9
 400 -16 400 -16 377 0 c 1,10,11
 356 12 356 12 337.5 24 c 128,-1,12
 319 36 319 36 303 54 c 1,13,14
 281 34 281 34 256 22 c 128,-1,15
 231 10 231 10 205 -1 c 1,16,17
 173 -17 173 -17 166 -41 c 1,18,19
 157 -18 157 -18 124 0 c 0,20,21
 99 13 99 13 73 25 c 1,22,23
 0 74 0 74 0 172 c 0,24,25
 0 256 0 256 50 304 c 128,-1,26
 100 352 100 352 185 352 c 0,27,28
 249 352 249 352 298 304 c 0,29,30
 342 262 342 262 361 197 c 1,31,32
 375 188 375 188 393 188 c 0,33,34
 427 188 427 188 461 219 c 128,-1,35
 495 250 495 250 495 283 c 0,36,37
 495 342 495 342 457 388 c 0,38,39
 408 449 408 449 315 449 c 0,40,41
 165 449 165 449 175 449 c 1,42,-1
 175 493 l 1,43,-1
 316 493 l 2,44,45
 421 493 421 493 500 438 c 0,46,47
 589 376 589 376 596 274 c 0,0,1
262 234 m 0,48,49
 262 266 262 266 239 289.5 c 128,-1,50
 216 313 216 313 184 313 c 0,51,52
 151 313 151 313 127.5 290 c 128,-1,53
 104 267 104 267 104 234 c 256,54,55
 104 201 104 201 127.5 179 c 128,-1,56
 151 157 151 157 184 157 c 256,57,58
 217 157 217 157 239.5 179 c 128,-1,59
 262 201 262 201 262 234 c 0,48,49
554 702 m 1,60,61
 552 697 552 697 496 569 c 0,62,63
 485 544 485 544 468 547 c 0,64,65
 452 550 452 550 452 566 c 0,66,67
 452 580 452 580 471 586 c 1,68,69
 456 603 456 603 437 603 c 0,70,71
 396 603 396 603 353 555 c 0,72,73
 294 489 294 489 271 474 c 0,74,75
 226 446 226 446 175 449 c 0,76,77
 108 454 108 454 53 508 c 1,78,79
 66 539 66 539 97 605 c 0,80,81
 105 622 105 622 117 622 c 0,82,83
 130 622 130 622 134 608 c 0,84,85
 137 594 137 594 118 590 c 1,86,87
 122 545 122 545 193 534 c 0,88,89
 236 527 236 527 261 547 c 0,90,91
 282 564 282 564 318.5 615 c 128,-1,92
 355 666 355 666 380 687 c 1,93,94
 422 720 422 720 479 720 c 0,95,96
 504 720 504 720 554 702 c 1,60,61
679 496 m 1,97,98
 821 496 821 496 873 418 c 0,99,100
 923 344 923 344 923 259 c 0,101,102
 923 199 923 199 895 138 c 0,103,104
 866 73 866 73 818 36 c 1,105,106
 791 20 791 20 764 5 c 1,107,108
 729 -16 729 -16 721 -42 c 1,109,110
 710 -17 710 -17 667 4 c 0,111,112
 616 30 616 30 609 37 c 0,113,114
 577 71 577 71 577 136 c 0,115,116
 577 197 577 197 597 264 c 1,117,118
 611 230 611 230 634 202 c 0,119,120
 662 166 662 166 739 166 c 0,121,122
 786 166 786 166 828.5 206.5 c 128,-1,123
 871 247 871 247 871 292 c 0,124,125
 871 348 871 348 832 382 c 128,-1,126
 793 416 793 416 725 416 c 0,127,128
 706 416 706 416 706 398 c 1,129,-1
 678 398 l 1,130,-1
 679 496 l 1,97,98
EndSplineSet
MultipleSubs2: "Multiple Substitution lookup 324 subtable" U0C2E_U0C46.abvs U0C56 U0C2E_U0C46.abvs U0C56
EndChar

StartChar: U0C2F
Encoding: 3119 3119 73
Width: 1242
GlyphClass: 2
Flags: W
AnchorPoint: "Anchor-2" 621 -55 basechar 0
LayerCount: 2
Fore
SplineSet
837 244 m 0,0,1
 837 182 837 182 811 125 c 0,2,3
 783 65 783 65 735 32 c 1,4,5
 706 17 706 17 676 3 c 0,6,7
 638 -16 638 -16 624 -42 c 1,8,9
 611 -14 611 -14 572 6 c 0,10,11
 560 12 560 12 511 31 c 0,12,13
 478 44 478 44 463 92 c 1,14,15
 425 40 425 40 368 21 c 0,16,17
 339 12 339 12 310 3 c 1,18,19
 275 -13 275 -13 261 -42 c 1,20,21
 251 -18 251 -18 180 12 c 1,22,23
 98 48 98 48 75 68 c 0,24,25
 0 134 0 134 0 245 c 0,26,27
 0 354 0 354 77 425 c 0,28,29
 151 494 151 494 261 494 c 0,30,31
 369 494 369 494 443.5 424 c 128,-1,32
 518 354 518 354 518 245 c 0,33,34
 518 241 518 241 520 225 c 1,35,36
 547 194 547 194 563 183 c 0,37,38
 592 164 592 164 630 164 c 0,39,40
 675 164 675 164 707 210 c 0,41,42
 736 252 736 252 736 300 c 0,43,44
 736 357 736 357 691.5 404 c 128,-1,45
 647 451 647 451 589 451 c 2,46,-1
 529 451 l 2,47,48
 507 451 507 451 507 473 c 0,49,50
 507 494 507 494 529 494 c 2,51,-1
 589 494 l 2,52,53
 689 494 689 494 763 419 c 128,-1,54
 837 344 837 344 837 244 c 0,0,1
424 305 m 0,55,56
 424 369 424 369 376 409 c 128,-1,57
 328 449 328 449 263 449 c 256,58,59
 198 449 198 449 149 409 c 0,60,61
 97 366 97 366 97 303 c 0,62,63
 97 241 97 241 149 201 c 0,64,65
 197 164 197 164 263 164 c 0,66,67
 328 164 328 164 374 202 c 0,68,69
 424 242 424 242 424 305 c 0,55,56
910 702 m 1,70,71
 908 697 908 697 852 569 c 0,72,73
 841 544 841 544 824 547 c 0,74,75
 808 550 808 550 808 566 c 0,76,77
 808 580 808 580 827 586 c 1,78,79
 812 603 812 603 793 603 c 0,80,81
 752 603 752 603 709 555 c 0,82,83
 650 489 650 489 627 474 c 0,84,85
 582 446 582 446 531 449 c 0,86,87
 464 454 464 454 409 508 c 1,88,89
 422 539 422 539 453 605 c 0,90,91
 461 622 461 622 473 622 c 0,92,93
 486 622 486 622 490 608 c 0,94,95
 493 594 493 594 474 590 c 1,96,97
 478 545 478 545 549 534 c 0,98,99
 592 527 592 527 617 547 c 0,100,101
 638 564 638 564 674.5 615 c 128,-1,102
 711 666 711 666 736 687 c 1,103,104
 778 720 778 720 835 720 c 0,105,106
 860 720 860 720 910 702 c 1,70,71
918 496 m 1,107,108
 1060 496 1060 496 1112 418 c 0,109,110
 1162 344 1162 344 1162 259 c 0,111,112
 1162 199 1162 199 1134 138 c 0,113,114
 1105 73 1105 73 1057 36 c 1,115,116
 1030 20 1030 20 1003 5 c 1,117,118
 968 -16 968 -16 960 -42 c 1,119,120
 949 -17 949 -17 906 4 c 0,121,122
 855 30 855 30 848 37 c 0,123,124
 815 71 815 71 815 136 c 0,125,126
 815 197 815 197 836 264 c 1,127,128
 850 230 850 230 873 202 c 1,129,130
 900 166 900 166 978 166 c 0,131,132
 1025 166 1025 166 1067.5 206.5 c 128,-1,133
 1110 247 1110 247 1110 292 c 0,134,135
 1110 348 1110 348 1071 382 c 128,-1,136
 1032 416 1032 416 964 416 c 0,137,138
 945 416 945 416 945 398 c 1,139,-1
 917 398 l 1,140,-1
 918 496 l 1,107,108
EndSplineSet
MultipleSubs2: "Multiple Substitution lookup 324 subtable" U0C2F_U0C46.abvs U0C56 U0C2F_U0C46.abvs U0C56
EndChar

StartChar: U0C30
Encoding: 3120 3120 74
Width: 614
GlyphClass: 2
Flags: W
AnchorPoint: "Anchor-1" 259 -20 basechar 0
LayerCount: 2
Fore
SplineSet
542 246 m 0,0,1
 542 177 542 177 504.5 120 c 128,-1,2
 467 63 467 63 403 31 c 1,3,4
 365 16 365 16 327 2 c 0,5,6
 279 -17 279 -17 270 -41 c 1,7,8
 261 -17 261 -17 208 4 c 0,9,10
 130 35 130 35 125 37 c 0,11,12
 0 111 0 111 0 246 c 0,13,14
 0 354 0 354 83 425 c 0,15,16
 161 493 161 493 270 493 c 256,17,18
 379 493 379 493 459 425 c 1,19,20
 542 353 542 353 542 246 c 0,0,1
431 309 m 256,21,22
 431 372 431 372 383 411 c 128,-1,23
 335 450 335 450 270 450 c 256,24,25
 205 450 205 450 159 412 c 0,26,27
 109 372 109 372 109 309 c 256,28,29
 109 246 109 246 159 203 c 0,30,31
 206 163 206 163 270 163 c 0,32,33
 335 163 335 163 383 204.5 c 128,-1,34
 431 246 431 246 431 309 c 256,21,22
541 702 m 1,35,36
 539 697 539 697 483 569 c 0,37,38
 472 544 472 544 455 547 c 0,39,40
 439 550 439 550 439 566 c 0,41,42
 439 580 439 580 458 586 c 1,43,44
 443 603 443 603 424 603 c 0,45,46
 383 603 383 603 340 555 c 0,47,48
 281 489 281 489 258 474 c 0,49,50
 213 446 213 446 162 449 c 0,51,52
 95 454 95 454 40 508 c 1,53,54
 53 539 53 539 84 605 c 0,55,56
 92 622 92 622 104 622 c 0,57,58
 117 622 117 622 121 608 c 0,59,60
 124 594 124 594 105 590 c 1,61,62
 109 545 109 545 180 534 c 0,63,64
 223 527 223 527 248 547 c 0,65,66
 269 564 269 564 305.5 615 c 128,-1,67
 342 666 342 666 367 687 c 1,68,69
 409 720 409 720 466 720 c 0,70,71
 491 720 491 720 541 702 c 1,35,36
EndSplineSet
MultipleSubs2: "Multiple Substitution lookup 324 subtable" U0C30_U0C46.abvs U0C56 U0C30_U0C46.abvs U0C56
EndChar

StartChar: U0C31
Encoding: 3121 3121 75
Width: 695
GlyphClass: 2
Flags: W
LayerCount: 2
Fore
SplineSet
224 396 m 0,0,1
 224 450 224 450 173 450 c 0,2,3
 125 450 125 450 125 396 c 0,4,5
 125 344 125 344 173 344 c 0,6,7
 193 344 193 344 208.5 359.5 c 128,-1,8
 224 375 224 375 224 396 c 0,0,1
243 297 m 1,9,-1
 343 297 l 1,10,11
 323 327 323 327 323 363 c 0,12,13
 323 493 323 493 439 493 c 0,14,15
 615 493 615 493 615 251 c 0,16,17
 615 192 615 192 597 137 c 0,18,19
 577 73 577 73 539 38 c 0,20,21
 537 36 537 36 486 4 c 0,22,23
 450 -18 450 -18 444 -42 c 1,24,25
 437 -18 437 -18 399 4 c 0,26,27
 350 33 350 33 345 38 c 0,28,29
 322 61 322 61 310 96 c 1,30,31
 298 54 298 54 272 31 c 0,32,33
 271 30 271 30 224 2 c 0,34,35
 191 -18 191 -18 185 -42 c 1,36,37
 178 -18 178 -18 139 3 c 0,38,39
 110 18 110 18 81 33 c 1,40,41
 0 94 0 94 0 230 c 0,42,43
 0 318 0 318 36 395 c 0,44,45
 83 494 83 494 166 494 c 0,46,47
 220 494 220 494 258.5 468.5 c 128,-1,48
 297 443 297 443 297 397 c 0,49,50
 297 352 297 352 265 322 c 128,-1,51
 233 292 233 292 187 292 c 0,52,53
 89 292 89 292 66 364 c 1,54,55
 57 340 57 340 57 312 c 0,56,57
 57 253 57 253 89 213 c 0,58,59
 125 167 125 167 186 167 c 0,60,61
 279 167 279 167 293 224 c 1,62,-1
 335 224 l 1,63,64
 335 200 335 200 370 185 c 1,65,66
 398 171 398 171 426 171 c 0,67,68
 563 171 563 171 563 306 c 0,69,70
 563 420 563 420 458 420 c 0,71,72
 367 420 367 420 367 350 c 0,73,74
 367 306 367 306 428 306 c 1,75,-1
 428 239 l 1,76,-1
 276 239 l 1,77,78
 260 221 260 221 260 224 c 1,79,-1
 243 224 l 1,80,-1
 243 297 l 1,9,-1
EndSplineSet
MultipleSubs2: "Multiple Substitution lookup 324 subtable" U0C31_U0C46.abvs U0C56 U0C31_U0C46.abvs U0C56
EndChar

StartChar: U0C32
Encoding: 3122 3122 76
Width: 647
GlyphClass: 2
Flags: W
AnchorPoint: "Anchor-2" 300 -12 basechar 0
LayerCount: 2
Fore
SplineSet
512 304 m 0,0,1
 512 404 512 404 412 404 c 0,2,3
 395 404 395 404 395 404 c 257,4,5
 395 404 395 404 396 389 c 1,6,7
 389 389 389 389 378 389 c 0,8,9
 367 388 367 388 357 388 c 1,10,11
 357 393 357 393 357 406 c 0,12,13
 357 410 357 410 357 422.5 c 128,-1,14
 357 435 357 435 357 490 c 1,15,16
 403 498 403 498 429 489 c 0,17,18
 567 443 567 443 567 241 c 0,19,20
 567 130 567 130 473 61 c 0,21,22
 453 47 453 47 363 13 c 1,23,24
 293 -15 293 -15 285 -42 c 1,25,26
 273 -16 273 -16 195 14 c 0,27,28
 104 49 104 49 81 69 c 0,29,30
 0 136 0 136 0 248 c 0,31,32
 0 350 0 350 46 417 c 1,33,34
 98 496 98 496 196 496 c 0,35,36
 268 496 268 496 306 455 c 0,37,38
 333 425 333 425 333 393 c 0,39,40
 333 347 333 347 286 317 c 0,41,42
 244 290 244 290 196 290 c 0,43,44
 150 290 150 290 119 317.5 c 128,-1,45
 88 345 88 345 83 390 c 1,46,47
 79 368 79 368 79 348 c 0,48,49
 79 177 79 177 297 177 c 0,50,51
 373 177 373 177 435 205 c 0,52,53
 512 241 512 241 512 304 c 0,0,1
255 406 m 0,54,55
 255 426 255 426 239.5 441 c 128,-1,56
 224 456 224 456 204 456 c 0,57,58
 151 456 151 456 151 406 c 0,59,60
 151 385 151 385 166 373 c 0,61,62
 184 358 184 358 204 358 c 256,63,64
 224 358 224 358 239.5 372.5 c 128,-1,65
 255 387 255 387 255 406 c 0,54,55
EndSplineSet
MultipleSubs2: "Multiple Substitution lookup 324 subtable" U0C32_U0C46.abvs U0C56 U0C32_U0C46.abvs U0C56
EndChar

StartChar: U0C33
Encoding: 3123 3123 77
Width: 575
GlyphClass: 2
Flags: W
AnchorPoint: "Anchor-1" 253 -27 basechar 0
LayerCount: 2
Fore
SplineSet
480 172 m 0,0,1
 480 80 480 80 390 32 c 1,2,3
 351 17 351 17 312 2 c 0,4,5
 260 -18 260 -18 251 -41 c 1,6,7
 241 -19 241 -19 183 1 c 0,8,9
 101 30 101 30 92 34 c 0,10,11
 19 74 19 74 19 150 c 0,12,13
 19 229 19 229 102 272 c 1,14,15
 47 295 47 295 25 318 c 0,16,17
 0 345 0 345 0 386 c 0,18,19
 0 432 0 432 34 462 c 1,20,21
 64 487 64 487 100 492 c 1,22,23
 163 497 163 497 193.5 473 c 128,-1,24
 224 449 224 449 224 407 c 0,25,26
 224 377 224 377 200.5 355.5 c 128,-1,27
 177 334 177 334 138 336 c 1,28,29
 70 336 70 336 46 396 c 1,30,31
 56 305 56 305 238 305 c 0,32,33
 281 305 281 305 337 331 c 0,34,35
 400 361 400 361 400 395 c 0,36,37
 400 434 400 434 363 445 c 0,38,39
 344 451 344 451 281 451 c 0,40,41
 261 451 261 451 261 473 c 0,42,43
 261 493 261 493 281 493 c 2,44,-1
 309 493 l 2,45,46
 467 493 467 493 467 391 c 0,47,48
 467 320 467 320 374 284 c 1,49,50
 480 258 480 258 480 172 c 0,0,1
166 419 m 0,51,52
 166 459 166 459 130 459 c 1,53,54
 104 458 104 458 97 446 c 128,-1,55
 90 434 90 434 90 419 c 0,56,57
 90 385 90 385 130 385 c 0,58,59
 166 385 166 385 166 419 c 0,51,52
353 187 m 0,60,61
 353 257 353 257 251 257 c 0,62,63
 216 257 216 257 187 240 c 0,64,65
 152 220 152 220 152 188 c 0,66,67
 152 117 152 117 254 117 c 0,68,69
 285 117 285 117 317 136 c 0,70,71
 353 158 353 158 353 187 c 0,60,61
617 702 m 1,72,73
 616 697 616 697 559 569 c 0,74,75
 548 544 548 544 531 547 c 0,76,77
 515 550 515 550 515 566 c 0,78,79
 515 580 515 580 535 586 c 1,80,81
 520 603 520 603 500 603 c 0,82,83
 463 603 463 603 434 562 c 1,84,85
 409 524 409 524 383 486 c 1,86,87
 346 447 346 447 287 450 c 1,88,89
 223 455 223 455 187 517 c 1,90,91
 192 529 192 529 223 595 c 0,92,93
 231 612 231 612 243 612 c 0,94,95
 256 612 256 612 259 598 c 256,96,97
 262 584 262 584 244 580 c 1,98,99
 252 560 252 560 274 547 c 128,-1,100
 296 534 296 534 319 534 c 0,101,102
 361 534 361 534 390 582 c 1,103,104
 415 627 415 627 441 672 c 1,105,106
 479 720 479 720 542 720 c 0,107,108
 568 720 568 720 617 702 c 1,72,73
EndSplineSet
MultipleSubs2: "Multiple Substitution lookup 324 subtable" U0C33_U0C46.abvs U0C56 U0C33_U0C46.abvs U0C56
EndChar

StartChar: U0C35
Encoding: 3125 3125 78
Width: 677
GlyphClass: 2
Flags: W
AnchorPoint: "Anchor-2" 280 -2 basechar 0
AnchorPoint: "Anchor-1" 300 -34 basechar 0
LayerCount: 2
Fore
SplineSet
596 274 m 0,0,1
 597 257 597 257 597 241 c 0,2,3
 597 84 597 84 508 27 c 1,4,5
 480 14 480 14 453 2 c 1,6,7
 416 -17 416 -17 408 -41 c 1,8,9
 401 -16 401 -16 377 0 c 1,10,11
 357 12 357 12 336 25 c 0,12,13
 319 36 319 36 303 54 c 1,14,15
 282 34 282 34 259 22 c 1,16,17
 232 11 232 11 206 0 c 1,18,19
 173 -16 173 -16 166 -41 c 1,20,21
 159 -17 159 -17 122 2 c 0,22,23
 94 16 94 16 67 30 c 1,24,25
 0 80 0 80 0 172 c 0,26,27
 0 256 0 256 50 304 c 128,-1,28
 100 352 100 352 185 352 c 0,29,30
 249 352 249 352 298 304 c 0,31,32
 342 262 342 262 361 197 c 1,33,34
 375 188 375 188 393 188 c 0,35,36
 427 188 427 188 461 219 c 128,-1,37
 495 250 495 250 495 283 c 0,38,39
 495 346 495 346 457 392 c 0,40,41
 410 450 410 450 316 450 c 2,42,-1
 157 450 l 2,43,44
 133 450 133 450 133 472 c 1,45,46
 134 490 134 490 157 493 c 1,47,-1
 317 493 l 2,48,49
 422 493 422 493 501 438 c 0,50,51
 589 376 589 376 596 274 c 0,0,1
262 234 m 0,52,53
 262 266 262 266 239 289.5 c 128,-1,54
 216 313 216 313 184 313 c 0,55,56
 151 313 151 313 127.5 290 c 128,-1,57
 104 267 104 267 104 234 c 256,58,59
 104 201 104 201 127.5 179 c 128,-1,60
 151 157 151 157 184 157 c 256,61,62
 217 157 217 157 239.5 179 c 128,-1,63
 262 201 262 201 262 234 c 0,52,53
519 703 m 1,64,65
 517 698 517 698 461 570 c 0,66,67
 449 545 449 545 432 548 c 0,68,69
 416 551 416 551 416 567 c 0,70,71
 416 581 416 581 436 587 c 1,72,73
 421 604 421 604 402 604 c 0,74,75
 359 604 359 604 315 559 c 1,76,77
 276 517 276 517 236 475 c 1,78,79
 202 447 202 447 152 450 c 0,80,81
 87 455 87 455 44 498 c 1,82,83
 57 529 57 529 88 595 c 0,84,85
 96 612 96 612 108 612 c 0,86,87
 121 612 121 612 124 598 c 256,88,89
 127 584 127 584 109 580 c 1,90,91
 123 542 123 542 169 535 c 0,92,93
 203 530 203 530 225 547.5 c 128,-1,94
 247 565 247 565 283 616 c 128,-1,95
 319 667 319 667 345 688 c 0,96,97
 387 721 387 721 444 721 c 0,98,99
 469 721 469 721 519 703 c 1,64,65
EndSplineSet
MultipleSubs2: "Multiple Substitution lookup 324 subtable" U0C35_U0C46.abvs U0C56 U0C35_U0C46.abvs U0C56
EndChar

StartChar: U0C36
Encoding: 3126 3126 79
Width: 766
GlyphClass: 2
Flags: W
AnchorPoint: "Anchor-1" 362 -61 basechar 0
LayerCount: 2
Fore
SplineSet
537 248 m 0,0,1
 537 323 537 323 424 323 c 0,2,3
 383 323 383 323 356 302 c 128,-1,4
 329 281 329 281 329 242 c 0,5,6
 329 156 329 156 438 156 c 0,7,8
 477 156 477 156 507 183 c 128,-1,9
 537 210 537 210 537 248 c 0,0,1
285 337 m 1,10,11
 205 338 205 338 160 301.5 c 128,-1,12
 115 265 115 265 115 197 c 0,13,14
 115 173 115 173 135 173 c 0,15,16
 146 173 146 173 148 181 c 1,17,18
 163 181 163 181 163 181 c 1,19,-1
 162 153 l 1,20,-1
 0 153 l 1,21,22
 0 223 0 223 21 262 c 0,23,24
 46 307 46 307 110 338 c 0,25,26
 211 386 211 386 361 386 c 0,27,28
 438 386 438 386 486 371 c 1,29,30
 497 374 497 374 515.5 387 c 128,-1,31
 534 400 534 400 536 409 c 0,32,33
 538 414 538 414 538 419 c 0,34,35
 537 451 537 451 465 451 c 2,36,-1
 399 451 l 2,37,38
 376 451 376 451 376 473 c 0,39,40
 376 493 376 493 399 493 c 2,41,-1
 489 493 l 2,42,43
 538 493 538 493 573 470 c 128,-1,44
 608 447 608 447 605 411 c 0,45,46
 603 390 603 390 589.5 378 c 128,-1,47
 576 366 576 366 563 356 c 1,48,49
 608 332 608 332 636 291.5 c 128,-1,50
 664 251 664 251 664 207 c 0,51,52
 664 94 664 94 572 30 c 0,53,54
 566 25 566 25 495 -10 c 0,55,56
 446 -34 446 -34 436 -58 c 1,57,58
 428 -34 428 -34 361 -4 c 0,59,60
 274 35 274 35 269 39 c 0,61,62
 196 89 196 89 196 178 c 0,63,64
 196 227 196 227 220 272.5 c 128,-1,65
 244 318 244 318 285 337 c 1,10,11
737 703 m 1,66,67
 735 698 735 698 679 570 c 0,68,69
 667 545 667 545 650 548 c 0,70,71
 634 551 634 551 634 567 c 0,72,73
 634 581 634 581 654 587 c 1,74,75
 639 604 639 604 620 604 c 0,76,77
 577 604 577 604 533 559 c 1,78,79
 494 517 494 517 454 475 c 1,80,81
 420 447 420 447 370 450 c 0,82,83
 305 455 305 455 262 498 c 1,84,85
 275 529 275 529 306 595 c 0,86,87
 314 612 314 612 326 612 c 0,88,89
 339 612 339 612 342 598 c 256,90,91
 345 584 345 584 327 580 c 1,92,93
 341 542 341 542 387 535 c 0,94,95
 421 530 421 530 443 547.5 c 128,-1,96
 465 565 465 565 501 616 c 128,-1,97
 537 667 537 667 563 688 c 0,98,99
 605 721 605 721 662 721 c 0,100,101
 687 721 687 721 737 703 c 1,66,67
EndSplineSet
MultipleSubs2: "Multiple Substitution lookup 324 subtable" U0C36_U0C46.abvs U0C56 U0C36_U0C46.abvs U0C56
EndChar

StartChar: U0C37
Encoding: 3127 3127 80
Width: 674
GlyphClass: 2
Flags: W
AnchorPoint: "Anchor-1" 293 -60 basechar 0
LayerCount: 2
Fore
SplineSet
476 703 m 1,0,1
 474 698 474 698 418 570 c 0,2,3
 406 545 406 545 389 548 c 0,4,5
 373 551 373 551 373 567 c 0,6,7
 373 581 373 581 393 587 c 1,8,9
 378 604 378 604 359 604 c 0,10,11
 316 604 316 604 272 559 c 1,12,13
 233 517 233 517 193 475 c 1,14,15
 159 447 159 447 109 450 c 0,16,17
 44 455 44 455 1 498 c 1,18,19
 14 529 14 529 45 595 c 0,20,21
 53 612 53 612 65 612 c 0,22,23
 78 612 78 612 81 598 c 256,24,25
 84 584 84 584 66 580 c 1,26,27
 80 542 80 542 126 535 c 0,28,29
 160 530 160 530 182 547.5 c 128,-1,30
 204 565 204 565 240 616 c 128,-1,31
 276 667 276 667 302 688 c 0,32,33
 344 721 344 721 401 721 c 0,34,35
 426 721 426 721 476 703 c 1,0,1
258 242 m 0,36,37
 258 272 258 272 235 293.5 c 128,-1,38
 212 315 212 315 182 315 c 0,39,40
 153 315 153 315 132.5 293.5 c 128,-1,41
 112 272 112 272 112 242 c 0,42,43
 112 211 112 211 131.5 189 c 128,-1,44
 151 167 151 167 182 167 c 0,45,46
 258 167 258 167 258 242 c 0,36,37
396 488 m 1,47,48
 422 494 422 494 446 494 c 0,49,50
 535 494 535 494 569 414 c 1,51,52
 602 357 602 357 592 248 c 1,53,54
 592 213 592 213 569 128 c 0,55,56
 547 48 547 48 550 20 c 0,57,58
 552 0 552 0 562 -20 c 0,59,60
 575 -46 575 -46 592 -46 c 0,61,62
 641 -46 641 -46 641 -4 c 1,63,64
 661 -8 661 -8 664 -35 c 1,65,66
 662 -134 662 -134 570 -131 c 1,67,68
 524 -131 524 -131 500 -100 c 1,69,70
 484 -82 484 -82 482 -46 c 1,71,72
 482 -16 482 -16 492 12 c 0,73,74
 498 26 498 26 509 55 c 1,75,76
 484 31 484 31 472 22 c 1,77,78
 453 11 453 11 435 1 c 1,79,80
 411 -16 411 -16 404 -41 c 1,81,82
 396 -16 396 -16 369 2 c 1,83,84
 350 13 350 13 331.5 26.5 c 128,-1,85
 313 40 313 40 299 72 c 1,86,87
 286 43 286 43 250 22 c 1,88,89
 229 11 229 11 207 1 c 1,90,91
 181 -15 181 -15 175 -41 c 1,92,93
 168 -16 168 -16 131 3 c 1,94,95
 102 16 102 16 74 30 c 1,96,97
 0 82 0 82 0 186 c 0,98,99
 0 261 0 261 51 309 c 128,-1,100
 102 357 102 357 177 357 c 0,101,102
 285 357 285 357 325 265 c 0,103,104
 335 243 335 243 343 219 c 0,105,106
 352 190 352 190 379 180 c 0,107,108
 398 172 398 172 441 172 c 0,109,110
 486 172 486 172 513 215 c 0,111,112
 536 252 536 252 536 305 c 0,113,114
 536 351 536 351 517 383.5 c 128,-1,115
 498 416 498 416 464 416 c 0,116,117
 429 416 429 416 429 395 c 1,118,-1
 396 395 l 1,119,-1
 396 488 l 1,47,48
EndSplineSet
MultipleSubs2: "Multiple Substitution lookup 324 subtable" U0C37_U0C46.abvs U0C56 U0C37_U0C46.abvs U0C56
EndChar

StartChar: U0C38
Encoding: 3128 3128 81
Width: 672
GlyphClass: 2
Flags: W
AnchorPoint: "Anchor-1" 280 -34 basechar 0
LayerCount: 2
Fore
SplineSet
378 481 m 1,0,1
 391 492 391 492 420 492 c 0,2,3
 505 491 505 491 551 426 c 0,4,5
 592 367 592 367 592 273 c 0,6,7
 592 102 592 102 472 25 c 1,8,9
 448 12 448 12 425 0 c 1,10,11
 396 -18 396 -18 388 -43 c 1,12,13
 381 -18 381 -18 343 1 c 1,14,15
 314 13 314 13 286 26 c 1,16,17
 236 60 236 60 236 121 c 0,18,19
 236 142 236 142 251 182.5 c 128,-1,20
 266 223 266 223 266 232 c 0,21,22
 266 257 266 257 248.5 278.5 c 128,-1,23
 231 300 231 300 207 300 c 0,24,25
 171 300 171 300 150 260 c 0,26,27
 133 227 133 227 133 188 c 1,28,29
 156 65 156 65 206 0 c 1,30,-1
 48 0 l 1,31,32
 0 89 0 89 0 154 c 0,33,34
 0 234 0 234 48 289.5 c 128,-1,35
 96 345 96 345 175 345 c 0,36,37
 227 345 227 345 254 329 c 0,38,39
 277 316 277 316 293 285 c 0,40,41
 310 251 310 251 326 217 c 1,42,43
 349 172 349 172 431 172 c 0,44,45
 481 172 481 172 511 214 c 1,46,47
 539 251 539 251 539 303 c 0,48,49
 539 350 539 350 515 381 c 0,50,51
 489 416 489 416 443 416 c 0,52,53
 412 416 412 416 412 393 c 1,54,-1
 378 393 l 1,55,56
 378 413 378 413 378 434.5 c 128,-1,57
 378 456 378 456 378 481 c 1,0,1
478 702 m 1,58,59
 476 697 476 697 420 569 c 0,60,61
 408 544 408 544 391 547 c 0,62,63
 375 550 375 550 375 566 c 0,64,65
 375 580 375 580 395 586 c 1,66,67
 380 603 380 603 361 603 c 0,68,69
 318 603 318 603 274 558 c 1,70,71
 235 516 235 516 195 474 c 1,72,73
 161 446 161 446 111 449 c 0,74,75
 46 454 46 454 3 497 c 1,76,77
 16 528 16 528 47 594 c 0,78,79
 55 611 55 611 67 611 c 0,80,81
 80 611 80 611 83 597 c 256,82,83
 86 583 86 583 68 579 c 1,84,85
 82 541 82 541 128 534 c 0,86,87
 162 529 162 529 184 546.5 c 128,-1,88
 206 564 206 564 242 615 c 128,-1,89
 278 666 278 666 304 687 c 0,90,91
 346 720 346 720 403 720 c 0,92,93
 428 720 428 720 478 702 c 1,58,59
EndSplineSet
MultipleSubs2: "Multiple Substitution lookup 324 subtable" U0C38_U0C46.abvs U0C56 U0C38_U0C46.abvs U0C56
EndChar

StartChar: U0C39
Encoding: 3129 3129 82
Width: 990
GlyphClass: 2
Flags: W
LayerCount: 2
Fore
SplineSet
258 241 m 0,0,1
 258 271 258 271 235 292.5 c 128,-1,2
 212 314 212 314 182 314 c 0,3,4
 153 314 153 314 132.5 292.5 c 128,-1,5
 112 271 112 271 112 241 c 0,6,7
 112 210 112 210 131.5 188 c 128,-1,8
 151 166 151 166 182 166 c 0,9,10
 258 166 258 166 258 241 c 0,0,1
818 255 m 0,11,12
 818 283 818 283 800 298.5 c 128,-1,13
 782 314 782 314 759 314 c 0,14,15
 738 314 738 314 720 299 c 0,16,17
 699 281 699 281 699 255 c 0,18,19
 699 231 699 231 717 213 c 128,-1,20
 735 195 735 195 759 195 c 0,21,22
 784 195 784 195 801 212.5 c 128,-1,23
 818 230 818 230 818 255 c 0,11,12
379 495 m 1,24,-1
 726 495 l 2,25,26
 809 495 809 495 859.5 441.5 c 128,-1,27
 910 388 910 388 910 306 c 0,28,29
 910 204 910 204 836 151 c 1,30,31
 812 141 812 141 789 130 c 0,32,33
 758 116 758 116 751 95 c 1,34,35
 744 114 744 114 712 130 c 0,36,37
 670 151 670 151 665 155 c 0,38,39
 628 190 628 190 628 247 c 0,40,41
 628 305 628 305 666.5 345 c 128,-1,42
 705 385 705 385 762 385 c 0,43,44
 824 385 824 385 866 343 c 1,45,46
 849 419 849 419 766 419 c 2,47,-1
 543 419 l 1,48,49
 591 347 591 347 591 249 c 0,50,51
 591 188 591 188 564 127 c 1,52,53
 536 61 536 61 488 27 c 1,54,55
 465 15 465 15 441 2 c 1,56,57
 411 -17 411 -17 404 -42 c 1,58,59
 396 -17 396 -17 366 2 c 0,60,61
 346 14 346 14 325 27 c 1,62,63
 307 44 307 44 299 71 c 1,64,65
 291 47 291 47 263 29 c 1,66,67
 239 15 239 15 214 2 c 1,68,69
 183 -17 183 -17 175 -42 c 1,70,71
 166 -17 166 -17 130 2 c 0,72,73
 102 16 102 16 74 30 c 1,74,75
 0 81 0 81 0 185 c 0,76,77
 0 260 0 260 51 308 c 128,-1,78
 102 356 102 356 177 356 c 0,79,80
 247 356 247 356 286 319 c 0,81,82
 316 290 316 290 343 218 c 0,83,84
 357 180 357 180 430 180 c 0,85,86
 477 180 477 180 504 219 c 0,87,88
 528 253 528 253 528 302 c 256,89,90
 528 351 528 351 499 385.5 c 128,-1,91
 470 420 470 420 432 420 c 0,92,93
 417 420 417 420 414 416 c 0,94,95
 414 415 414 415 414 404 c 1,96,97
 407 404 407 404 398 404 c 0,98,99
 388 405 388 405 379 405 c 1,100,101
 379 425 379 425 379 436.5 c 128,-1,102
 379 448 379 448 379 495 c 1,24,-1
476 703 m 1,103,104
 474 698 474 698 418 570 c 0,105,106
 406 545 406 545 389 548 c 0,107,108
 373 551 373 551 373 567 c 0,109,110
 373 581 373 581 393 587 c 1,111,112
 378 604 378 604 359 604 c 0,113,114
 316 604 316 604 272 559 c 1,115,116
 233 517 233 517 193 475 c 1,117,118
 159 447 159 447 109 450 c 0,119,120
 44 455 44 455 1 498 c 1,121,122
 14 529 14 529 45 595 c 0,123,124
 53 612 53 612 65 612 c 0,125,126
 78 612 78 612 81 598 c 256,127,128
 84 584 84 584 66 580 c 1,129,130
 80 542 80 542 126 535 c 0,131,132
 160 530 160 530 182 547.5 c 128,-1,133
 204 565 204 565 240 616 c 128,-1,134
 276 667 276 667 302 688 c 0,135,136
 344 721 344 721 401 721 c 0,137,138
 426 721 426 721 476 703 c 1,103,104
EndSplineSet
MultipleSubs2: "Multiple Substitution lookup 324 subtable" U0C39_U0C46.abvs U0C56 U0C39_U0C46.abvs U0C56
EndChar

StartChar: uni0C3D
Encoding: 3133 3133 83
Width: 766
GlyphClass: 2
Flags: W
LayerCount: 2
Fore
SplineSet
133 268 m 1,0,1
 132 271 132 271 132 274 c 0,2,3
 132 288 132 288 145 288 c 0,4,5
 159 288 159 288 159 274 c 0,6,7
 159 267 159 267 145 260 c 0,8,9
 108 241 108 241 80 241 c 0,10,11
 41 241 41 241 11 279 c 1,12,13
 13 311 13 311 39 340 c 0,14,15
 95 400 95 400 224 400 c 0,16,17
 284 400 284 400 337 374 c 0,18,19
 403 342 403 342 403 287 c 0,20,21
 403 180 403 180 228 180 c 0,22,23
 41 180 41 180 41 93 c 0,24,25
 41 71 41 71 50 63 c 1,26,27
 66 106 66 106 106 121 c 0,28,29
 134 131 134 131 189 131 c 0,30,31
 270 131 270 131 414 122 c 0,32,33
 530 115 530 115 542 115 c 0,34,35
 650 115 650 115 650 150 c 0,36,37
 650 158 650 158 640 176 c 1,38,39
 686 164 686 164 686 108 c 0,40,41
 686 63 686 63 656.5 33 c 128,-1,42
 627 3 627 3 538 3 c 0,43,44
 485 3 485 3 365 20 c 0,45,46
 228 39 228 39 169 39 c 0,47,48
 111 39 111 39 89 25 c 1,49,50
 80 22 80 22 70 16 c 0,51,52
 65 13 65 13 65 1 c 1,53,54
 0 20 0 20 0 94 c 0,55,56
 0 131 0 131 22 167 c 0,57,58
 54 222 54 222 146 238 c 1,59,60
 193 243 193 243 241 249 c 1,61,62
 301 261 301 261 301 301 c 0,63,64
 301 322 301 322 270 341.5 c 128,-1,65
 239 361 239 361 215 361 c 0,66,67
 168 361 168 361 136.5 343 c 128,-1,68
 105 325 105 325 105 299 c 0,69,70
 105 274 105 274 120 270 c 1,71,72
 127 267 127 267 133 268 c 1,0,1
EndSplineSet
EndChar

StartChar: U0C3E
Encoding: 3134 3134 84
Width: 956
GlyphClass: 2
Flags: W
LayerCount: 2
Fore
SplineSet
640 370 m 0,0,1
 640 390 640 390 645.5 407 c 128,-1,2
 651 424 651 424 660 435 c 1,3,-1
 658 442 l 1,4,-1
 606 435 l 1,5,-1
 0 435 l 1,6,-1
 0 501 l 1,7,-1
 731 501 l 2,8,9
 791 501 791 501 833.5 462.5 c 128,-1,10
 876 424 876 424 876 370 c 0,11,12
 876 321 876 321 841.5 286 c 128,-1,13
 807 251 807 251 758 251 c 256,14,15
 709 251 709 251 674.5 286 c 128,-1,16
 640 321 640 321 640 370 c 0,0,1
693 370 m 0,17,18
 693 342 693 342 712 323.5 c 128,-1,19
 731 305 731 305 758 305 c 256,20,21
 785 305 785 305 804.5 323.5 c 128,-1,22
 824 342 824 342 824 370 c 0,23,24
 824 397 824 397 804.5 416 c 128,-1,25
 785 435 785 435 758 435 c 256,26,27
 731 435 731 435 712 416 c 128,-1,28
 693 397 693 397 693 370 c 0,17,18
EndSplineSet
EndChar

StartChar: U0C3F
Encoding: 3135 3135 85
Width: 0
GlyphClass: 2
Flags: W
LayerCount: 2
Fore
SplineSet
-102 521 m 1,0,1
 -78 506 -78 506 -52.5 498 c 128,-1,2
 -27 490 -27 490 -2 490 c 0,3,4
 47 490 47 490 82 519 c 128,-1,5
 117 548 117 548 117 589 c 1,6,-1
 110 591 l 1,7,8
 95 571 95 571 68.5 560.5 c 128,-1,9
 42 550 42 550 8 550 c 0,10,11
 -55 550 -55 550 -99.5 580.5 c 128,-1,12
 -144 611 -144 611 -144 654 c 0,13,14
 -144 701 -144 701 -99 733.5 c 128,-1,15
 -54 766 -54 766 10 766 c 1,16,17
 82 755 82 755 130 710.5 c 128,-1,18
 178 666 178 666 178 608 c 0,19,20
 178 538 178 538 125.5 488 c 128,-1,21
 73 438 73 438 -2 438 c 0,22,23
 -41 438 -41 438 -74.5 448 c 128,-1,24
 -108 458 -108 458 -133 478 c 1,25,-1
 -102 521 l 1,26,-1
 -102 521 l 1,0,1
-78 661 m 1,27,28
 -78 634 -78 634 -52.5 615 c 128,-1,29
 -27 596 -27 596 8 596 c 0,30,31
 40 596 40 596 62.5 613 c 128,-1,32
 85 630 85 630 85 654 c 256,33,34
 85 678 85 678 62.5 695.5 c 128,-1,35
 40 713 40 713 8 713 c 0,36,37
 -27 713 -27 713 -52.5 697.5 c 128,-1,38
 -78 682 -78 682 -78 661 c 1,39,-1
 -78 661 l 1,27,28
EndSplineSet
EndChar

StartChar: U0C40
Encoding: 3136 3136 86
Width: 0
GlyphClass: 2
Flags: W
LayerCount: 2
Fore
SplineSet
-109 528 m 1,0,1
 -89 513 -89 513 -61 504.5 c 128,-1,2
 -33 496 -33 496 1 496 c 0,3,4
 46 496 46 496 78 523 c 128,-1,5
 110 550 110 550 110 589 c 1,6,-1
 105 594 l 1,7,8
 88 576 88 576 61 566 c 128,-1,9
 34 556 34 556 1 556 c 0,10,11
 -62 556 -62 556 -106.5 587 c 128,-1,12
 -151 618 -151 618 -151 661 c 0,13,14
 -151 687 -151 687 -132 709.5 c 128,-1,15
 -113 732 -113 732 -82 741 c 1,16,-1
 -82 746 l 1,17,18
 -106 754 -106 754 -120.5 773.5 c 128,-1,19
 -135 793 -135 793 -135 818 c 0,20,21
 -135 861 -135 861 -95 891.5 c 128,-1,22
 -55 922 -55 922 1 922 c 0,23,24
 63 922 63 922 106 886.5 c 128,-1,25
 149 851 149 851 144 804 c 1,26,-1
 73 804 l 1,27,28
 73 831 73 831 51.5 850 c 128,-1,29
 30 869 30 869 1 869 c 0,30,31
 -27 869 -27 869 -47 854 c 128,-1,32
 -67 839 -67 839 -67 818 c 0,33,34
 -67 799 -67 799 -46.5 783.5 c 128,-1,35
 -26 768 -26 768 4 764 c 0,36,37
 76 754 76 754 123.5 709.5 c 128,-1,38
 171 665 171 665 171 608 c 0,39,40
 171 538 171 538 121 488 c 128,-1,41
 71 438 71 438 1 438 c 0,42,43
 -32 438 -32 438 -67.5 446 c 128,-1,44
 -103 454 -103 454 -140 470 c 1,45,-1
 -109 528 l 1,46,-1
 -109 528 l 1,0,1
-85 661 m 1,47,48
 -85 639 -85 639 -59.5 624.5 c 128,-1,49
 -34 610 -34 610 1 610 c 0,50,51
 33 610 33 610 55.5 624.5 c 128,-1,52
 78 639 78 639 78 661 c 0,53,54
 78 682 78 682 55.5 697.5 c 128,-1,55
 33 713 33 713 1 713 c 0,56,57
 -34 713 -34 713 -59.5 697.5 c 128,-1,58
 -85 682 -85 682 -85 661 c 1,59,-1
 -85 661 l 1,47,48
EndSplineSet
EndChar

StartChar: U0C41
Encoding: 3137 3137 87
Width: 347
GlyphClass: 2
Flags: W
AnchorPoint: "Anchor-0" -261 -23 basechar 0
LayerCount: 2
Fore
SplineSet
25 496 m 1,0,1
 167 496 167 496 219 418 c 0,2,3
 269 344 269 344 269 259 c 0,4,5
 269 199 269 199 241 138 c 1,6,7
 213 74 213 74 164 36 c 1,8,9
 137 20 137 20 110 5 c 1,10,11
 75 -16 75 -16 67 -42 c 1,12,13
 56 -17 56 -17 13 4 c 0,14,15
 -38 30 -38 30 -45 37 c 0,16,17
 -78 71 -78 71 -78 136 c 0,18,19
 -78 197 -78 197 -57 264 c 1,20,21
 -43 230 -43 230 -20 202 c 1,22,23
 7 166 7 166 85 166 c 0,24,25
 132 166 132 166 174.5 206.5 c 128,-1,26
 217 247 217 247 217 292 c 0,27,28
 217 348 217 348 178 382 c 128,-1,29
 139 416 139 416 71 416 c 0,30,31
 52 416 52 416 52 398 c 1,32,-1
 24 398 l 1,33,-1
 25 496 l 1,0,1
EndSplineSet
EndChar

StartChar: U0C42
Encoding: 3138 3138 88
Width: 633
GlyphClass: 2
Flags: W
LayerCount: 2
Fore
SplineSet
457 250 m 0,0,1
 457 312 457 312 395 312 c 0,2,3
 377 312 377 312 355.5 290.5 c 128,-1,4
 334 269 334 269 334 250 c 0,5,6
 334 226 334 226 352.5 207.5 c 128,-1,7
 371 189 371 189 395 189 c 0,8,9
 421 189 421 189 439 206.5 c 128,-1,10
 457 224 457 224 457 250 c 0,0,1
-20 496 m 1,11,-1
 349 496 l 2,12,13
 465 496 465 496 517 415 c 0,14,15
 552 362 552 362 552 298 c 0,16,17
 552 192 552 192 492 143 c 0,18,19
 485 138 485 138 437 116 c 0,20,21
 401 100 401 100 396 80 c 1,22,23
 390 99 390 99 356 115 c 0,24,25
 313 136 313 136 306 142 c 0,26,27
 258 187 258 187 258 244 c 0,28,29
 258 296 258 296 298 338 c 128,-1,30
 338 380 338 380 398 380 c 0,31,32
 462 380 462 380 505 337 c 1,33,34
 488 418 488 418 402 418 c 2,35,-1
 174 418 l 1,36,37
 224 350 224 350 224 259 c 0,38,39
 224 199 224 199 196 138 c 0,40,41
 167 73 167 73 119 36 c 1,42,43
 92 20 92 20 65 5 c 1,44,45
 30 -16 30 -16 22 -42 c 1,46,47
 11 -17 11 -17 -32 4 c 0,48,49
 -83 30 -83 30 -90 37 c 0,50,51
 -123 71 -123 71 -123 136 c 0,52,53
 -123 197 -123 197 -102 257 c 1,54,55
 -90 230 -90 230 -65 202 c 1,56,57
 -38 166 -38 166 40 166 c 0,58,59
 86 166 86 166 129 211 c 128,-1,60
 172 256 172 256 172 302 c 0,61,62
 172 356 172 356 134.5 391.5 c 128,-1,63
 97 427 97 427 43 427 c 0,64,65
 23 427 23 427 17 424 c 128,-1,66
 11 421 11 421 11 409 c 1,67,-1
 -20 409 l 1,68,-1
 -20 496 l 1,11,-1
EndSplineSet
EndChar

StartChar: U0C43
Encoding: 3139 3139 89
Width: 250
GlyphClass: 2
Flags: W
AnchorPoint: "Anchor-2" -267 161 basechar 0
AnchorPoint: "Anchor-1" -272 16 mark 0
LayerCount: 2
Fore
SplineSet
-10 -181 m 0,0,1
 -10 -144 -10 -144 -60 -144 c 0,2,3
 -74 -144 -74 -144 -90 -155.5 c 128,-1,4
 -106 -167 -106 -167 -106 -181 c 0,5,6
 -106 -200 -106 -200 -90 -211 c 0,7,8
 -77 -219 -77 -219 -60 -219 c 256,9,10
 -43 -219 -43 -219 -26.5 -209 c 128,-1,11
 -10 -199 -10 -199 -10 -181 c 0,0,1
21 108 m 1,12,13
 24 110 24 110 28 110 c 0,14,15
 45 113 45 113 47 97 c 0,16,17
 50 80 50 80 33 77 c 0,18,19
 10 72 10 72 0 92 c 1,20,-1
 0 192 l 1,21,22
 7 194 7 194 16 194 c 0,23,24
 76 194 76 194 133 140 c 0,25,26
 235 43 235 43 235 -107 c 0,27,28
 235 -183 235 -183 205 -248 c 128,-1,29
 175 -313 175 -313 120 -351 c 0,30,31
 108 -360 108 -360 37 -383 c 0,32,33
 -18 -401 -18 -401 -26 -426 c 1,34,35
 -32 -400 -32 -400 -83 -384 c 0,36,37
 -148 -364 -148 -364 -158 -355 c 1,38,39
 -210 -315 -210 -315 -210 -248 c 0,40,41
 -210 -185 -210 -185 -160 -145 c 0,42,43
 -114 -108 -114 -108 -50 -108 c 0,44,45
 -11 -108 -11 -108 20 -123 c 0,46,47
 59 -142 59 -142 59 -178 c 0,48,49
 59 -218 59 -218 20 -241 c 0,50,51
 -12 -259 -12 -259 -56 -259 c 0,52,53
 -133 -259 -133 -259 -164 -204 c 1,54,55
 -165 -242 -165 -242 -118 -264 c 0,56,57
 -81 -281 -81 -281 -38 -281 c 0,58,59
 49 -282 49 -282 117.5 -222.5 c 128,-1,60
 186 -163 186 -163 186 -78 c 0,61,62
 186 -13 186 -13 154 44 c 0,63,64
 118 109 118 109 60 122 c 0,65,66
 27 129 27 129 21 108 c 1,12,13
EndSplineSet
EndChar

StartChar: U0C44
Encoding: 3140 3140 90
Width: 551
GlyphClass: 2
Flags: W
AnchorPoint: "Anchor-2" -356 193 basechar 0
AnchorPoint: "Anchor-1" -431 -107 mark 0
LayerCount: 2
Fore
SplineSet
-10 -171 m 0,0,1
 -10 -134 -10 -134 -60 -134 c 0,2,3
 -74 -134 -74 -134 -90 -145.5 c 128,-1,4
 -106 -157 -106 -157 -106 -171 c 0,5,6
 -106 -190 -106 -190 -90 -201 c 0,7,8
 -77 -209 -77 -209 -60 -209 c 256,9,10
 -43 -209 -43 -209 -26.5 -199 c 128,-1,11
 -10 -189 -10 -189 -10 -171 c 0,0,1
413 3 m 0,12,13
 413 53 413 53 363 53 c 0,14,15
 346 53 346 53 330 40 c 1,16,17
 313 24 313 24 313 3 c 0,18,19
 313 -47 313 -47 363 -47 c 0,20,21
 384 -47 384 -47 398.5 -32.5 c 128,-1,22
 413 -18 413 -18 413 3 c 0,12,13
10 113 m 1,23,24
 14 114 14 114 17 114 c 0,25,26
 35 114 35 114 35 98 c 0,27,28
 35 81 35 81 17 81 c 0,29,30
 0 81 0 81 0 98 c 2,31,-1
 0 136 l 1,32,-1
 0 136 l 1,33,-1
 0 202 l 1,34,35
 7 204 7 204 16 204 c 2,36,-1
 327 202 l 2,37,38
 420 201 420 201 463 135 c 0,39,40
 491 91 491 91 491 40 c 0,41,42
 491 -20 491 -20 455 -65 c 1,43,44
 416 -112 416 -112 356 -112 c 0,45,46
 310 -112 310 -112 281.5 -83.5 c 128,-1,47
 253 -55 253 -55 253 -9 c 0,48,49
 253 39 253 39 285.5 73 c 128,-1,50
 318 107 318 107 366 107 c 0,51,52
 418 107 418 107 453 71 c 1,53,54
 439 136 439 136 370 136 c 2,55,-1
 147 136 l 1,56,57
 196 89 196 89 216 32 c 0,58,59
 235 -20 235 -20 235 -98 c 0,60,61
 235 -260 235 -260 120 -341 c 0,62,63
 108 -350 108 -350 37 -373 c 0,64,65
 -18 -391 -18 -391 -26 -416 c 1,66,67
 -32 -390 -32 -390 -83 -374 c 0,68,69
 -148 -354 -148 -354 -158 -345 c 1,70,71
 -210 -305 -210 -305 -210 -238 c 0,72,73
 -210 -175 -210 -175 -160 -135 c 0,74,75
 -114 -98 -114 -98 -50 -98 c 0,76,77
 -11 -98 -11 -98 20 -113 c 0,78,79
 59 -132 59 -132 59 -168 c 0,80,81
 59 -208 59 -208 20 -231 c 0,82,83
 -12 -249 -12 -249 -56 -249 c 0,84,85
 -133 -249 -133 -249 -164 -194 c 1,86,87
 -170 -210 -170 -210 -152 -229 c 128,-1,88
 -134 -248 -134 -248 -117 -255 c 0,89,90
 -77 -271 -77 -271 -38 -271 c 0,91,92
 49 -272 49 -272 117.5 -212.5 c 128,-1,93
 186 -153 186 -153 186 -68 c 0,94,95
 186 -3 186 -3 154 54 c 0,96,97
 118 119 118 119 60 132 c 0,98,99
 49 134 49 134 41 134 c 0,100,101
 19 134 19 134 10 113 c 1,23,24
EndSplineSet
EndChar

StartChar: U0C46
Encoding: 3142 3142 91
Width: 0
GlyphClass: 2
Flags: W
LayerCount: 2
Fore
SplineSet
-334 659 m 1,0,-1
 49 659 l 2,1,2
 94 659 94 659 126.5 627 c 128,-1,3
 159 595 159 595 159 550 c 0,4,5
 159 503 159 503 125.5 470 c 128,-1,6
 92 437 92 437 45 437 c 2,7,-1
 -78 437 l 1,8,-1
 -78 503 l 1,9,-1
 54 503 l 2,10,11
 70 503 70 503 82 516.5 c 128,-1,12
 94 530 94 530 94 550 c 0,13,14
 94 568 94 568 82 581 c 128,-1,15
 70 594 70 594 53 594 c 2,16,-1
 -334 594 l 1,17,-1
 -334 659 l 1,18,-1
 -334 659 l 1,0,-1
EndSplineSet
EndChar

StartChar: U0C47
Encoding: 3143 3143 92
Width: 0
GlyphClass: 2
Flags: W
LayerCount: 2
Fore
SplineSet
-334 657 m 1,0,-1
 -61 657 l 1,1,-1
 -26 653 l 1,2,-1
 -23 657 l 1,3,4
 -35 669 -35 669 -42 684.5 c 128,-1,5
 -49 700 -49 700 -49 717 c 0,6,7
 -49 758 -49 758 -18.5 786 c 128,-1,8
 12 814 12 814 54 814 c 0,9,10
 100 814 100 814 132.5 779.5 c 128,-1,11
 165 745 165 745 165 696 c 1,12,-1
 112 696 l 1,13,14
 112 723 112 723 97 742.5 c 128,-1,15
 82 762 82 762 62 762 c 0,16,17
 40 762 40 762 25 746.5 c 128,-1,18
 10 731 10 731 10 710 c 0,19,20
 10 695 10 695 25.5 680.5 c 128,-1,21
 41 666 41 666 66 657 c 0,22,23
 108 642 108 642 133.5 611.5 c 128,-1,24
 159 581 159 581 159 546 c 0,25,26
 159 500 159 500 125.5 467.5 c 128,-1,27
 92 435 92 435 45 435 c 2,28,-1
 -154 435 l 1,29,-1
 -154 501 l 1,30,-1
 54 501 l 2,31,32
 70 501 70 501 82 514 c 128,-1,33
 94 527 94 527 94 546 c 256,34,35
 94 565 94 565 82 578 c 128,-1,36
 70 591 70 591 53 591 c 2,37,-1
 -334 591 l 1,38,-1
 -334 657 l 1,39,-1
 -334 657 l 1,0,-1
EndSplineSet
EndChar

StartChar: U0C48
Encoding: 3144 3144 93
Width: 734
GlyphClass: 2
Flags: W
LayerCount: 2
Fore
SplineSet
173 659 m 1,0,-1
 556 659 l 2,1,2
 602 659 602 659 634 627 c 128,-1,3
 666 595 666 595 666 550 c 0,4,5
 666 503 666 503 632.5 470 c 128,-1,6
 599 437 599 437 552 437 c 2,7,-1
 428 437 l 1,8,-1
 428 503 l 1,9,-1
 562 503 l 2,10,11
 578 503 578 503 589.5 516.5 c 128,-1,12
 601 530 601 530 601 550 c 0,13,14
 601 568 601 568 589 581 c 128,-1,15
 577 594 577 594 560 594 c 2,16,-1
 173 594 l 1,17,-1
 173 659 l 1,18,-1
 173 659 l 1,0,-1
120 -163 m 1,19,20
 120 -190 120 -190 139 -209.5 c 128,-1,21
 158 -229 158 -229 185 -229 c 256,22,23
 212 -229 212 -229 231 -209.5 c 128,-1,24
 250 -190 250 -190 250 -163 c 256,25,26
 250 -136 250 -136 231 -117 c 128,-1,27
 212 -98 212 -98 185 -98 c 256,28,29
 158 -98 158 -98 139 -117 c 128,-1,30
 120 -136 120 -136 120 -163 c 1,31,-1
 120 -163 l 1,19,20
68 -163 m 1,32,33
 68 -115 68 -115 102.5 -80.5 c 128,-1,34
 137 -46 137 -46 185 -46 c 0,35,36
 234 -46 234 -46 268.5 -80.5 c 128,-1,37
 303 -115 303 -115 303 -163 c 0,38,39
 303 -178 303 -178 295.5 -195 c 128,-1,40
 288 -212 288 -212 274 -229 c 1,41,-1
 276 -234 l 1,42,-1
 332 -229 l 1,43,-1
 632 -229 l 1,44,-1
 632 -295 l 1,45,-1
 197 -295 l 2,46,47
 143 -295 143 -295 105.5 -256.5 c 128,-1,48
 68 -218 68 -218 68 -163 c 1,49,-1
 68 -163 l 1,32,33
EndSplineSet
Substitution2: "'abvs' Above Base Substitutions in Telugu lookup 2 subtable" uni0000
EndChar

StartChar: U0C4A
Encoding: 3146 3146 94
Width: 580
GlyphClass: 2
Flags: W
LayerCount: 2
Fore
SplineSet
346 562 m 1,0,1
 346 582 346 582 351 599.5 c 128,-1,2
 356 617 356 617 366 628 c 1,3,-1
 363 632 l 1,4,-1
 329 628 l 1,5,-1
 278 628 l 2,6,7
 236 628 236 628 205.5 608.5 c 128,-1,8
 175 589 175 589 175 562 c 1,9,-1
 114 562 l 1,10,11
 114 589 114 589 77 608.5 c 128,-1,12
 40 628 40 628 -12 628 c 0,13,14
 -65 628 -65 628 -102 608 c 128,-1,15
 -139 588 -139 588 -139 559 c 256,16,17
 -139 530 -139 530 -113.5 510 c 128,-1,18
 -88 490 -88 490 -52 490 c 2,19,-1
 10 490 l 1,20,-1
 10 435 l 1,21,-1
 -52 435 l 2,22,23
 -115 435 -115 435 -159.5 471 c 128,-1,24
 -204 507 -204 507 -204 558 c 0,25,26
 -204 614 -204 614 -147.5 654 c 128,-1,27
 -91 694 -91 694 -12 694 c 0,28,29
 42 694 42 694 82.5 681.5 c 128,-1,30
 123 669 123 669 142 646 c 1,31,-1
 148 646 l 1,32,33
 167 669 167 669 201 681.5 c 128,-1,34
 235 694 235 694 278 694 c 2,35,-1
 462 694 l 2,36,37
 511 694 511 694 546 655 c 128,-1,38
 581 616 581 616 581 562 c 0,39,40
 581 514 581 514 546 479.5 c 128,-1,41
 511 445 511 445 462 445 c 0,42,43
 414 445 414 445 380 479.5 c 128,-1,44
 346 514 346 514 346 562 c 1,45,-1
 346 562 l 1,0,1
397 562 m 1,46,47
 397 534 397 534 416 515 c 128,-1,48
 435 496 435 496 462 496 c 0,49,50
 490 496 490 496 509.5 515 c 128,-1,51
 529 534 529 534 529 562 c 0,52,53
 529 589 529 589 509.5 608.5 c 128,-1,54
 490 628 490 628 462 628 c 0,55,56
 435 628 435 628 416 608.5 c 128,-1,57
 397 589 397 589 397 562 c 1,58,-1
 397 562 l 1,46,47
EndSplineSet
EndChar

StartChar: U0C4B
Encoding: 3147 3147 95
Width: 577
GlyphClass: 2
Flags: W
LayerCount: 2
Fore
SplineSet
342 562 m 1,0,1
 342 582 342 582 347.5 599 c 128,-1,2
 353 616 353 616 363 628 c 1,3,-1
 360 632 l 1,4,-1
 321 628 l 1,5,-1
 276 628 l 2,6,7
 234 628 234 628 203.5 608.5 c 128,-1,8
 173 589 173 589 173 562 c 1,9,-1
 111 562 l 1,10,11
 111 589 111 589 76.5 608.5 c 128,-1,12
 42 628 42 628 -7 628 c 0,13,14
 -60 628 -60 628 -97 607 c 128,-1,15
 -134 586 -134 586 -134 555 c 0,16,17
 -134 528 -134 528 -110.5 509 c 128,-1,18
 -87 490 -87 490 -54 490 c 2,19,-1
 14 490 l 1,20,-1
 14 435 l 1,21,-1
 -54 435 l 2,22,23
 -114 435 -114 435 -157 470.5 c 128,-1,24
 -200 506 -200 506 -200 555 c 0,25,26
 -200 613 -200 613 -143.5 653.5 c 128,-1,27
 -87 694 -87 694 -8 694 c 0,28,29
 44 694 44 694 83.5 681.5 c 128,-1,30
 123 669 123 669 142 646 c 1,31,32
 162 669 162 669 184 681.5 c 128,-1,33
 206 694 206 694 227 694 c 2,34,-1
 346 694 l 1,35,-1
 379 690 l 1,36,-1
 382 694 l 1,37,38
 370 704 370 704 363 721 c 128,-1,39
 356 738 356 738 356 759 c 0,40,41
 356 797 356 797 388.5 823.5 c 128,-1,42
 421 850 421 850 466 850 c 0,43,44
 512 850 512 850 543 814.5 c 128,-1,45
 574 779 574 779 570 732 c 1,46,-1
 517 732 l 1,47,48
 519 758 519 758 504 778 c 128,-1,49
 489 798 489 798 466 798 c 0,50,51
 445 798 445 798 429.5 784.5 c 128,-1,52
 414 771 414 771 414 752 c 0,53,54
 414 730 414 730 428 713 c 128,-1,55
 442 696 442 696 462 692 c 0,56,57
 512 683 512 683 545 646.5 c 128,-1,58
 578 610 578 610 578 562 c 256,59,60
 578 514 578 514 543 479.5 c 128,-1,61
 508 445 508 445 459 445 c 0,62,63
 411 445 411 445 376.5 479.5 c 128,-1,64
 342 514 342 514 342 562 c 1,65,-1
 342 562 l 1,0,1
394 562 m 1,66,67
 394 534 394 534 413 515 c 128,-1,68
 432 496 432 496 459 496 c 0,69,70
 487 496 487 496 506.5 515 c 128,-1,71
 526 534 526 534 526 562 c 0,72,73
 526 589 526 589 506.5 608.5 c 128,-1,74
 487 628 487 628 459 628 c 0,75,76
 432 628 432 628 413 608.5 c 128,-1,77
 394 589 394 589 394 562 c 1,78,-1
 394 562 l 1,66,67
EndSplineSet
EndChar

StartChar: U0C4C
Encoding: 3148 3148 96
Width: 614
GlyphClass: 2
Flags: W
LayerCount: 2
Fore
SplineSet
-192 657 m 1,0,-1
 470 657 l 2,1,2
 530 657 530 657 572 619 c 128,-1,3
 614 581 614 581 614 526 c 0,4,5
 614 478 614 478 579.5 444 c 128,-1,6
 545 410 545 410 496 410 c 0,7,8
 445 410 445 410 409 444 c 128,-1,9
 373 478 373 478 373 526 c 0,10,11
 373 549 373 549 379.5 566 c 128,-1,12
 386 583 386 583 397 591 c 1,13,-1
 394 596 l 1,14,-1
 350 591 l 1,15,-1
 265 591 l 1,16,-1
 230 596 l 1,17,-1
 227 591 l 1,18,19
 238 582 238 582 243.5 570.5 c 128,-1,20
 249 559 249 559 249 546 c 0,21,22
 249 500 249 500 218.5 467.5 c 128,-1,23
 188 435 188 435 146 435 c 2,24,-1
 -42 435 l 1,25,-1
 -42 501 l 1,26,-1
 144 501 l 2,27,28
 160 501 160 501 171.5 514 c 128,-1,29
 183 527 183 527 183 546 c 256,30,31
 183 565 183 565 171 578 c 128,-1,32
 159 591 159 591 142 591 c 2,33,-1
 -192 591 l 1,34,-1
 -192 657 l 1,35,-1
 -192 657 l 1,0,-1
431 526 m 1,36,37
 431 499 431 499 450 480 c 128,-1,38
 469 461 469 461 496 461 c 256,39,40
 523 461 523 461 542.5 480 c 128,-1,41
 562 499 562 499 562 526 c 0,42,43
 562 554 562 554 542.5 572.5 c 128,-1,44
 523 591 523 591 496 591 c 256,45,46
 469 591 469 591 450 572.5 c 128,-1,47
 431 554 431 554 431 526 c 1,48,-1
 431 526 l 1,36,37
EndSplineSet
EndChar

StartChar: U0C4D
Encoding: 3149 3149 97
Width: 0
GlyphClass: 2
Flags: W
LayerCount: 2
Fore
SplineSet
235 445 m 1,0,-1
 130 445 l 1,1,2
 86 453 86 453 56.5 482.5 c 128,-1,3
 27 512 27 512 27 550 c 0,4,5
 27 573 27 573 38 593 c 128,-1,6
 49 613 49 613 68 624 c 1,7,-1
 68 628 l 1,8,9
 49 642 49 642 38 662.5 c 128,-1,10
 27 683 27 683 27 706 c 0,11,12
 27 754 27 754 62 789 c 128,-1,13
 97 824 97 824 146 824 c 2,14,-1
 441 824 l 1,15,-1
 441 759 l 1,16,-1
 147 759 l 2,17,18
 125 759 125 759 109 743.5 c 128,-1,19
 93 728 93 728 93 706 c 256,20,21
 93 684 93 684 104.5 669 c 128,-1,22
 116 654 116 654 132 654 c 2,23,-1
 274 654 l 1,24,-1
 274 589 l 1,25,-1
 134 589 l 2,26,27
 117 589 117 589 105 577.5 c 128,-1,28
 93 566 93 566 93 550 c 0,29,30
 93 533 93 533 104.5 521.5 c 128,-1,31
 116 510 116 510 132 510 c 2,32,-1
 235 510 l 1,33,-1
 235 445 l 1,34,-1
 235 445 l 1,0,-1
EndSplineSet
EndChar

StartChar: U0C55
Encoding: 3157 3157 98
Width: 387
GlyphClass: 2
Flags: W
LayerCount: 2
Fore
SplineSet
114 474 m 1,0,1
 92 492 92 492 80 519 c 128,-1,2
 68 546 68 546 68 575 c 0,3,4
 68 618 68 618 106 649 c 128,-1,5
 144 680 144 680 198 680 c 0,6,7
 238 680 238 680 271 654.5 c 128,-1,8
 304 629 304 629 319 586 c 1,9,-1
 262 562 l 1,10,11
 248 586 248 586 231 600 c 128,-1,12
 214 614 214 614 198 614 c 0,13,14
 171 614 171 614 152.5 598.5 c 128,-1,15
 134 583 134 583 134 562 c 0,16,17
 134 542 134 542 146 522 c 128,-1,18
 158 502 158 502 181 482 c 1,19,-1
 114 474 l 1,20,-1
 114 474 l 1,0,1
EndSplineSet
EndChar

StartChar: U0C56
Encoding: 3158 3158 99
Width: 0
GlyphClass: 4
Flags: W
AnchorPoint: "Anchor-2" -347 -29 mark 0
AnchorPoint: "Anchor-1" -348 -55 mark 0
LayerCount: 2
Fore
SplineSet
-609 -200 m 256,0,1
 -609 -217 -609 -217 -597 -232 c 128,-1,2
 -585 -247 -585 -247 -568 -247 c 0,3,4
 -553 -247 -553 -247 -535.5 -229.5 c 128,-1,5
 -518 -212 -518 -212 -518 -197 c 0,6,7
 -518 -178 -518 -178 -530 -161.5 c 128,-1,8
 -542 -145 -542 -145 -559 -145 c 0,9,10
 -575 -145 -575 -145 -592 -164 c 128,-1,11
 -609 -183 -609 -183 -609 -200 c 256,0,1
-116 -232 m 1,12,13
 -119 -233 -119 -233 -123 -233 c 0,14,15
 -140 -233 -140 -233 -140 -217 c 0,16,17
 -140 -200 -140 -200 -123 -200 c 256,18,19
 -106 -200 -106 -200 -106 -217 c 2,20,-1
 -106 -259 l 1,21,-1
 -106 -259 l 1,22,-1
 -106 -336 l 1,23,-1
 -447 -336 l 2,24,25
 -638 -336 -638 -336 -638 -196 c 0,26,27
 -638 -146 -638 -146 -606 -118 c 128,-1,28
 -574 -90 -574 -90 -524 -90 c 0,29,30
 -468 -90 -468 -90 -444 -131 c 0,31,32
 -430 -155 -430 -155 -430 -183 c 0,33,34
 -430 -245 -430 -245 -469 -256 c 1,35,-1
 -147 -256 l 2,36,37
 -136 -256 -136 -256 -125 -249 c 128,-1,38
 -114 -242 -114 -242 -116 -232 c 1,12,13
EndSplineSet
Substitution2: "Single Substitution lookup 323 subtable" ai_extended
EndChar

StartChar: uni0C58
Encoding: 3160 3160 100
Width: 720
GlyphClass: 2
Flags: W
LayerCount: 2
Fore
SplineSet
0 397 m 1,0,-1
 270 397 l 1,1,-1
 270 315 l 1,2,3
 254 319 254 319 239 319 c 0,4,5
 208 319 208 319 182 303 c 0,6,7
 153 284 153 284 153 254 c 0,8,9
 153 223 153 223 183 199 c 128,-1,10
 213 175 213 175 245 175 c 0,11,12
 279 175 279 175 305 197.5 c 128,-1,13
 331 220 331 220 331 254 c 0,14,15
 331 261 331 261 330 268 c 1,16,-1
 366 268 l 1,17,18
 363 232 363 232 383 208.5 c 128,-1,19
 403 185 403 185 439 185 c 0,20,21
 481 185 481 185 510 223 c 0,22,23
 535 256 535 256 539 301 c 0,24,25
 546 383 546 383 485 422 c 0,26,27
 432 456 432 456 318 450 c 0,28,29
 288 448 288 448 286 468 c 1,30,31
 286 491 286 491 320 494 c 1,32,33
 313 494 313 494 393 494 c 0,34,35
 503 494 503 494 574 417 c 1,36,37
 640 343 640 343 640 246 c 0,38,39
 640 83 640 83 565 29 c 1,40,41
 539 17 539 17 512 5 c 1,42,43
 468 -17 468 -17 460 -41 c 1,44,45
 453 -17 453 -17 420 1 c 0,46,47
 374 26 374 26 373 27 c 0,48,49
 355 43 355 43 343 67 c 1,50,51
 334 52 334 52 311 26 c 1,52,53
 311 26 311 26 258 1 c 0,54,55
 220 -17 220 -17 213 -41 c 1,56,57
 207 -17 207 -17 170 1 c 0,58,59
 142 15 142 15 114 28 c 1,60,61
 73 56 73 56 49 100 c 128,-1,62
 25 144 25 144 25 188 c 0,63,64
 25 278 25 278 116 313 c 1,65,-1
 54 313 l 2,66,67
 38 313 38 313 38 313 c 1,68,69
 35 312 35 312 35 299 c 1,70,71
 28 299 28 299 19 299 c 128,-1,72
 10 299 10 299 0 299 c 1,73,-1
 0 397 l 1,0,-1
639 672 m 1,74,75
 638 667 638 667 581 552 c 0,76,77
 570 530 570 530 553 532 c 1,78,79
 537 535 537 535 537 550 c 0,80,81
 537 562 537 562 557 568 c 1,82,83
 542 583 542 583 522 583 c 0,84,85
 485 583 485 583 456 546 c 1,86,87
 431 512 431 512 405 478 c 1,88,89
 368 442 368 442 309 445 c 1,90,91
 245 450 245 450 201 488 c 1,92,93
 214 516 214 516 245 576 c 0,94,95
 253 591 253 591 265 591 c 0,96,97
 278 591 278 591 281 578 c 0,98,99
 284 566 284 566 266 562 c 1,100,101
 274 544 274 544 296 532.5 c 128,-1,102
 318 521 318 521 341 521 c 0,103,104
 383 521 383 521 412 564 c 1,105,106
 437 604 437 604 463 645 c 1,107,108
 501 688 501 688 564 688 c 0,109,110
 590 688 590 688 639 672 c 1,74,75
464 760 m 256,111,112
 464 777 464 777 447 796 c 128,-1,113
 430 815 430 815 414 815 c 0,114,115
 397 815 397 815 385 798.5 c 128,-1,116
 373 782 373 782 373 763 c 0,117,118
 373 748 373 748 390.5 730.5 c 128,-1,119
 408 713 408 713 423 713 c 0,120,121
 440 713 440 713 452 728 c 128,-1,122
 464 743 464 743 464 760 c 256,111,112
10 728 m 1,123,124
 8 718 8 718 19 711 c 128,-1,125
 30 704 30 704 41 704 c 2,126,-1
 324 704 l 1,127,128
 285 715 285 715 285 777 c 0,129,130
 285 805 285 805 299 829 c 0,131,132
 323 870 323 870 379 870 c 0,133,134
 429 870 429 870 461 842 c 128,-1,135
 493 814 493 814 493 764 c 0,136,137
 493 624 493 624 302 624 c 2,138,-1
 0 624 l 1,139,-1
 0 701 l 1,140,-1
 0 701 l 1,141,-1
 0 743 l 2,142,143
 0 760 0 760 17 760 c 256,144,145
 34 760 34 760 34 743 c 0,146,147
 34 727 34 727 17 727 c 0,148,149
 13 727 13 727 10 728 c 1,123,124
EndSplineSet
EndChar

StartChar: uni0C59
Encoding: 3161 3161 101
Width: 620
GlyphClass: 2
Flags: W
LayerCount: 2
Fore
SplineSet
13 353 m 1,0,1
 11 406 11 406 41 445 c 0,2,3
 79 496 79 496 149 496 c 0,4,5
 247 496 247 496 281 392 c 0,6,7
 305 320 305 320 366 320 c 0,8,9
 447 320 447 320 443 364 c 0,10,11
 441 386 441 386 423.5 401.5 c 128,-1,12
 406 417 406 417 384 417 c 0,13,14
 345 417 345 417 327 386 c 1,15,-1
 328 490 l 1,16,17
 362 503 362 503 396 503 c 0,18,19
 449 503 449 503 486 470.5 c 128,-1,20
 523 438 523 438 523 385 c 0,21,22
 523 334 523 334 475 303 c 0,23,24
 434 276 434 276 379 275 c 0,25,26
 323 274 323 274 268 326 c 1,27,28
 248 284 248 284 180 263 c 0,29,30
 123 246 123 246 123 207 c 0,31,32
 123 154 123 154 194 154 c 0,33,34
 270 154 270 154 270 214 c 0,35,36
 270 221 270 221 269 229 c 1,37,-1
 296 229 l 1,38,39
 302 154 302 154 393 154 c 0,40,41
 488 154 488 154 488 220 c 0,42,43
 488 243 488 243 461 267 c 1,44,45
 469 268 469 268 476 268 c 0,46,47
 518 268 518 268 538 223 c 0,48,49
 554 188 554 188 551 142 c 0,50,51
 547 70 547 70 490 28 c 1,52,53
 467 15 467 15 443 1 c 0,54,55
 411 -18 411 -18 405 -41 c 1,56,57
 398 -17 398 -17 371 0 c 1,58,59
 349 12 349 12 327 24 c 1,60,61
 303 41 303 41 280 68 c 1,62,63
 256 36 256 36 230 20 c 1,64,65
 206 10 206 10 182 0 c 1,66,67
 150 -17 150 -17 145 -41 c 1,68,69
 138 -17 138 -17 107 2 c 1,70,71
 83 15 83 15 59 28 c 1,72,73
 0 72 0 72 0 155 c 0,74,75
 0 195 0 195 21.5 230.5 c 128,-1,76
 43 266 43 266 79 280 c 1,77,78
 115 289 115 289 185 310 c 1,79,80
 239 328 239 328 239 383 c 0,81,82
 239 433 239 433 186 433 c 0,83,84
 127 433 127 433 135 377 c 1,85,86
 141 367 141 367 151 367 c 0,87,88
 164 367 164 367 164 375 c 1,89,90
 180 375 180 375 180 375 c 1,91,-1
 179 355 l 1,92,93
 167 355 167 355 134.5 354 c 128,-1,94
 102 353 102 353 13 353 c 1,0,1
509 697 m 256,95,96
 509 714 509 714 492 733 c 128,-1,97
 475 752 475 752 459 752 c 0,98,99
 442 752 442 752 430 735.5 c 128,-1,100
 418 719 418 719 418 700 c 0,101,102
 418 685 418 685 435.5 667.5 c 128,-1,103
 453 650 453 650 468 650 c 0,104,105
 485 650 485 650 497 665 c 128,-1,106
 509 680 509 680 509 697 c 256,95,96
11 665 m 1,107,108
 9 655 9 655 20 648 c 128,-1,109
 31 641 31 641 42 641 c 2,110,-1
 369 641 l 1,111,112
 330 652 330 652 330 714 c 0,113,114
 330 742 330 742 344 766 c 0,115,116
 368 807 368 807 424 807 c 0,117,118
 474 807 474 807 506 779 c 128,-1,119
 538 751 538 751 538 701 c 0,120,121
 538 561 538 561 347 561 c 2,122,-1
 1 561 l 1,123,-1
 1 638 l 1,124,-1
 1 638 l 1,125,-1
 1 680 l 2,126,127
 1 697 1 697 18 697 c 256,128,129
 35 697 35 697 35 680 c 0,130,131
 35 664 35 664 18 664 c 0,132,133
 14 664 14 664 11 665 c 1,107,108
EndSplineSet
EndChar

StartChar: U0C60
Encoding: 3168 3168 102
Width: 1588
GlyphClass: 2
Flags: W
LayerCount: 2
Fore
SplineSet
387 486 m 1,0,-1
 448 486 l 2,1,2
 519 486 519 486 559 394 c 0,3,4
 589 324 589 324 589 241 c 0,5,6
 589 129 589 129 553 72 c 0,7,8
 532 39 532 39 481 10 c 0,9,10
 436 -15 436 -15 427 -41 c 1,11,12
 417 -11 417 -11 373 14 c 0,13,14
 322 44 322 44 309 61 c 1,15,16
 295 42 295 42 241 11 c 0,17,18
 194 -15 194 -15 188 -41 c 1,19,20
 176 -15 176 -15 125 7 c 0,21,22
 62 34 62 34 42 53 c 0,23,24
 0 91 0 91 0 164 c 0,25,26
 0 215 0 215 31 256 c 128,-1,27
 62 297 62 297 112 308 c 1,28,29
 156 316 156 316 200 325 c 1,30,31
 254 342 254 342 254 384 c 0,32,33
 254 439 254 439 200 439 c 0,34,35
 174 439 174 439 155.5 426.5 c 128,-1,36
 137 414 137 414 137 391 c 0,37,38
 137 367 137 367 157 367 c 0,39,40
 168 367 168 367 169 375 c 1,41,42
 187 375 187 375 187 375 c 1,43,-1
 187 349 l 1,44,-1
 20 349 l 1,45,-1
 20 363 l 1,46,47
 17 419 17 419 64 458 c 0,48,49
 108 494 108 494 167 494 c 0,50,51
 305 494 305 494 305 375 c 0,52,53
 305 327 305 327 256 305 c 1,54,55
 210 291 210 291 165 277 c 1,56,57
 116 260 116 260 116 224 c 0,58,59
 116 197 116 197 149 182 c 0,60,61
 175 170 175 170 206 170 c 0,62,63
 287 170 287 170 305 271 c 1,64,-1
 330 271 l 1,65,66
 330 172 330 172 429 172 c 0,67,68
 477 172 477 172 504 208 c 1,69,70
 527 241 527 241 527 290 c 0,71,72
 527 336 527 336 509 371 c 0,73,74
 488 412 488 412 452 412 c 0,75,76
 419 412 419 412 419 390 c 1,77,-1
 386 390 l 1,78,-1
 387 486 l 1,0,-1
1414 252 m 0,79,80
 1414 314 1414 314 1353 314 c 0,81,82
 1334 314 1334 314 1313 292.5 c 128,-1,83
 1292 271 1292 271 1292 252 c 0,84,85
 1292 228 1292 228 1310.5 209 c 128,-1,86
 1329 190 1329 190 1353 190 c 0,87,88
 1378 190 1378 190 1396 208 c 128,-1,89
 1414 226 1414 226 1414 252 c 0,79,80
1007 415 m 2,90,-1
 992 415 l 2,91,92
 973 415 973 415 973 398 c 1,93,-1
 945 398 l 1,94,-1
 945 496 l 1,95,-1
 1308 496 l 2,96,97
 1396 496 1396 496 1452 440.5 c 128,-1,98
 1508 385 1508 385 1508 297 c 0,99,100
 1508 222 1508 222 1463 167 c 0,101,102
 1416 109 1416 109 1344 109 c 0,103,104
 1288 109 1288 109 1253 144 c 128,-1,105
 1218 179 1218 179 1218 236 c 0,106,107
 1218 296 1218 296 1257.5 337.5 c 128,-1,108
 1297 379 1297 379 1356 379 c 0,109,110
 1419 379 1419 379 1462 336 c 1,111,112
 1445 415 1445 415 1360 416 c 2,113,-1
 1136 417 l 1,114,115
 1184 349 1184 349 1184 258 c 0,116,117
 1184 204 1184 204 1161 146 c 128,-1,118
 1138 88 1138 88 1098 49 c 0,119,120
 1091 42 1091 42 1035 8 c 0,121,122
 993 -17 993 -17 986 -42 c 1,123,124
 975 -17 975 -17 933 4 c 0,125,126
 882 30 882 30 873 38 c 0,127,128
 845 64 845 64 845 102 c 1,129,130
 820 60 820 60 789 36 c 1,131,132
 762 20 762 20 734 4 c 0,133,134
 700 -16 700 -16 692 -42 c 1,135,136
 684 -17 684 -17 641 4 c 0,137,138
 589 30 589 30 582 36 c 0,139,140
 549 69 549 69 549 134 c 0,141,142
 549 192 549 192 583 296 c 1,143,144
 596 236 596 236 628 207 c 1,145,146
 646 185 646 185 710 185 c 0,147,148
 767 185 767 185 801 209 c 0,149,150
 839 237 839 237 839 291 c 0,151,152
 839 404 839 404 720 415 c 1,153,154
 708 415 708 415 704 416 c 0,155,156
 700 416 700 416 696 416 c 0,157,158
 677 416 677 416 677 398 c 1,159,-1
 650 398 l 1,160,161
 650 418 650 418 651 446 c 0,162,163
 651 473 651 473 651 495 c 1,164,165
 668 497 668 497 684 497 c 0,166,167
 773 497 773 497 830 430 c 1,168,169
 883 370 883 370 890 278 c 1,170,-1
 926 215 l 1,171,172
 949 185 949 185 1004 185 c 0,173,174
 1061 185 1061 185 1095 209 c 0,175,176
 1134 237 1134 237 1134 291 c 0,177,178
 1134 344 1134 344 1095 381 c 1,179,180
 1057 415 1057 415 1007 415 c 2,90,-1
EndSplineSet
EndChar

StartChar: U0C61
Encoding: 3169 3169 103
Width: 1213
GlyphClass: 2
Flags: W
LayerCount: 2
Fore
SplineSet
979 468 m 2,0,-1
 651 467 l 1,1,-1
 651 452 l 1,2,3
 644 452 644 452 633 453 c 0,4,5
 623 453 623 453 613 453 c 1,6,-1
 613 533 l 1,7,-1
 926 533 l 2,8,9
 1045 533 1045 533 1094 457 c 0,10,11
 1133 398 1133 398 1133 328 c 0,12,13
 1133 233 1133 233 1063 181 c 0,14,15
 1058 177 1058 177 1012 155 c 0,16,17
 978 139 978 139 973 122 c 1,18,19
 966 138 966 138 933 156 c 1,20,21
 891 177 891 177 883 184 c 0,22,23
 835 229 835 229 835 279 c 0,24,25
 835 339 835 339 875 380.5 c 128,-1,26
 915 422 915 422 975 422 c 0,27,28
 1039 422 1039 422 1082 379 c 1,29,30
 1063 468 1063 468 979 468 c 2,0,-1
1032 288 m 0,31,32
 1032 350 1032 350 970 350 c 0,33,34
 951 350 951 350 929.5 335.5 c 128,-1,35
 908 321 908 321 908 288 c 0,36,37
 908 264 908 264 927 245 c 128,-1,38
 946 226 946 226 970 226 c 0,39,40
 996 226 996 226 1014 244 c 128,-1,41
 1032 262 1032 262 1032 288 c 0,31,32
2 424 m 1,42,43
 0 493 0 493 50 539 c 128,-1,44
 100 585 100 585 179 585 c 0,45,46
 219 585 219 585 253 566 c 128,-1,47
 287 547 287 547 311 499 c 1,48,49
 319 547 319 547 359 566 c 128,-1,50
 399 585 399 585 440 585 c 0,51,52
 500 585 500 585 547 540 c 128,-1,53
 594 495 594 495 591 424 c 0,54,55
 589 361 589 361 555.5 317 c 128,-1,56
 522 273 522 273 466 239 c 1,57,58
 424 212 424 212 389.5 177.5 c 128,-1,59
 355 143 355 143 355 108 c 0,60,61
 355 63 355 63 392.5 31.5 c 128,-1,62
 430 0 430 0 482 0 c 0,63,64
 567 0 567 0 619.5 53 c 128,-1,65
 672 106 672 106 709 235 c 0,66,67
 730 310 730 310 721 392 c 1,68,69
 684 493 684 493 636 463 c 1,70,-1
 656 454 l 1,71,72
 670 444 670 444 664 425 c 1,73,74
 644 393 644 393 613 429 c 1,75,-1
 613 533 l 1,76,77
 714 533 714 533 750.5 434.5 c 128,-1,78
 787 336 787 336 770 171 c 1,79,80
 753 60 753 60 712 -5 c 1,81,82
 660 -85 660 -85 569 -108 c 1,83,84
 506 -118 506 -118 485 -158 c 1,85,86
 464 -121 464 -121 376 -89.5 c 128,-1,87
 288 -58 288 -58 279 55 c 1,88,89
 279 140 279 140 326 193.5 c 128,-1,90
 373 247 373 247 428 283 c 0,91,92
 470 311 470 311 494.5 349 c 128,-1,93
 519 387 519 387 519 425 c 0,94,95
 519 458 519 458 496 480.5 c 128,-1,96
 473 503 473 503 440 503 c 0,97,98
 395 503 395 503 364 465 c 128,-1,99
 333 427 333 427 333 392 c 1,100,-1
 286 392 l 1,101,102
 286 427 286 427 254.5 465 c 128,-1,103
 223 503 223 503 179 503 c 0,104,105
 146 503 146 503 123 480.5 c 128,-1,106
 100 458 100 458 100 425 c 0,107,108
 100 409 100 409 123 392 c 1,109,110
 160 380 160 380 160 415 c 1,111,-1
 199 415 l 1,112,-1
 199 347 l 1,113,-1
 17 344 l 1,114,115
 6 373 6 373 2 424 c 1,42,43
EndSplineSet
EndChar

StartChar: uni0C62
Encoding: 3170 3170 104
Width: 0
GlyphClass: 2
Flags: W
LayerCount: 2
Fore
SplineSet
-515 -204 m 1,0,1
 -516 -165 -516 -165 -486 -138.5 c 128,-1,2
 -456 -112 -456 -112 -408 -112 c 0,3,4
 -384 -112 -384 -112 -363.5 -123 c 128,-1,5
 -343 -134 -343 -134 -328 -161 c 1,6,7
 -323 -134 -323 -134 -299 -123 c 128,-1,8
 -275 -112 -275 -112 -250 -112 c 0,9,10
 -214 -112 -214 -112 -185.5 -138 c 128,-1,11
 -157 -164 -157 -164 -159 -204 c 0,12,13
 -160 -241 -160 -241 -180 -266 c 128,-1,14
 -200 -291 -200 -291 -234 -311 c 0,15,16
 -260 -326 -260 -326 -280.5 -346 c 128,-1,17
 -301 -366 -301 -366 -301 -386 c 0,18,19
 -301 -412 -301 -412 -278.5 -430.5 c 128,-1,20
 -256 -449 -256 -449 -225 -449 c 0,21,22
 -173 -449 -173 -449 -141.5 -418 c 128,-1,23
 -110 -387 -110 -387 -87 -313 c 1,24,25
 -75 -270 -75 -270 -80 -223 c 1,26,27
 -89 -186 -89 -186 -131 -182 c 1,28,-1
 -119 -187 l 1,29,30
 -111 -193 -111 -193 -115 -204 c 1,31,32
 -127 -222 -127 -222 -145 -202 c 1,33,-1
 -145 -142 l 1,34,35
 -84 -142 -84 -142 -62 -198.5 c 128,-1,36
 -40 -255 -40 -255 -50 -350 c 1,37,38
 -61 -413 -61 -413 -86 -451 c 0,39,40
 -117 -497 -117 -497 -172 -510 c 1,41,42
 -210 -516 -210 -516 -223 -539 c 1,43,44
 -234 -517 -234 -517 -305 -498 c 128,-1,45
 -376 -479 -376 -479 -382 -414 c 1,46,47
 -382 -353 -382 -353 -335 -325 c 1,48,49
 -268 -288 -268 -288 -260 -283 c 0,50,51
 -243 -273 -243 -273 -217 -247 c 0,52,53
 -202 -233 -202 -233 -202 -204 c 0,54,55
 -202 -185 -202 -185 -216 -172 c 128,-1,56
 -230 -159 -230 -159 -250 -159 c 0,57,58
 -278 -159 -278 -159 -296.5 -181 c 128,-1,59
 -315 -203 -315 -203 -315 -223 c 1,60,-1
 -343 -223 l 1,61,62
 -343 -203 -343 -203 -362 -181 c 128,-1,63
 -381 -159 -381 -159 -408 -159 c 0,64,65
 -428 -159 -428 -159 -442 -172 c 128,-1,66
 -456 -185 -456 -185 -456 -204 c 0,67,68
 -456 -213 -456 -213 -442 -223 c 1,69,70
 -419 -230 -419 -230 -419 -210 c 1,71,-1
 -396 -210 l 1,72,-1
 -396 -249 l 1,73,-1
 -506 -250 l 1,74,75
 -513 -234 -513 -234 -515 -204 c 1,0,1
EndSplineSet
EndChar

StartChar: uni0C63
Encoding: 3171 3171 105
Width: 0
GlyphClass: 2
Flags: W
LayerCount: 2
Fore
SplineSet
57 -179 m 2,0,-1
 -133 -179 l 1,1,-1
 -133 -187 l 1,2,3
 -137 -187 -137 -187 -144 -187 c 0,4,5
 -150 -187 -150 -187 -156 -187 c 1,6,-1
 -156 -140 l 1,7,-1
 26 -140 l 2,8,9
 95 -140 95 -140 124 -184 c 0,10,11
 146 -219 146 -219 146 -260 c 0,12,13
 146 -315 146 -315 106 -345 c 0,14,15
 103 -348 103 -348 76 -360 c 1,16,17
 57 -370 57 -370 54 -380 c 1,18,19
 49 -371 49 -371 31 -360 c 1,20,21
 6 -348 6 -348 1 -343 c 0,22,23
 -28 -317 -28 -317 -28 -289 c 0,24,25
 -28 -253 -28 -253 -4 -229 c 128,-1,26
 20 -205 20 -205 55 -205 c 0,27,28
 93 -205 93 -205 118 -230 c 1,29,30
 106 -179 106 -179 57 -179 c 2,0,-1
88 -284 m 0,31,32
 88 -247 88 -247 52 -247 c 0,33,34
 41 -247 41 -247 28.5 -255.5 c 128,-1,35
 16 -264 16 -264 16 -284 c 0,36,37
 16 -297 16 -297 27.5 -307.5 c 128,-1,38
 39 -318 39 -318 52 -318 c 0,39,40
 68 -318 68 -318 78 -308 c 128,-1,41
 88 -298 88 -298 88 -284 c 0,31,32
-511 -204 m 1,42,43
 -512 -164 -512 -164 -483 -137.5 c 128,-1,44
 -454 -111 -454 -111 -408 -111 c 0,45,46
 -385 -111 -385 -111 -365 -121.5 c 128,-1,47
 -345 -132 -345 -132 -331 -161 c 1,48,49
 -326 -132 -326 -132 -303 -121.5 c 128,-1,50
 -280 -111 -280 -111 -256 -111 c 0,51,52
 -221 -111 -221 -111 -193.5 -137 c 128,-1,53
 -166 -163 -166 -163 -168 -204 c 0,54,55
 -169 -241 -169 -241 -188.5 -266.5 c 128,-1,56
 -208 -292 -208 -292 -241 -312 c 0,57,58
 -266 -328 -266 -328 -285.5 -348 c 128,-1,59
 -305 -368 -305 -368 -305 -388 c 0,60,61
 -305 -414 -305 -414 -283.5 -432.5 c 128,-1,62
 -262 -451 -262 -451 -231 -451 c 0,63,64
 -182 -451 -182 -451 -151.5 -419.5 c 128,-1,65
 -121 -388 -121 -388 -99 -314 c 1,66,67
 -87 -269 -87 -269 -93 -222 c 1,68,69
 -115 -164 -115 -164 -142 -181 c 1,70,-1
 -131 -186 l 1,71,72
 -123 -193 -123 -193 -126 -203 c 1,73,74
 -137 -222 -137 -222 -156 -201 c 1,75,-1
 -156 -140 l 1,76,77
 -97 -140 -97 -140 -75.5 -197.5 c 128,-1,78
 -54 -255 -54 -255 -63 -351 c 1,79,80
 -75 -416 -75 -416 -97 -454 c 1,81,82
 -128 -500 -128 -500 -181 -513 c 1,83,84
 -218 -519 -218 -519 -230 -543 c 1,85,86
 -243 -521 -243 -521 -293.5 -502.5 c 128,-1,87
 -344 -484 -344 -484 -350 -419 c 1,88,89
 -350 -370 -350 -370 -322.5 -338.5 c 128,-1,90
 -295 -307 -295 -307 -263 -286 c 1,91,92
 -239 -269 -239 -269 -224.5 -247 c 128,-1,93
 -210 -225 -210 -225 -210 -203 c 0,94,95
 -210 -184 -210 -184 -223.5 -171.5 c 128,-1,96
 -237 -159 -237 -159 -256 -159 c 0,97,98
 -283 -159 -283 -159 -300.5 -180.5 c 128,-1,99
 -318 -202 -318 -202 -318 -222 c 1,100,-1
 -346 -222 l 1,101,102
 -346 -202 -346 -202 -364 -180.5 c 128,-1,103
 -382 -159 -382 -159 -408 -159 c 0,104,105
 -426 -159 -426 -159 -440 -171.5 c 128,-1,106
 -454 -184 -454 -184 -454 -203 c 0,107,108
 -454 -213 -454 -213 -441 -222 c 1,109,110
 -419 -230 -419 -230 -419 -210 c 1,111,-1
 -396 -210 l 1,112,-1
 -396 -249 l 1,113,-1
 -502 -250 l 1,114,115
 -509 -233 -509 -233 -511 -204 c 1,42,43
EndSplineSet
EndChar

StartChar: U0C66
Encoding: 3174 3174 106
Width: 622
GlyphClass: 2
Flags: W
LayerCount: 2
Fore
SplineSet
542 246 m 0,0,1
 542 177 542 177 504.5 120 c 128,-1,2
 467 63 467 63 403 31 c 1,3,4
 365 16 365 16 327 2 c 0,5,6
 279 -17 279 -17 270 -41 c 1,7,8
 261 -17 261 -17 208 4 c 0,9,10
 130 35 130 35 125 37 c 0,11,12
 0 111 0 111 0 246 c 0,13,14
 0 354 0 354 83 425 c 0,15,16
 161 493 161 493 270 493 c 256,17,18
 379 493 379 493 459 425 c 1,19,20
 542 353 542 353 542 246 c 0,0,1
431 309 m 256,21,22
 431 372 431 372 383 411 c 128,-1,23
 335 450 335 450 270 450 c 256,24,25
 205 450 205 450 159 412 c 0,26,27
 109 372 109 372 109 309 c 256,28,29
 109 246 109 246 159 203 c 0,30,31
 206 163 206 163 270 163 c 0,32,33
 335 163 335 163 383 204.5 c 128,-1,34
 431 246 431 246 431 309 c 256,21,22
EndSplineSet
EndChar

StartChar: U0C67
Encoding: 3175 3175 107
Width: 643
GlyphClass: 2
Flags: W
LayerCount: 2
Fore
SplineSet
253 19 m 1,0,-1
 253 0 l 1,1,-1
 73 1 l 1,2,3
 29 66 29 66 17 99 c 0,4,5
 0 144 0 144 0 216 c 0,6,7
 0 304 0 304 71 393 c 0,8,9
 151 493 151 493 260 493 c 0,10,11
 395 493 395 493 477 420 c 1,12,13
 563 341 563 341 563 198 c 0,14,15
 563 136 563 136 509 2 c 1,16,-1
 367 2 l 1,17,18
 386 47 386 47 408 120 c 0,19,20
 433 204 433 204 439 252 c 0,21,22
 441 264 441 264 441 278 c 0,23,24
 441 343 441 343 413 390 c 0,25,26
 379 449 379 449 315 449 c 0,27,28
 234 449 234 449 184 385 c 1,29,30
 137 328 137 328 137 249 c 0,31,32
 137 193 137 193 158 132 c 1,33,34
 178 77 178 77 205 40 c 0,35,36
 227 11 227 11 232 19 c 1,37,-1
 253 19 l 1,0,-1
EndSplineSet
EndChar

StartChar: U0C68
Encoding: 3176 3176 108
Width: 654
GlyphClass: 2
Flags: W
LayerCount: 2
Fore
SplineSet
593 180 m 1,0,1
 570 157 570 157 541 97 c 1,2,3
 524 67 524 67 512 55 c 1,4,5
 468 4 468 4 381 -9 c 1,6,-1
 -3 -9 l 1,7,-1
 -3 144 l 1,8,-1
 23 144 l 1,9,10
 23 128 23 128 25.5 124 c 128,-1,11
 28 120 28 120 45 120 c 2,12,-1
 309 121 l 2,13,14
 398 122 398 122 438 163 c 1,15,16
 486 218 486 218 478 294 c 1,17,18
 474 354 474 354 449 398 c 1,19,20
 416 459 416 459 328 469 c 1,21,22
 334 446 334 446 334 433 c 1,23,24
 330 382 330 382 282 352 c 1,25,26
 244 334 244 334 198 335 c 0,27,28
 161 335 161 335 130.5 361 c 128,-1,29
 100 387 100 387 108 434 c 1,30,31
 125 506 125 506 252 513 c 0,32,33
 417 523 417 523 490 430 c 1,34,35
 523 384 523 384 547 323 c 1,36,37
 559 285 559 285 568 259.5 c 128,-1,38
 577 234 577 234 585.5 218 c 128,-1,39
 594 202 594 202 610 192 c 1,40,-1
 593 180 l 1,0,1
264 431 m 0,41,42
 264 447 264 447 255 460.5 c 128,-1,43
 246 474 246 474 215 474 c 0,44,45
 181 473 181 473 175 439 c 0,46,47
 172 419 172 419 185 408.5 c 128,-1,48
 198 398 198 398 216 399 c 1,49,50
 264 399 264 399 264 431 c 0,41,42
EndSplineSet
EndChar

StartChar: U0C69
Encoding: 3177 3177 109
Width: 542
GlyphClass: 2
Flags: W
LayerCount: 2
Fore
SplineSet
214 350 m 1,0,1
 213 354 213 354 213 358 c 0,2,3
 213 375 213 375 229 375 c 0,4,5
 246 375 246 375 246 358 c 0,6,7
 246 340 246 340 229 340 c 2,8,-1
 26 340 l 1,9,10
 22 430 22 430 92 475 c 0,11,12
 150 513 150 513 242 513 c 0,13,14
 322 513 322 513 382 485 c 0,15,16
 462 449 462 449 462 377 c 0,17,18
 462 333 462 333 424 306 c 1,19,20
 490 272 490 272 490 196 c 0,21,22
 490 114 490 114 408 56 c 0,23,24
 386 41 386 41 310 12 c 1,25,26
 245 -11 245 -11 231 -32 c 1,27,28
 221 -12 221 -12 163 8 c 1,29,30
 90 35 90 35 75 44 c 0,31,32
 0 91 0 91 0 167 c 0,33,34
 0 203 0 203 18 238 c 0,35,36
 39 277 39 277 69 286 c 1,37,38
 64 275 64 275 64 246 c 0,39,40
 64 199 64 199 121 168 c 0,41,42
 169 142 169 142 218 142 c 0,43,44
 266 142 266 142 303 158 c 0,45,46
 353 181 353 181 353 223 c 0,47,48
 353 252 353 252 329 269 c 0,49,50
 308 284 308 284 279 284 c 0,51,52
 243 284 243 284 229 262 c 1,53,-1
 229 311 l 1,54,55
 236 310 236 310 245 310 c 0,56,57
 333 310 333 310 333 386 c 0,58,59
 333 452 333 452 254 452 c 0,60,61
 222 452 222 452 202 433 c 128,-1,62
 182 414 182 414 182 386 c 0,63,64
 182 372 182 372 187.5 359 c 128,-1,65
 193 346 193 346 214 350 c 1,0,1
EndSplineSet
EndChar

StartChar: U0C6A
Encoding: 3178 3178 110
Width: 524
GlyphClass: 2
Flags: W
LayerCount: 2
Fore
SplineSet
480 172 m 0,0,1
 480 80 480 80 390 32 c 1,2,3
 351 17 351 17 312 2 c 0,4,5
 260 -18 260 -18 251 -41 c 1,6,7
 241 -19 241 -19 183 1 c 0,8,9
 101 30 101 30 92 34 c 0,10,11
 19 74 19 74 19 150 c 0,12,13
 19 229 19 229 102 274 c 1,14,15
 58 290 58 290 32 316 c 128,-1,16
 6 342 6 342 0 386 c 1,17,18
 0 432 0 432 27 468 c 1,19,20
 51 493 51 493 91 503 c 1,21,22
 153 514 153 514 160.5 485 c 128,-1,23
 168 456 168 456 116 457 c 128,-1,24
 64 458 64 458 63 394 c 1,25,26
 72 315 72 315 238 305 c 1,27,28
 300 300 300 300 348 326 c 128,-1,29
 396 352 396 352 400 395 c 1,30,31
 400 434 400 434 371 450 c 1,32,33
 353 458 353 458 322 460 c 0,34,35
 300 462 300 462 302 482 c 1,36,37
 303 506 303 506 339 504 c 0,38,39
 461 494 461 494 467 391 c 1,40,41
 467 320 467 320 372 275 c 1,42,43
 480 258 480 258 480 172 c 0,0,1
353 187 m 0,44,45
 353 257 353 257 251 257 c 0,46,47
 216 257 216 257 187 240 c 0,48,49
 152 220 152 220 152 188 c 0,50,51
 152 117 152 117 254 117 c 0,52,53
 285 117 285 117 317 136 c 0,54,55
 353 158 353 158 353 187 c 0,44,45
EndSplineSet
EndChar

StartChar: U0C6B
Encoding: 3179 3179 111
Width: 547
GlyphClass: 2
Flags: W
LayerCount: 2
Fore
SplineSet
146 60 m 1,0,1
 245 123 245 123 294.5 171 c 128,-1,2
 344 219 344 219 369 268 c 1,3,4
 325 298 325 298 296.5 334 c 128,-1,5
 268 370 268 370 263 409 c 0,6,7
 257 451 257 451 284 484 c 128,-1,8
 311 517 311 517 353 522 c 0,9,10
 395 528 395 528 428.5 500 c 128,-1,11
 462 472 462 472 467 428 c 1,12,13
 473 389 473 389 461.5 356.5 c 128,-1,14
 450 324 450 324 423 294 c 1,15,16
 446 278 446 278 466.5 255.5 c 128,-1,17
 487 233 487 233 501 194 c 1,18,19
 512 139 512 139 498 108 c 128,-1,20
 484 77 484 77 467.5 64 c 128,-1,21
 451 51 451 51 428 43 c 1,22,23
 400 36 400 36 390 16 c 1,24,25
 379 35 379 35 350 41 c 1,26,27
 313 50 313 50 302 70 c 1,28,29
 388 63 388 63 416.5 97 c 128,-1,30
 445 131 445 131 441 181 c 0,31,32
 438 208 438 208 428 224.5 c 128,-1,33
 418 241 418 241 408 248 c 1,34,35
 344 131 344 131 177 52 c 1,36,37
 164 58 164 58 146 60 c 1,0,1
387 339 m 1,38,39
 408 345 408 345 414.5 372 c 128,-1,40
 421 399 421 399 418 421 c 0,41,42
 414 449 414 449 398 465 c 128,-1,43
 382 481 382 481 359 478 c 256,44,45
 336 475 336 475 322.5 457.5 c 128,-1,46
 309 440 309 440 312 416 c 0,47,48
 316 387 316 387 337.5 360 c 128,-1,49
 359 333 359 333 387 339 c 1,38,39
288 228 m 1,50,51
 258 198 258 198 212 86 c 1,52,53
 175 0 175 0 81 0 c 0,54,55
 77 0 77 0 74 0 c 0,56,57
 47 0 47 0 6 12 c 1,58,59
 93 33 93 33 130 103 c 1,60,61
 171 171 171 171 175 242 c 1,62,63
 173 332 173 332 142 385 c 0,64,65
 95 467 95 467 8 469 c 1,66,67
 15 476 15 476 25 480 c 0,68,69
 50 492 50 492 79 492 c 128,-1,70
 108 492 108 492 142 480 c 0,71,72
 193 462 193 462 223 416 c 1,73,74
 246 376 246 376 258 333 c 128,-1,75
 270 290 270 290 279 273 c 0,76,77
 290 253 290 253 308 242 c 1,78,-1
 288 228 l 1,50,51
EndSplineSet
EndChar

StartChar: U0C6C
Encoding: 3180 3180 112
Width: 685
GlyphClass: 2
Flags: W
LayerCount: 2
Fore
SplineSet
552 146 m 2,0,1
 572 146 572 146 574.5 150.5 c 128,-1,2
 577 155 577 155 577 173 c 1,3,-1
 607 173 l 1,4,-1
 607 0 l 1,5,-1
 171 0 l 2,6,7
 101 0 101 0 63 57 c 1,8,9
 48 89 48 89 34 119 c 1,10,11
 12 159 12 159 -9 167 c 1,12,13
 12 174 12 174 30 221 c 1,14,15
 50 279 50 279 55 284 c 0,16,17
 72 302 72 302 88 306 c 1,18,19
 79 312 79 312 50 352 c 0,20,21
 27 385 27 385 7 389 c 1,22,23
 27 396 27 396 50 428 c 1,24,25
 79 465 79 465 88 472 c 0,26,27
 120 499 120 499 169 499 c 2,28,-1
 426 499 l 1,29,-1
 426 432 l 1,30,-1
 172 432 l 1,31,32
 120 436 120 436 120 391 c 0,33,34
 120 353 120 353 176 353 c 2,35,-1
 425 353 l 1,36,-1
 425 241 l 1,37,-1
 154 241 l 2,38,39
 96 241 96 241 96 193 c 0,40,41
 96 147 96 147 156 147 c 2,42,-1
 552 146 l 2,0,1
EndSplineSet
EndChar

StartChar: U0C6D
Encoding: 3181 3181 113
Width: 498
GlyphClass: 2
Flags: W
LayerCount: 2
Fore
SplineSet
315 227 m 1,0,-1
 421 227 l 1,1,2
 454 184 454 184 454 142 c 0,3,4
 454 91 454 91 408 59 c 0,5,6
 395 51 395 51 313 14 c 0,7,8
 254 -12 254 -12 237 -44 c 1,9,10
 214 -8 214 -8 152 23 c 0,11,12
 74 62 74 62 56 77 c 0,13,14
 10 115 10 115 10 180 c 0,15,16
 10 260 10 260 104 296 c 0,17,18
 169 320 169 320 266 320 c 0,19,20
 369 320 369 320 369 377 c 0,21,22
 369 442 369 442 248 442 c 0,23,24
 218 442 218 442 195 432 c 0,25,26
 165 420 165 420 165 394 c 0,27,28
 165 373 165 373 191 373 c 1,29,-1
 191 350 l 1,30,-1
 33 350 l 1,31,32
 33 423 33 423 102 464 c 1,33,34
 160 497 160 497 239 497 c 0,35,36
 336 497 336 497 384 477 c 0,37,38
 451 449 451 449 451 375 c 0,39,40
 451 320 451 320 371 293 c 0,41,42
 318 275 318 275 246 274 c 0,43,44
 187 273 187 273 162 264 c 0,45,46
 119 248 119 248 119 202 c 0,47,48
 119 145 119 145 235 145 c 0,49,50
 339 145 339 145 339 183 c 0,51,52
 339 204 339 204 315 207 c 1,53,-1
 315 227 l 1,0,-1
EndSplineSet
EndChar

StartChar: U0C6E
Encoding: 3182 3182 114
Width: 740
GlyphClass: 2
Flags: W
LayerCount: 2
Fore
SplineSet
205 514 m 1,0,1
 178 495 178 495 160 464 c 0,2,3
 138 427 138 427 123 372 c 0,4,5
 110 323 110 323 115 267 c 1,6,7
 132 183 132 183 183 124 c 1,8,9
 221 76 221 76 281 65 c 1,10,11
 361 66 361 66 400 119 c 1,12,13
 436 164 436 164 444 213 c 1,14,15
 448 244 448 244 449 275 c 1,16,17
 449 325 449 325 434 394 c 1,18,19
 412 467 412 467 393 512 c 1,20,-1
 489 513 l 1,21,22
 543 379 543 379 553 311 c 0,23,24
 572 170 572 170 488 70 c 0,25,26
 440 12 440 12 352 -18 c 0,27,28
 309 -32 309 -32 279 -66 c 1,29,30
 240 -33 240 -33 193 -15 c 0,31,32
 88 26 88 26 37 115 c 1,33,34
 -6 204 -6 204 -4 303 c 1,35,36
 0 371 0 371 17 416 c 0,37,38
 29 449 29 449 73 514 c 1,39,-1
 205 514 l 1,40,-1
 205 514 l 1,0,1
EndSplineSet
EndChar

StartChar: U0C6F
Encoding: 3183 3183 115
Width: 697
GlyphClass: 2
Flags: W
LayerCount: 2
Fore
SplineSet
156 335 m 2,0,1
 96 335 96 335 96 289 c 0,2,3
 96 241 96 241 154 241 c 2,4,-1
 425 241 l 1,5,-1
 425 129 l 1,6,-1
 176 129 l 2,7,8
 120 129 120 129 120 91 c 0,9,10
 120 46 120 46 172 50 c 1,11,-1
 426 50 l 1,12,-1
 426 -17 l 1,13,-1
 169 -17 l 2,14,15
 120 -17 120 -17 88 10 c 0,16,17
 79 17 79 17 50 54 c 1,18,19
 27 86 27 86 7 93 c 1,20,21
 27 97 27 97 50 130 c 0,22,23
 79 170 79 170 88 176 c 1,24,25
 72 180 72 180 55 198 c 0,26,27
 50 203 50 203 30 261 c 1,28,29
 12 308 12 308 -9 315 c 1,30,31
 12 323 12 323 34 363 c 1,32,33
 48 393 48 393 63 425 c 1,34,35
 101 482 101 482 171 482 c 2,36,-1
 607 482 l 1,37,-1
 607 309 l 1,38,-1
 577 309 l 1,39,40
 577 327 577 327 574.5 331.5 c 128,-1,41
 572 336 572 336 552 336 c 2,42,-1
 156 335 l 2,0,1
EndSplineSet
EndChar

StartChar: uni0C78
Encoding: 3192 3192 116
Width: 707
GlyphClass: 2
Flags: W
LayerCount: 2
Fore
SplineSet
330 622 m 0,0,1
 279 622 279 622 238 605.5 c 128,-1,2
 197 589 197 589 164 556 c 0,3,4
 96 489 96 489 96 378 c 0,5,6
 96 268 96 268 166 198 c 1,7,8
 232 128 232 128 326 128 c 0,9,10
 437 128 437 128 502 196 c 1,11,12
 570 262 570 262 570 373 c 0,13,14
 570 429 570 429 552.5 474.5 c 128,-1,15
 535 520 535 520 499 554 c 1,16,17
 430 622 430 622 330 622 c 0,0,1
569 178 m 1,18,19
 667 140 667 140 667 80 c 0,20,21
 667 2 667 2 508 -58 c 0,22,23
 444 -82 444 -82 393 -94 c 128,-1,24
 342 -106 342 -106 300 -107 c 1,25,-1
 292 -84 l 1,26,-1
 286 -60 l 1,27,28
 320 -60 320 -60 367 -50 c 128,-1,29
 414 -40 414 -40 475 -19 c 0,30,31
 620 30 620 30 620 79 c 0,32,33
 620 116 620 116 527 142 c 1,34,35
 448 75 448 75 338 75 c 0,36,37
 206 75 206 75 118 168 c 1,38,39
 34 255 34 255 34 378 c 0,40,41
 34 506 34 506 118 596 c 0,42,43
 202 685 202 685 326 685 c 0,44,45
 392 685 392 685 448 661 c 128,-1,46
 504 637 504 637 546 593 c 1,47,48
 585 550 585 550 606.5 494.5 c 128,-1,49
 628 439 628 439 628 376 c 0,50,51
 628 266 628 266 567 186 c 1,52,-1
 569 178 l 1,18,19
EndSplineSet
EndChar

StartChar: uni0C79
Encoding: 3193 3193 117
Width: 161
GlyphClass: 2
Flags: W
LayerCount: 2
Fore
SplineSet
110 0 m 1,0,-1
 38 0 l 1,1,-1
 38 684 l 1,2,-1
 110 684 l 1,3,-1
 110 0 l 1,0,-1
EndSplineSet
EndChar

StartChar: uni0C7A
Encoding: 3194 3194 118
Width: 633
GlyphClass: 2
Flags: W
LayerCount: 2
Fore
SplineSet
408 266 m 1,0,-1
 407 172 l 1,1,2
 408 163 408 163 410 157 c 1,3,4
 409 128 409 128 427 109 c 1,5,6
 447 97 447 97 464 100 c 0,7,8
 512 109 512 109 504 151 c 1,9,10
 524 150 524 150 532 125 c 1,11,12
 553 16 553 16 457 -2 c 0,13,14
 415 -10 415 -10 382 7 c 1,15,16
 348 27 348 27 344 80 c 2,17,-1
 332 271 l 1,18,19
 326 227 326 227 286 205 c 1,20,21
 274 197 274 197 223 177 c 1,22,23
 182 159 182 159 178 142 c 1,24,25
 171 159 171 159 126 177 c 0,26,27
 74 198 74 198 61 211 c 1,28,29
 2 252 2 252 0 392 c 1,30,31
 1 404 1 404 1 424 c 2,32,-1
 1 690 l 1,33,-1
 75 690 l 1,34,-1
 75 432 l 2,35,36
 75 402 75 402 93 380 c 0,37,38
 117 351 117 351 168 350 c 1,39,-1
 332 351 l 1,40,-1
 332 686 l 1,41,-1
 407 686 l 1,42,-1
 408 266 l 1,0,-1
EndSplineSet
EndChar

StartChar: uni0C7B
Encoding: 3195 3195 119
Width: 836
GlyphClass: 2
Flags: W
LayerCount: 2
Fore
SplineSet
170 308 m 2,0,1
 148 308 148 308 127.5 315 c 128,-1,2
 107 322 107 322 90 334 c 0,3,4
 64 352 64 352 51.5 383 c 128,-1,5
 39 414 39 414 39 456 c 2,6,-1
 39 693 l 1,7,-1
 111 693 l 1,8,-1
 111 464 l 2,9,10
 111 433 111 433 128 412 c 0,11,12
 140 398 140 398 158.5 391 c 128,-1,13
 177 384 177 384 200 384 c 2,14,-1
 282 384 l 2,15,16
 324 384 324 384 342 406 c 0,17,18
 348 412 348 412 338 431 c 1,19,20
 338 434 338 434 338 456 c 2,21,-1
 338 694 l 1,22,-1
 410 694 l 1,23,-1
 410 464 l 2,24,25
 410 436 410 436 429 412 c 0,26,27
 452 384 452 384 502 384 c 2,28,-1
 668 384 l 1,29,-1
 668 688 l 1,30,-1
 740 688 l 1,31,-1
 740 0 l 1,32,-1
 668 0 l 1,33,-1
 668 309 l 1,34,-1
 470 309 l 1,35,36
 431 348 431 348 376 348 c 0,37,38
 319 348 319 348 300 309 c 1,39,-1
 170 308 l 2,0,1
EndSplineSet
EndChar

StartChar: uni0C7C
Encoding: 3196 3196 120
Width: 797
GlyphClass: 2
Flags: W
LayerCount: 2
Fore
SplineSet
35 309 m 1,0,-1
 35 383 l 1,1,-1
 758 383 l 1,2,-1
 758 309 l 1,3,-1
 35 309 l 1,0,-1
EndSplineSet
EndChar

StartChar: uni0C7D
Encoding: 3197 3197 121
Width: 750
GlyphClass: 2
Flags: W
LayerCount: 2
Fore
SplineSet
135 302 m 1,0,1
 134 305 134 305 134 308 c 0,2,3
 134 322 134 322 147 322 c 0,4,5
 161 322 161 322 161 308 c 0,6,7
 161 301 161 301 147 294 c 0,8,9
 110 274 110 274 82 274 c 0,10,11
 43 274 43 274 13 312 c 1,12,13
 15 345 15 345 41 374 c 0,14,15
 97 434 97 434 226 434 c 0,16,17
 286 434 286 434 339 408 c 0,18,19
 406 376 406 376 406 321 c 0,20,21
 406 214 406 214 230 214 c 0,22,23
 43 214 43 214 43 127 c 0,24,25
 43 104 43 104 52 97 c 1,26,27
 68 140 68 140 109 155 c 0,28,29
 136 165 136 165 191 165 c 0,30,31
 272 165 272 165 416 156 c 0,32,33
 532 148 532 148 544 148 c 0,34,35
 652 148 652 148 652 183 c 0,36,37
 652 191 652 191 642 210 c 1,38,39
 688 198 688 198 688 141 c 0,40,41
 688 97 688 97 658.5 67 c 128,-1,42
 629 37 629 37 540 37 c 0,43,44
 487 37 487 37 367 54 c 0,45,46
 230 73 230 73 171 73 c 0,47,48
 113 73 113 73 91 58 c 1,49,50
 82 55 82 55 72 50 c 0,51,52
 67 47 67 47 67 35 c 1,53,54
 2 54 2 54 2 128 c 0,55,56
 2 165 2 165 24 201 c 0,57,58
 56 256 56 256 148 271 c 1,59,60
 195 276 195 276 243 283 c 1,61,62
 303 295 303 295 303 335 c 0,63,64
 303 355 303 355 272 375 c 128,-1,65
 241 395 241 395 217 395 c 0,66,67
 170 395 170 395 139 376.5 c 128,-1,68
 108 358 108 358 108 333 c 256,69,70
 108 308 108 308 122 304 c 0,71,72
 129 301 129 301 135 302 c 1,0,1
EndSplineSet
EndChar

StartChar: uni0C7E
Encoding: 3198 3198 122
Width: 876
GlyphClass: 2
Flags: W
LayerCount: 2
Fore
SplineSet
798 94 m 1,0,-1
 808 -37 l 1,1,2
 808 -58 808 -58 786 -58 c 256,3,4
 764 -58 764 -58 764 -37 c 256,5,6
 764 -16 764 -16 786 -16 c 0,7,8
 791 -16 791 -16 792 -13 c 0,9,10
 799 -1 799 -1 779 -0.5 c 128,-1,11
 759 0 759 0 753 -1 c 1,12,-1
 180 0 l 2,13,14
 28 0 28 0 28 88 c 0,15,16
 28 116 28 116 54 135.5 c 128,-1,17
 80 155 80 155 130 167 c 2,18,-1
 426 236 l 2,19,20
 507 254 507 254 507 275 c 0,21,22
 507 306 507 306 432 309 c 0,23,24
 366 312 366 312 301 315.5 c 128,-1,25
 236 319 236 319 170 322 c 1,26,-1
 171 322 l 1,27,28
 32 330 32 330 32 396 c 0,29,30
 32 459 32 459 154 484 c 2,31,-1
 424 540 l 2,32,33
 490 554 490 554 490 578 c 0,34,35
 490 591 490 591 480 598.5 c 128,-1,36
 470 606 470 606 452 608 c 0,37,38
 449 609 449 609 435.5 609.5 c 128,-1,39
 422 610 422 610 402 610 c 2,40,-1
 98 610 l 2,41,42
 78 610 78 610 72.5 607 c 128,-1,43
 67 604 67 604 67 592 c 1,44,-1
 34 592 l 1,45,46
 34 599 34 599 34 673 c 1,47,-1
 396 674 l 2,48,49
 522 674 522 674 551 627 c 1,50,51
 563 601 563 601 586 591 c 1,52,53
 563 580 563 580 555 555 c 1,54,55
 536 516 536 516 452 500 c 1,56,-1
 162 437 l 2,57,58
 104 424 104 424 104 399.5 c 128,-1,59
 104 375 104 375 158 368 c 0,60,61
 160 368 160 368 193 368 c 1,62,63
 216 367 216 367 249 366 c 1,64,-1
 248 366 l 1,65,-1
 452 352 l 2,66,67
 478 350 478 350 501 344.5 c 128,-1,68
 524 339 524 339 541 329 c 1,69,70
 566 295 566 295 596 284 c 1,71,72
 578 262 578 262 571.5 255.5 c 128,-1,73
 565 249 565 249 556 234 c 1,74,75
 534 210 534 210 500 202 c 2,76,-1
 174 127 l 1,77,78
 106 110 106 110 106 90 c 0,79,80
 106 62 106 62 172 62 c 0,81,82
 324 62 324 62 479.5 71.5 c 128,-1,83
 635 81 635 81 798 94 c 1,0,-1
EndSplineSet
EndChar

StartChar: uni0C7F
Encoding: 3199 3199 123
Width: 935
GlyphClass: 2
Flags: W
LayerCount: 2
Fore
SplineSet
715 230 m 0,0,1
 771 344 771 344 657 399 c 0,2,3
 638 409 638 409 638 409 c 257,4,5
 638 409 638 409 631 391 c 1,6,7
 623 395 623 395 610 401 c 0,8,9
 597 406 597 406 585 412 c 1,10,11
 588 418 588 418 595 432 c 0,12,13
 597 437 597 437 604 451.5 c 128,-1,14
 611 466 611 466 642 528 c 1,15,16
 700 511 700 511 724 487 c 0,17,18
 855 357 855 357 743 127 c 0,19,20
 681 0 681 0 535 -25 c 1,21,22
 484 -27 484 -27 437 -30 c 0,23,24
 345 -35 345 -35 331 -69 c 1,25,26
 320 -34 320 -34 226 16 c 0,27,28
 118 74 118 74 91 103 c 0,29,30
 0 200 0 200 18 341 c 1,31,32
 33 469 33 469 101 546 c 1,33,34
 179 637 179 637 302 622 c 0,35,36
 392 611 392 611 435 553 c 1,37,38
 464 511 464 511 459 472 c 0,39,40
 452 414 452 414 388 383 c 0,41,42
 331 355 331 355 270 363 c 0,43,44
 213 370 213 370 178 409.5 c 128,-1,45
 143 449 143 449 144 506 c 1,46,47
 135 479 135 479 132 454 c 0,48,49
 106 239 106 239 373 165 c 1,50,51
 466 138 466 138 567 150 c 1,52,53
 680 157 680 157 715 230 c 0,0,1
363 500 m 0,54,55
 366 525 366 525 349 546.5 c 128,-1,56
 332 568 332 568 306 571 c 0,57,58
 239 579 239 579 232 516 c 1,59,60
 228 490 228 490 245 472 c 0,61,62
 266 450 266 450 291 447 c 256,63,64
 316 444 316 444 338 460 c 128,-1,65
 360 476 360 476 363 500 c 0,54,55
EndSplineSet
EndChar

StartChar: afii61664
Encoding: 8204 8204 124
Width: 0
GlyphClass: 2
Flags: W
LayerCount: 2
Fore
SplineSet
0 -414 m 1,0,-1
 0 938 l 1,1,-1
 54 938 l 1,2,-1
 54 -414 l 1,3,-1
 0 -414 l 1,4,-1
 0 -414 l 1,0,-1
EndSplineSet
EndChar

StartChar: afii301
Encoding: 8205 8205 125
Width: 0
GlyphClass: 2
Flags: W
LayerCount: 2
Fore
SplineSet
0 -414 m 1,0,-1
 0 938 l 1,1,-1
 231 938 l 1,2,-1
 231 884 l 1,3,-1
 54 884 l 1,4,-1
 54 -414 l 1,5,-1
 0 -414 l 1,6,-1
 0 -414 l 1,0,-1
EndSplineSet
EndChar

StartChar: uni20B9
Encoding: 8377 8377 126
Width: 624
GlyphClass: 2
Flags: W
LayerCount: 2
Fore
SplineSet
322 495 m 1,0,-1
 93 495 l 1,1,-1
 71 558 l 1,2,-1
 307 558 l 1,3,4
 249 657 249 657 120 653 c 1,5,-1
 101 653 l 1,6,-1
 101 626 l 2,7,8
 101 618 101 618 111 613 c 128,-1,9
 121 608 121 608 126 609 c 1,10,11
 125 612 125 612 125 616 c 0,12,13
 125 633 125 633 141 633 c 0,14,15
 158 633 158 633 158 616 c 256,16,17
 158 599 158 599 141 599 c 2,18,-1
 0 599 l 1,19,-1
 0 717 l 1,20,-1
 544 717 l 1,21,-1
 544 645 l 1,22,23
 531 651 531 651 517 651 c 2,24,-1
 319 653 l 1,25,-1
 322 653 l 1,26,27
 361 630 361 630 387 558 c 1,28,-1
 508 558 l 1,29,-1
 537 495 l 1,30,-1
 399 495 l 1,31,32
 404 405 404 405 338 347 c 1,33,34
 293 319 293 319 285 297 c 1,35,36
 275 318 275 318 227 334 c 1,37,38
 195 338 195 338 149 327 c 1,39,40
 180 230 180 230 285 121 c 1,41,42
 320 96 320 96 344 111 c 0,43,44
 349 115 349 115 357 133 c 1,45,46
 367 86 367 86 328 58 c 1,47,48
 296 37 296 37 260 46.5 c 128,-1,49
 224 56 224 56 153.5 151.5 c 128,-1,50
 83 247 83 247 25 395 c 1,51,52
 357 351 357 351 322 495 c 1,0,-1
EndSplineSet
EndChar

StartChar: minus
Encoding: 8722 8722 127
Width: 640
GlyphClass: 2
Flags: W
LayerCount: 2
Fore
SplineSet
80 -248 m 1,0,-1
 80 312 l 1,1,-1
 560 312 l 1,2,-1
 560 -248 l 1,3,-1
 80 -248 l 1,4,-1
 80 -248 l 1,0,-1
120 -208 m 1,5,-1
 520 -208 l 1,6,-1
 520 272 l 1,7,-1
 120 272 l 1,8,-1
 120 -208 l 1,9,-1
 120 -208 l 1,5,-1
EndSplineSet
EndChar

StartChar: uni25CC
Encoding: 9676 9676 128
Width: 870
GlyphClass: 2
Flags: W
LayerCount: 2
Fore
SplineSet
386 577 m 1,0,1
 386 597 386 597 400.5 611.5 c 128,-1,2
 415 626 415 626 435 626 c 256,3,4
 455 626 455 626 469.5 611.5 c 128,-1,5
 484 597 484 597 484 577 c 256,6,7
 484 557 484 557 469.5 542.5 c 128,-1,8
 455 528 455 528 435 528 c 256,9,10
 415 528 415 528 400.5 542.5 c 128,-1,11
 386 557 386 557 386 577 c 1,12,-1
 386 577 l 1,0,1
386 -60 m 1,13,14
 386 -40 386 -40 400.5 -25.5 c 128,-1,15
 415 -11 415 -11 435 -11 c 256,16,17
 455 -11 455 -11 469.5 -25.5 c 128,-1,18
 484 -40 484 -40 484 -60 c 256,19,20
 484 -80 484 -80 469.5 -94.5 c 128,-1,21
 455 -109 455 -109 435 -109 c 256,22,23
 415 -109 415 -109 400.5 -94.5 c 128,-1,24
 386 -80 386 -80 386 -60 c 1,25,-1
 386 -60 l 1,13,14
68 258 m 1,26,27
 68 278 68 278 82.5 292.5 c 128,-1,28
 97 307 97 307 117 307 c 256,29,30
 137 307 137 307 151.5 292.5 c 128,-1,31
 166 278 166 278 166 258 c 256,32,33
 166 238 166 238 151.5 224 c 128,-1,34
 137 210 137 210 117 210 c 256,35,36
 97 210 97 210 82.5 224 c 128,-1,37
 68 238 68 238 68 258 c 1,38,-1
 68 258 l 1,26,27
705 258 m 1,39,40
 705 278 705 278 719.5 292.5 c 128,-1,41
 734 307 734 307 754 307 c 256,42,43
 774 307 774 307 788 292.5 c 128,-1,44
 802 278 802 278 802 258 c 256,45,46
 802 238 802 238 788 224 c 128,-1,47
 774 210 774 210 754 210 c 256,48,49
 734 210 734 210 719.5 224 c 128,-1,50
 705 238 705 238 705 258 c 1,51,-1
 705 258 l 1,39,40
111 99 m 1,52,53
 111 119 111 119 125.5 133.5 c 128,-1,54
 140 148 140 148 161 148 c 0,55,56
 181 148 181 148 195.5 133.5 c 128,-1,57
 210 119 210 119 210 99 c 256,58,59
 210 79 210 79 195.5 64.5 c 128,-1,60
 181 50 181 50 161 50 c 0,61,62
 140 50 140 50 125.5 64.5 c 128,-1,63
 111 79 111 79 111 99 c 1,64,-1
 111 99 l 1,52,53
662 418 m 1,65,66
 662 438 662 438 676.5 452 c 128,-1,67
 691 466 691 466 711 466 c 256,68,69
 731 466 731 466 745.5 452 c 128,-1,70
 760 438 760 438 760 418 c 256,71,72
 760 398 760 398 745.5 383.5 c 128,-1,73
 731 369 731 369 711 369 c 256,74,75
 691 369 691 369 676.5 383.5 c 128,-1,76
 662 398 662 398 662 418 c 1,77,-1
 662 418 l 1,65,66
546 534 m 1,78,79
 546 554 546 554 560 568.5 c 128,-1,80
 574 583 574 583 594 583 c 256,81,82
 614 583 614 583 628.5 568.5 c 128,-1,83
 643 554 643 554 643 534 c 256,84,85
 643 514 643 514 628.5 500 c 128,-1,86
 614 486 614 486 594 486 c 256,87,88
 574 486 574 486 560 500 c 128,-1,89
 546 514 546 514 546 534 c 1,90,-1
 546 534 l 1,78,79
227 -16 m 1,91,92
 227 4 227 4 241.5 18.5 c 128,-1,93
 256 33 256 33 276 33 c 256,94,95
 296 33 296 33 310.5 18.5 c 128,-1,96
 325 4 325 4 325 -16 c 0,97,98
 325 -37 325 -37 310.5 -51.5 c 128,-1,99
 296 -66 296 -66 276 -66 c 256,100,101
 256 -66 256 -66 241.5 -51.5 c 128,-1,102
 227 -37 227 -37 227 -16 c 1,103,-1
 227 -16 l 1,91,92
111 418 m 1,104,105
 111 438 111 438 125.5 452 c 128,-1,106
 140 466 140 466 161 466 c 0,107,108
 181 466 181 466 195.5 452 c 128,-1,109
 210 438 210 438 210 418 c 256,110,111
 210 398 210 398 195.5 383.5 c 128,-1,112
 181 369 181 369 161 369 c 0,113,114
 140 369 140 369 125.5 383.5 c 128,-1,115
 111 398 111 398 111 418 c 1,116,-1
 111 418 l 1,104,105
662 99 m 1,117,118
 662 119 662 119 676.5 133.5 c 128,-1,119
 691 148 691 148 711 148 c 256,120,121
 731 148 731 148 745.5 133.5 c 128,-1,122
 760 119 760 119 760 99 c 256,123,124
 760 79 760 79 745.5 64.5 c 128,-1,125
 731 50 731 50 711 50 c 256,126,127
 691 50 691 50 676.5 64.5 c 128,-1,128
 662 79 662 79 662 99 c 1,129,-1
 662 99 l 1,117,118
227 534 m 1,130,131
 227 554 227 554 241.5 568.5 c 128,-1,132
 256 583 256 583 276 583 c 256,133,134
 296 583 296 583 310.5 568.5 c 128,-1,135
 325 554 325 554 325 534 c 256,136,137
 325 514 325 514 310.5 500 c 128,-1,138
 296 486 296 486 276 486 c 256,139,140
 256 486 256 486 241.5 500 c 128,-1,141
 227 514 227 514 227 534 c 1,142,-1
 227 534 l 1,130,131
546 -16 m 1,143,144
 546 4 546 4 560 18.5 c 128,-1,145
 574 33 574 33 594 33 c 256,146,147
 614 33 614 33 628.5 18.5 c 128,-1,148
 643 4 643 4 643 -16 c 0,149,150
 643 -37 643 -37 628.5 -51.5 c 128,-1,151
 614 -66 614 -66 594 -66 c 256,152,153
 574 -66 574 -66 560 -51.5 c 128,-1,154
 546 -37 546 -37 546 -16 c 1,155,-1
 546 -16 l 1,143,144
EndSplineSet
EndChar

StartChar: uniFFBC
Encoding: 65468 65468 129
Width: 640
GlyphClass: 2
Flags: W
LayerCount: 2
Fore
SplineSet
80 0 m 1,0,-1
 80 560 l 1,1,-1
 560 560 l 1,2,-1
 560 0 l 1,3,-1
 80 0 l 1,4,-1
 80 0 l 1,0,-1
120 40 m 1,5,-1
 520 40 l 1,6,-1
 520 520 l 1,7,-1
 120 520 l 1,8,-1
 120 40 l 1,9,-1
 120 40 l 1,5,-1
EndSplineSet
EndChar

StartChar: uniFFBD
Encoding: 65469 65469 130
Width: 640
GlyphClass: 2
Flags: W
LayerCount: 2
Fore
SplineSet
80 0 m 1,0,-1
 80 560 l 1,1,-1
 560 560 l 1,2,-1
 560 0 l 1,3,-1
 80 0 l 1,4,-1
 80 0 l 1,0,-1
120 40 m 1,5,-1
 520 40 l 1,6,-1
 520 520 l 1,7,-1
 120 520 l 1,8,-1
 120 40 l 1,9,-1
 120 40 l 1,5,-1
EndSplineSet
EndChar

StartChar: uniFFBE
Encoding: 65470 65470 131
Width: 640
GlyphClass: 2
Flags: W
LayerCount: 2
Fore
SplineSet
80 0 m 1,0,-1
 80 560 l 1,1,-1
 560 560 l 1,2,-1
 560 0 l 1,3,-1
 80 0 l 1,4,-1
 80 0 l 1,0,-1
120 40 m 1,5,-1
 520 40 l 1,6,-1
 520 520 l 1,7,-1
 120 520 l 1,8,-1
 120 40 l 1,9,-1
 120 40 l 1,5,-1
EndSplineSet
EndChar

StartChar: uniFFBF
Encoding: 65471 65471 132
Width: 640
GlyphClass: 2
Flags: W
LayerCount: 2
Fore
SplineSet
80 0 m 1,0,-1
 80 560 l 1,1,-1
 560 560 l 1,2,-1
 560 0 l 1,3,-1
 80 0 l 1,4,-1
 80 0 l 1,0,-1
120 40 m 1,5,-1
 520 40 l 1,6,-1
 520 520 l 1,7,-1
 120 520 l 1,8,-1
 120 40 l 1,9,-1
 120 40 l 1,5,-1
EndSplineSet
EndChar

StartChar: uniFFC0
Encoding: 65472 65472 133
Width: 640
GlyphClass: 2
Flags: W
LayerCount: 2
Fore
SplineSet
80 0 m 1,0,-1
 80 560 l 1,1,-1
 560 560 l 1,2,-1
 560 0 l 1,3,-1
 80 0 l 1,4,-1
 80 0 l 1,0,-1
120 40 m 1,5,-1
 520 40 l 1,6,-1
 520 520 l 1,7,-1
 120 520 l 1,8,-1
 120 40 l 1,9,-1
 120 40 l 1,5,-1
EndSplineSet
EndChar

StartChar: uniFFC1
Encoding: 65473 65473 134
Width: 640
GlyphClass: 2
Flags: W
LayerCount: 2
Fore
SplineSet
80 0 m 1,0,-1
 80 560 l 1,1,-1
 560 560 l 1,2,-1
 560 0 l 1,3,-1
 80 0 l 1,4,-1
 80 0 l 1,0,-1
120 40 m 1,5,-1
 520 40 l 1,6,-1
 520 520 l 1,7,-1
 120 520 l 1,8,-1
 120 40 l 1,9,-1
 120 40 l 1,5,-1
EndSplineSet
EndChar

StartChar: uniFFC2
Encoding: 65474 65474 135
Width: 640
GlyphClass: 2
Flags: W
LayerCount: 2
Fore
SplineSet
80 0 m 1,0,-1
 80 560 l 1,1,-1
 560 560 l 1,2,-1
 560 0 l 1,3,-1
 80 0 l 1,4,-1
 80 0 l 1,0,-1
120 40 m 1,5,-1
 520 40 l 1,6,-1
 520 520 l 1,7,-1
 120 520 l 1,8,-1
 120 40 l 1,9,-1
 120 40 l 1,5,-1
EndSplineSet
EndChar

StartChar: uniFFC3
Encoding: 65475 65475 136
Width: 640
GlyphClass: 2
Flags: W
LayerCount: 2
Fore
SplineSet
80 0 m 1,0,-1
 80 560 l 1,1,-1
 560 560 l 1,2,-1
 560 0 l 1,3,-1
 80 0 l 1,4,-1
 80 0 l 1,0,-1
120 40 m 1,5,-1
 520 40 l 1,6,-1
 520 520 l 1,7,-1
 120 520 l 1,8,-1
 120 40 l 1,9,-1
 120 40 l 1,5,-1
EndSplineSet
EndChar

StartChar: uniFFC4
Encoding: 65476 65476 137
Width: 640
GlyphClass: 2
Flags: W
LayerCount: 2
Fore
SplineSet
80 0 m 1,0,-1
 80 560 l 1,1,-1
 560 560 l 1,2,-1
 560 0 l 1,3,-1
 80 0 l 1,4,-1
 80 0 l 1,0,-1
120 40 m 1,5,-1
 520 40 l 1,6,-1
 520 520 l 1,7,-1
 120 520 l 1,8,-1
 120 40 l 1,9,-1
 120 40 l 1,5,-1
EndSplineSet
EndChar

StartChar: uniFFC5
Encoding: 65477 65477 138
Width: 640
GlyphClass: 2
Flags: W
LayerCount: 2
Fore
SplineSet
80 0 m 1,0,-1
 80 560 l 1,1,-1
 560 560 l 1,2,-1
 560 0 l 1,3,-1
 80 0 l 1,4,-1
 80 0 l 1,0,-1
120 40 m 1,5,-1
 520 40 l 1,6,-1
 520 520 l 1,7,-1
 120 520 l 1,8,-1
 120 40 l 1,9,-1
 120 40 l 1,5,-1
EndSplineSet
EndChar

StartChar: uniFFC6
Encoding: 65478 65478 139
Width: 640
GlyphClass: 2
Flags: W
LayerCount: 2
Fore
SplineSet
80 0 m 1,0,-1
 80 560 l 1,1,-1
 560 560 l 1,2,-1
 560 0 l 1,3,-1
 80 0 l 1,4,-1
 80 0 l 1,0,-1
120 40 m 1,5,-1
 520 40 l 1,6,-1
 520 520 l 1,7,-1
 120 520 l 1,8,-1
 120 40 l 1,9,-1
 120 40 l 1,5,-1
EndSplineSet
EndChar

StartChar: uniFFC7
Encoding: 65479 65479 140
Width: 640
GlyphClass: 2
Flags: W
LayerCount: 2
Fore
SplineSet
80 0 m 1,0,-1
 80 560 l 1,1,-1
 560 560 l 1,2,-1
 560 0 l 1,3,-1
 80 0 l 1,4,-1
 80 0 l 1,0,-1
120 40 m 1,5,-1
 520 40 l 1,6,-1
 520 520 l 1,7,-1
 120 520 l 1,8,-1
 120 40 l 1,9,-1
 120 40 l 1,5,-1
EndSplineSet
EndChar

